<svg width="57" height="38" viewBox="0 0 57 38" fill="none" xmlns="http://www.w3.org/2000/svg">
<path d="M52.3386 37.4312C49.6905 37.4312 48.1226 36.0999 48.0242 34.2237H50.5095C50.5095 34.8068 50.8894 35.675 52.4905 35.6991C53.5613 35.6991 54.0678 35.0834 54.0678 34.6188C53.9954 33.8847 53.0527 33.8194 52.0419 33.6634C51.0406 33.5095 50.1897 33.3251 49.5617 33.025C48.7658 32.625 48.2362 31.7568 48.2362 30.7751C48.2362 29.1125 49.718 27.7797 52.1743 27.7797C54.5634 27.7797 56.0727 29.0175 56.2297 30.8297H53.8406C53.8066 30.3361 53.7133 29.5658 52.2959 29.5658C51.351 29.5658 50.7273 29.7523 50.6636 30.3971C50.6636 31.3511 52.6417 31.2929 54.1836 31.6901C55.661 32.0561 56.6074 32.9669 56.6074 34.2245C56.6074 36.5339 54.6871 37.4312 52.3386 37.4312ZM6.65385 21.9528L14.9288 17.2927L19.2989 24.6978H8.25283L6.64661 21.9528M22.8174 27.8649H25.1797V37.2099H22.8174V27.8649ZM2.87271 32.5853C2.87271 34.0365 4.12658 35.2352 5.60763 35.2352C7.11618 35.2352 8.37728 34.0294 8.37728 32.5853C8.37728 31.1411 7.1169 29.9027 5.60763 29.9027C4.88553 29.9137 4.19617 30.1999 3.68564 30.7006C3.17511 31.2014 2.88353 31.8773 2.87271 32.5853ZM5.54613 37.4319C2.84015 37.4319 0.607361 35.2352 0.607361 32.5853C0.607361 29.9027 2.83943 27.7727 5.54613 27.7727C6.58367 27.7727 7.56042 28.0507 8.378 28.6068V27.867H10.7078V37.2142H8.378V36.5857C7.58213 37.1106 6.61261 37.4241 5.54613 37.4241" fill="white"/>
<path d="M37.3182 24.6907L25.8142 5.11401L34.0899 0.432617L48.4041 24.7049H37.3182M13.7878 32.5782C13.7878 34.0294 15.0438 35.2281 16.5574 35.2281C18.0349 35.2281 19.2924 34.0223 19.2924 32.5782C19.2924 31.134 18.0363 29.8956 16.5574 29.8956C15.038 29.8956 13.7878 31.1269 13.7878 32.5782ZM16.4952 37.4248C13.7552 37.4248 11.5261 35.2281 11.5261 32.5782C11.5261 29.8956 13.7545 27.7655 16.4952 27.7655C17.5328 27.7655 18.4791 28.0436 19.2916 28.5997V24.6843H21.6503V37.2085H19.2916V36.5857C18.4784 37.1106 17.5335 37.4248 16.4952 37.4248ZM16.3035 13.6164L24.6117 8.96338L33.8916 24.6907H25.1753V27.0073H22.8167V24.6907L16.3035 13.6164ZM39.3021 32.5852C39.3021 34.0365 40.5625 35.2352 42.0515 35.2352C42.7665 35.23 43.4507 34.949 43.956 34.4531C44.4613 33.9572 44.7472 33.2862 44.7517 32.5852C44.7517 31.134 43.5275 29.9027 42.0515 29.9027C40.5705 29.9027 39.3021 31.134 39.3021 32.5852ZM41.9466 37.4319C40.6389 37.4221 39.3877 36.9081 38.4634 36.0012C37.5391 35.0943 37.016 33.8672 37.0071 32.5852C37.0071 29.9027 39.25 27.7726 41.9466 27.7726C42.9841 27.7726 43.958 28.0507 44.743 28.6068V27.867H47.1075V37.2141H44.743V36.5857C43.958 37.1106 43.0174 37.4241 41.9466 37.4241M28.4153 32.5824C28.4263 33.283 28.7152 33.9519 29.2207 34.4473C29.7263 34.9426 30.4087 35.2255 31.1234 35.2359C32.632 35.2359 33.8916 34.0358 33.8916 32.5831C33.8916 31.1347 32.6327 29.9041 31.1234 29.9041C29.6764 29.9041 28.4153 31.134 28.4153 32.5824ZM33.8923 24.6921H36.2206V37.2113H33.8923V36.5956C33.108 37.1184 32.1327 37.4326 31.059 37.4326C28.3531 37.4326 26.1195 35.2373 26.1195 32.5838C26.1195 29.9048 28.3531 27.7748 31.059 27.7748C32.1327 27.7748 33.074 28.0585 33.8923 28.6089V24.6921Z" fill="white"/>
</svg>
