<svg width="99" height="46" viewBox="0 0 99 46" fill="none" xmlns="http://www.w3.org/2000/svg">
<path d="M31.0907 12.7236H29.2971V14.5173H31.0907V12.7236Z" fill="white"/>
<path d="M3.36329 26.1763H5.15692L8.52002 35.1448H6.50205L5.75473 33.0522H2.61579L1.86847 35.1448H0L3.36329 26.1763ZM5.30642 31.5573L4.18545 28.3436L3.13914 31.5573H5.30642Z" fill="white"/>
<path d="M9.64106 26.1763H13.0042C14.3495 26.1763 15.4704 26.5499 16.2179 27.2972C16.9653 28.0446 17.3389 29.1657 17.3389 30.5857C17.3389 31.333 17.2643 32.0057 17.0399 32.5288C16.8158 33.1266 16.5168 33.5751 16.1431 33.9488C15.7694 34.3224 15.2463 34.6214 14.6483 34.8456C14.0505 35.0698 13.4525 35.1446 12.7052 35.1446H9.64087L9.64106 26.1763ZM12.7053 33.5753C13.1538 33.5753 13.6022 33.5007 13.9758 33.3512C14.3495 33.2017 14.5736 32.9775 14.798 32.7533C15.0223 32.5292 15.1716 32.1555 15.2465 31.8565C15.3211 31.4829 15.396 31.1092 15.396 30.6607C15.396 30.2122 15.3213 29.8386 15.2465 29.4649C15.1718 29.0913 15.0223 28.7922 14.798 28.5681C14.5738 28.3439 14.3495 28.1196 14.0507 27.9703C13.7519 27.821 13.378 27.7461 12.9297 27.7461H11.4349V33.5009H12.7053V33.5753Z" fill="white"/>
<path d="M18.8337 26.1763H20.4781L24.1402 32.0805V26.1763H26.0086V35.1448H24.2897L20.6276 29.3152V35.1448H18.8337V26.1763Z" fill="white"/>
<path d="M31.8382 35.3689C31.1656 35.3689 30.5678 35.2942 30.0446 35.0699C29.5214 34.8457 29.0729 34.5467 28.6993 34.0982C28.3256 33.7246 28.0266 33.2014 27.8771 32.6034C27.653 32.0056 27.5781 31.4076 27.5781 30.6603C27.5781 29.913 27.6528 29.3149 27.8771 28.7171C28.1013 28.1193 28.3256 27.6708 28.6993 27.2223C29.0729 26.8487 29.5214 26.475 30.0446 26.2507C30.5678 26.0265 31.1656 25.9517 31.8382 25.9517C32.5109 25.9517 33.1087 26.0263 33.6319 26.2507C34.155 26.4748 34.6035 26.7738 34.9772 27.2223C35.3508 27.596 35.6498 28.1191 35.7993 28.7171C36.0235 29.3149 36.0983 29.913 36.0983 30.6603C36.0983 31.4076 36.0237 32.0056 35.7993 32.6034C35.575 33.2012 35.3508 33.6497 34.9772 34.0982C34.6035 34.4719 34.155 34.8455 33.6319 35.0699C33.1089 35.2942 32.5109 35.3689 31.8382 35.3689ZM31.8382 33.7994C32.6604 33.7994 33.1835 33.5004 33.6319 32.9772C34.0055 32.4541 34.2297 31.7068 34.2297 30.6605C34.2297 29.6888 34.0055 28.9415 33.6319 28.3437C33.1834 27.8205 32.5855 27.5964 31.8382 27.5964C31.0161 27.5964 30.4929 27.8954 30.0446 28.4185C29.6709 28.9417 29.4468 29.689 29.4468 30.7353C29.4468 31.707 29.6709 32.5289 30.0446 33.0521C30.4183 33.5006 31.0161 33.7994 31.8382 33.7994Z" fill="white"/>
<path d="M45.2161 32.0806C45.1414 32.5291 45.0666 32.9774 44.9171 33.4259C44.7676 33.7996 44.4686 34.1732 44.1698 34.4722C43.8709 34.7712 43.4971 34.9954 43.0488 35.1449C42.6003 35.2944 42.0771 35.3691 41.4793 35.3691C40.8066 35.3691 40.2088 35.2196 39.6857 34.9954C39.1625 34.7712 38.714 34.4722 38.4152 34.0237C38.0416 33.6501 37.8174 33.1269 37.6679 32.5289C37.5184 31.9309 37.3689 31.3331 37.3689 30.5858C37.3689 29.8385 37.4436 29.2405 37.6679 28.6427C37.8921 28.0449 38.1164 27.5964 38.4901 27.1479C38.8637 26.7742 39.3122 26.4005 39.7605 26.1762C40.2837 25.952 40.8815 25.8772 41.4795 25.8772C42.0773 25.8772 42.5258 25.9518 42.9743 26.1013C43.4228 26.2508 43.7216 26.475 44.0206 26.6992C44.3196 26.9982 44.5438 27.297 44.6933 27.6708C44.8428 28.0445 44.9923 28.493 45.0669 28.9413L43.1985 29.1654C43.1238 28.6423 42.8995 28.1938 42.6753 27.895C42.3763 27.7455 42.0027 27.596 41.4048 27.596C40.6575 27.596 40.1344 27.895 39.7607 28.4181C39.3871 28.9413 39.2376 29.6886 39.2376 30.7349C39.2376 31.7066 39.4617 32.5286 39.8354 33.0517C40.209 33.5749 40.7322 33.8739 41.4048 33.8739C42.0027 33.8739 42.3765 33.7244 42.6753 33.4254C42.9743 33.1264 43.1238 32.6781 43.1985 32.1549H45.2164V32.0806H45.2161Z" fill="white"/>
<path d="M9.64123 20.4964V12.4995H11.5097V22.0658H3.66235C2.39188 22.0658 1.49506 21.7668 0.897057 21.2437C0.299244 20.7205 0.000244141 19.8984 0.000244141 18.7774C0.000244141 18.1796 0.149746 17.6564 0.373902 17.1333C0.672903 16.7596 1.04656 16.386 1.49487 16.1616C2.01803 15.8626 2.54119 15.7131 3.21385 15.7131L3.438 17.2826C2.84019 17.3572 2.39168 17.5067 2.16753 17.7311C1.94337 17.9552 1.79387 18.3289 1.79387 18.8521C1.79387 19.4499 1.94337 19.8237 2.24238 20.1225C2.54138 20.3467 2.98969 20.4962 3.58769 20.4962L9.64123 20.4964ZM7.84761 16.3858V16.9836H5.45597V16.3858H5.75497V16.0121C5.75497 15.7131 5.82963 15.4143 6.05398 15.2648C6.20348 15.1153 6.50248 15.0406 6.80129 15.0406C7.10029 15.0406 7.3991 15.1153 7.5486 15.2648C7.6981 15.4143 7.77276 15.6385 7.84761 15.9375L7.24979 16.0121C7.24979 15.8626 7.17514 15.788 7.17514 15.7131C7.10048 15.6385 7.02564 15.6385 6.87614 15.6385C6.57713 15.6385 6.42763 15.788 6.42763 16.087V16.386H7.84761V16.3858Z" fill="white"/>
<path d="M29.2971 15.4141V20.4215H19.0581V18.4783C19.0581 17.432 18.834 16.6847 18.3108 16.1616C17.7877 15.6384 17.0403 15.4143 16.0687 15.4143C15.097 15.4143 14.3497 15.7132 13.8266 16.2364C13.3034 16.7596 13.0044 17.5069 13.0044 18.4785C13.0044 19.5995 13.3781 20.5712 14.0507 21.169C14.7234 21.7668 15.7697 22.0658 17.0402 22.0658H17.2643V22.29C17.2643 23.0373 17.1897 23.4109 16.9653 23.6353L17.8621 25.0552C18.0116 24.9806 18.1611 24.8311 18.3106 24.7562C18.8338 24.2331 19.0579 23.1121 19.0579 22.0658H31.1654V15.4143H29.2971V15.4141ZM17.2643 20.4963H16.6665C15.396 20.4963 14.798 19.749 14.798 18.5532C14.798 18.03 14.8727 17.6564 15.097 17.4322C15.3212 17.1332 15.6202 17.0586 16.0687 17.0586C16.3677 17.0586 16.5918 17.1332 16.816 17.2081C16.9655 17.2827 17.115 17.5071 17.1897 17.7312C17.2643 18.0302 17.3392 18.5534 17.3392 19.0765V20.4965H17.2643V20.4963Z" fill="white"/>
<path d="M39.6856 20.4964V19.5248C39.6856 18.7026 39.5361 18.1048 39.2371 17.7311C38.9381 17.3575 38.4898 17.1333 37.8171 17.1333C37.3686 17.1333 36.9203 17.208 36.4718 17.3575L36.0233 15.788C36.6211 15.5639 37.2938 15.489 37.9664 15.489C39.0874 15.489 39.9844 15.788 40.5822 16.4607C41.18 17.1333 41.479 18.1048 41.479 19.3755V22.1407H32.5105V20.4966H39.6856V20.4964Z" fill="white"/>
<path d="M45.2161 12.0511V12.6489H42.8245V12.0511H43.1235V11.6774C43.1235 11.3784 43.1981 11.0796 43.4225 10.9301C43.572 10.7806 43.871 10.6311 44.1698 10.6311C44.4686 10.6311 44.7676 10.7058 44.9171 10.8553C45.0666 11.0048 45.1412 11.2289 45.2161 11.5279L44.6183 11.6026C44.6183 11.4531 44.5436 11.3784 44.5436 11.3036C44.469 11.2289 44.3941 11.2289 44.2446 11.2289C43.9456 11.2289 43.7961 11.3784 43.7961 11.6774V12.0511H45.2161Z" fill="white"/>
<path d="M44.8425 13.3965H43.0488V22.066H44.8425V13.3965Z" fill="white"/>
<path d="M91.3324 38.0927C90.6597 41.0075 89.2397 43.4738 87.2218 45.4917H98.2081C100.301 34.0569 92.7523 21.8748 80.4954 19.259C82.9618 19.9317 93.7988 25.0138 91.3324 38.0927Z" fill="white"/>
<path d="M53.2166 0.5V45.4917H57.9998C60.9146 45.4917 61.5873 45.5664 63.1567 45.2676C70.0326 44.2959 76.3105 38.6907 76.9832 33.7581C78.0295 27.9285 74.8159 22.7718 68.6873 21.5011C68.6127 21.5011 68.4632 21.4265 68.3137 21.4265C68.0895 21.4265 65.0999 21.4265 62.8579 20.8287C62.8579 20.8287 61.5126 21.875 62.0358 23.8181C62.0358 23.8181 58.9715 20.6043 60.9148 16.3444C60.9148 16.3444 61.8864 14.3264 65.0254 12.2338L65.1 12.1592C65.9222 11.1128 68.0148 9.31921 71.0043 7.97389C72.4991 7.30123 75.1149 6.32976 78.0295 6.03076C91.3328 4.76029 98.5075 14.9993 98.5075 14.9993V0.5H53.2166Z" fill="white"/>
<path d="M86.0262 11.4116C79.6735 10.5895 74.2924 12.2338 70.0325 15.1486C70.0325 15.1486 71.3029 14.4013 73.1714 13.7286C73.4704 14.9244 74.5167 15.9707 75.862 16.2697C77.7305 16.6434 79.5241 15.5971 79.8978 13.8035C79.9725 13.355 79.9725 12.8318 79.8231 12.3835C92.0053 12.0098 98.5075 21.352 98.5075 21.352V17.3162C96.7135 15.522 91.7063 12.0095 86.0262 11.4116Z" fill="white"/>
</svg>
