<svg width="36" height="46" viewBox="0 0 36 46" fill="none" xmlns="http://www.w3.org/2000/svg">
<g clip-path="url(#clip0_6979_45871)">
<path d="M34.2128 31.3C33.1298 30.1374 31.9354 29.15 30.6772 28.3537C31.9194 27.5574 33.1139 26.554 34.1969 25.3914C32.7795 24.6747 31.3142 24.1492 29.865 23.8306C30.7568 22.6521 31.5372 21.2984 32.1743 19.8491C30.5976 19.658 29.0527 19.6739 27.5716 19.865C28.0175 18.4476 28.2883 16.9187 28.3679 15.326C26.823 15.6923 25.3578 16.2179 24.0519 16.9027C23.9723 15.4216 23.7174 13.8927 23.2556 12.3638C21.9337 13.2397 20.7392 14.2431 19.7359 15.326C19.1625 13.9564 18.3821 12.6186 17.4266 11.3445C16.471 12.6186 15.7065 13.9723 15.1332 15.342C14.1298 14.2431 12.9354 13.2397 11.6135 12.3797C11.1516 13.8927 10.8968 15.4216 10.8172 16.9027C9.49531 16.2179 8.04602 15.6923 6.50118 15.326C6.59673 16.9187 6.86748 18.4476 7.31341 19.865C5.83227 19.6739 4.28743 19.6739 2.69481 19.865C3.31593 21.3302 4.09632 22.668 5.00411 23.8466C3.55482 24.181 2.08961 24.7066 0.672176 25.4233C1.75516 26.5859 2.94963 27.5733 4.2078 28.3696C2.96555 29.1659 1.77109 30.1693 0.688103 31.3319C2.10554 32.0486 3.57075 32.5741 5.02004 32.8927C4.12817 34.0712 3.34778 35.4249 2.71073 36.8742C4.28743 37.0653 5.83227 37.0494 7.29749 36.8742C6.85155 38.2917 6.58081 39.8206 6.50118 41.3973C8.04602 41.031 9.51123 40.5054 10.8172 39.8206C10.8809 41.3017 11.1516 42.8306 11.6135 44.3596C12.9354 43.4836 14.1298 42.4962 15.1332 41.3973C15.7065 42.7669 16.4869 44.1207 17.4425 45.3948C18.3981 44.1207 19.1625 42.7669 19.7359 41.3973C20.7392 42.4962 21.9337 43.4995 23.2715 44.3596C23.7334 42.8466 23.9882 41.3176 24.0678 39.8206C25.3897 40.5054 26.8549 41.031 28.3997 41.3973C28.3042 39.8047 28.0334 38.2917 27.5875 36.8742C29.0527 37.0653 30.6135 37.0653 32.1902 36.8742C31.5691 35.409 30.7887 34.0712 29.8809 32.8927C31.3302 32.5423 32.7954 32.0167 34.2128 31.3Z" fill="white" fill-opacity="0.5"/>
<path opacity="0.6" d="M29.8809 32.8769C29.0527 31.7939 28.1131 30.8383 27.0938 30.0579C28.3201 29.6757 29.5146 29.0864 30.6772 28.3538C29.5146 27.6212 28.3201 27.0479 27.0938 26.6656C28.1131 25.8853 29.0368 24.9297 29.8809 23.8308C28.5431 23.5282 27.2212 23.4008 25.9312 23.4645C26.616 22.3815 27.1734 21.1711 27.5716 19.8492C26.2179 20.0244 24.9278 20.3589 23.7334 20.8526C24.0041 19.5944 24.1156 18.2725 24.036 16.8869C22.8256 17.524 21.7267 18.2725 20.787 19.1485C20.6118 17.8744 20.2614 16.5843 19.72 15.3262C18.7803 16.3455 18.0158 17.4284 17.4266 18.5751C16.8373 17.4444 16.0569 16.3455 15.1173 15.3421C14.5917 16.6003 14.2413 17.8903 14.0821 19.1485C13.1424 18.2885 12.0276 17.524 10.8013 16.9029C10.7376 18.2725 10.849 19.6103 11.1198 20.8685C9.94125 20.3748 8.65122 20.0563 7.28157 19.8811C7.69565 21.187 8.25307 22.3974 8.9379 23.4804C7.6638 23.4326 6.32599 23.56 4.97226 23.8626C5.80043 24.9456 6.74008 25.9012 7.75935 26.6816C6.53304 27.0638 5.33857 27.6531 4.17595 28.3857C5.33857 29.1183 6.53304 29.6916 7.75935 30.0739C6.74008 30.8542 5.81635 31.8098 4.97226 32.9087C6.31007 33.2113 7.63194 33.3387 8.90604 33.275C8.22122 34.358 7.6638 35.5684 7.26564 36.8903C8.61937 36.7151 9.92532 36.3806 11.1039 35.8869C10.8331 37.1292 10.7216 38.467 10.7853 39.8366C12.0117 39.1996 13.1106 38.4511 14.0502 37.591C14.2254 38.8651 14.5758 40.1552 15.1013 41.4133C16.0251 40.3941 16.8055 39.3111 17.3947 38.1803C17.984 39.3111 18.7644 40.41 19.704 41.4133C20.2296 40.1552 20.58 38.8651 20.7552 37.591C21.6948 38.4511 22.8096 39.2155 24.036 39.8366C24.0997 38.467 23.9882 37.1292 23.7174 35.8869C24.896 36.3806 26.2019 36.6992 27.5557 36.8744C27.1416 35.5684 26.5842 34.358 25.8993 33.275C27.2053 33.3069 28.5431 33.1795 29.8809 32.8769Z" fill="white"/>
<path opacity="0.8" d="M24.0519 28.3698C25.1189 27.9717 26.1542 27.3983 27.1097 26.6657C25.963 26.2994 24.8004 26.1242 23.6697 26.1083C24.5456 25.3757 25.3101 24.4838 25.9471 23.4645C24.7526 23.5123 23.59 23.7353 22.523 24.1334C23.0963 23.146 23.5104 22.0471 23.7652 20.8686C22.6504 21.3304 21.647 21.9356 20.7711 22.6682C20.9622 21.5375 20.9781 20.3589 20.8189 19.1645C19.927 19.9767 19.1785 20.9004 18.6051 21.8879C18.3981 20.7571 18.0158 19.6423 17.4584 18.5752C16.9169 19.6423 16.5188 20.7412 16.3277 21.856C15.7543 20.8686 15.0058 19.9608 14.1139 19.1485C13.9547 20.343 13.9706 21.5215 14.1617 22.6523C13.2858 21.9197 12.2665 21.3145 11.1516 20.8686C11.4065 22.0471 11.8205 23.146 12.3939 24.1334C11.3268 23.7512 10.1642 23.5283 8.96975 23.4805C9.62272 24.4998 10.3872 25.3757 11.2472 26.1242C10.1005 26.1242 8.93789 26.3153 7.79121 26.6816C8.74678 27.4143 9.76606 27.9876 10.849 28.3698C9.78199 28.768 8.74678 29.3413 7.79121 30.0739C8.93789 30.4243 10.1005 30.6154 11.2313 30.6314C10.3553 31.364 9.59087 32.2558 8.9379 33.2751C10.1324 33.2273 11.295 33.0044 12.362 32.6221C11.7887 33.6096 11.3746 34.7244 11.1198 35.887C12.2346 35.4251 13.238 34.8199 14.1139 34.0873C13.9228 35.2181 13.9069 36.3807 14.0661 37.5752C14.958 36.763 15.7065 35.8552 16.2799 34.8677C16.4869 35.9985 16.8692 37.0974 17.4266 38.1645C17.984 37.0974 18.3662 35.9985 18.5733 34.8677C19.1466 35.8552 19.8951 36.763 20.787 37.5752C20.9463 36.3807 20.9303 35.2022 20.7392 34.0873C21.6152 34.8199 22.6345 35.4251 23.7493 35.887C23.4945 34.7085 23.0804 33.6096 22.507 32.6221C23.59 33.0044 24.7367 33.2273 25.9471 33.2751C25.2941 32.2558 24.5297 31.3799 23.6537 30.6314C24.8004 30.6314 25.963 30.4402 27.1097 30.0739C26.1382 29.3254 25.1189 28.7521 24.0519 28.3698Z" fill="white"/>
<path d="M20.787 28.943C21.9018 28.943 23.0008 28.736 24.036 28.3537C22.9848 27.9715 21.9018 27.7645 20.787 27.7645C21.8381 27.3822 22.7937 26.8089 23.6378 26.0922C22.523 26.0922 21.4241 26.2674 20.3729 26.6496C21.2329 25.9329 21.9337 25.0729 22.4911 24.1014C21.44 24.4837 20.4844 25.0251 19.6244 25.7418C20.1818 24.7703 20.5481 23.7192 20.7392 22.6362C19.8792 23.3529 19.1625 24.197 18.5892 25.1685C18.7803 24.0696 18.7644 22.9547 18.5733 21.8558C18.0158 22.8114 17.6336 23.8466 17.4425 24.9296C17.2514 23.8307 16.8532 22.7795 16.2958 21.824C16.1047 22.9229 16.0888 24.0377 16.2799 25.1366C15.7225 24.1651 14.9899 23.321 14.1458 22.6044C14.3369 23.7033 14.7032 24.7544 15.2606 25.71C14.4006 24.9933 13.4291 24.4518 12.3939 24.0696C12.9513 25.0411 13.6521 25.8852 14.5121 26.6178C13.4609 26.2355 12.362 26.0604 11.2631 26.0604C12.1072 26.777 13.0628 27.3345 14.1139 27.7326C12.9991 27.7326 11.9002 27.9396 10.849 28.3219C11.9002 28.7041 12.9832 28.9111 14.098 28.9111C13.0469 29.2934 12.0913 29.8667 11.2313 30.5834C12.3461 30.5834 13.445 30.4082 14.4962 30.026C13.6361 30.7427 12.9354 31.6027 12.378 32.5742C13.4291 32.192 14.4006 31.6505 15.2447 30.9338C14.6873 31.9053 14.321 32.9564 14.1298 34.0553C14.9899 33.3386 15.7065 32.4945 16.264 31.539C16.0728 32.6379 16.0888 33.7527 16.2799 34.8357C16.8373 33.8801 17.2355 32.829 17.4266 31.746C17.6177 32.8449 18.0158 33.8801 18.5733 34.8516C18.7644 33.7527 18.7803 32.6538 18.5892 31.5549C19.1466 32.5264 19.8792 33.3705 20.7233 34.0712C20.5322 32.9723 20.1659 31.9371 19.6085 30.9656C20.4685 31.6823 21.44 32.2238 22.4911 32.606C21.9337 31.6345 21.2329 30.7904 20.3729 30.0578C21.4241 30.4401 22.523 30.6153 23.6378 30.6153C22.7937 29.8986 21.8381 29.3412 20.787 28.943Z" fill="white"/>
<path d="M26.5682 5.62695C26.5682 6.59845 26.2179 7.93626 24.8482 7.93626C23.1919 7.93626 23.1919 6.07289 23.1919 5.69066C23.1919 5.30843 23.1919 3.33358 24.896 3.33358C26.4408 3.31765 26.5682 5.03768 26.5682 5.62695ZM23.2237 0.450928H22.1089V7.58588L22.077 8.65294H23.1441L23.1759 7.76107C23.2874 7.93626 23.4308 8.1433 23.7493 8.36626C24.2589 8.71664 24.7845 8.74849 25.0712 8.74849C25.8834 8.74849 26.6797 8.39812 27.1575 7.72922C27.4601 7.34699 27.7308 6.70994 27.7308 5.56325C27.7308 4.2573 27.3327 3.66803 27.0301 3.33358C26.4886 2.71245 25.7401 2.56912 25.1508 2.56912C23.7971 2.56912 23.3671 3.31765 23.2078 3.5884V0.450928H23.2237ZM29.642 5.86585C29.642 5.34028 29.642 3.46099 31.4098 3.46099C32.7158 3.46099 33.0343 4.57582 33.0343 5.64288C33.0343 6.07289 32.9706 6.91698 32.5565 7.50625C32.1743 8.03181 31.585 8.07959 31.2983 8.07959C29.7535 8.06367 29.642 6.58253 29.642 5.86585ZM28.5909 10.9304H29.6898V7.99996C30.0083 8.52553 30.6453 8.89183 31.5054 8.89183C32.9228 8.89183 34.2128 7.92033 34.2128 5.70658C34.2128 3.50876 33.0024 2.63282 31.7283 2.63282C31.2505 2.63282 30.2631 2.77616 29.7057 3.7158L29.6898 2.72838H28.5749C28.5909 3.30172 28.6068 3.44506 28.6068 3.69988L28.5909 10.9304Z" fill="white"/>
</g>
<defs>
<clipPath id="clip0_6979_45871">
<rect width="34.382" height="45" fill="white" transform="translate(0.695251 0.432617)"/>
</clipPath>
</defs>
</svg>
