<svg width="163" height="38" viewBox="0 0 163 38" fill="none" xmlns="http://www.w3.org/2000/svg">
<path fill-rule="evenodd" clip-rule="evenodd" d="M3.3012 14.0321L15.8501 18.0942C16.8656 18.5294 16.9381 19.0372 15.9952 19.5449L3.3012 24.1873C2.93852 22.4464 0.617337 20.9957 0.5448 19.2548C0.5448 17.5864 2.86598 15.7005 3.3012 14.0321ZM9.24923 5.25517L16.7205 15.4829C17.3008 16.4258 17.0107 16.7885 15.9952 16.6435L3.37374 13.5244C3.8815 11.856 2.86598 9.31723 3.8815 7.8665C4.75194 6.56083 7.87103 6.34322 9.24923 5.25517ZM19.6945 1.55579L19.0417 14.2497C18.8966 15.3378 18.4614 15.5554 17.6635 14.7575L9.68445 4.81995C11.0626 3.87697 11.9331 1.12057 13.6014 0.612808C15.1973 0.10505 17.9537 1.55579 19.6945 1.55579ZM30.1399 4.96502L21.9432 14.7575C21.2178 15.5554 20.7101 15.4103 20.565 14.3948L20.0572 1.62832C21.7981 1.70086 24.1918 -0.0400242 25.7876 0.540271C27.3834 1.04803 28.6891 3.87697 30.1399 4.96502ZM36.233 13.5969L23.7566 16.716C22.6686 16.9336 22.3784 16.5709 22.8862 15.5554L30.2849 5.25517C31.6631 6.27068 34.5646 6.27068 35.5801 7.72142C36.5231 9.02709 35.7252 11.9286 36.233 13.5969ZM36.233 24.2598L23.8291 19.4724C22.8136 18.9646 22.8136 18.4569 23.8291 18.0217L36.3055 14.1772C36.7407 15.8456 38.9894 17.5864 38.9894 19.3273C38.9894 20.9957 36.8132 22.5915 36.233 24.2598Z" fill="white"/>
<path fill-rule="evenodd" clip-rule="evenodd" d="M19.767 19.835L36.1604 24.6949C35.7251 26.5809 36.378 28.5394 35.2174 30.2077C34.1293 31.9486 31.3004 31.8761 29.6321 33.0367C28.0362 34.2698 27.601 36.6635 25.7151 37.3164C23.9016 37.8966 21.9431 36.3008 19.9121 36.3008C17.8811 36.3008 15.705 37.8966 13.819 37.2438C11.8605 36.591 11.3528 34.1247 9.75694 32.8916C8.16113 31.6585 5.40473 31.731 4.38921 30.1352C3.30116 28.4669 4.02653 26.4358 3.59131 24.6949L19.767 19.835Z" fill="white"/>
<path d="M96.5743 27.6033C98.4218 29.8864 101.553 29.5727 101.553 29.5727H106.936V8.33034H98.9504V21.3291L88.8042 8.3042H80.2875L80.2584 29.5611H88.0286V16.7134C88.0344 16.7134 94.297 24.7857 96.5743 27.6033Z" fill="white"/>
<path d="M110.494 29.5698H118.583V24.9396H126.235C133.064 24.9396 136.663 22.2963 136.663 16.3765C136.663 10.6745 132.634 8.3042 126.235 8.3042H112.466H110.494V29.5698ZM124.187 12.8908C126.357 12.8908 128.776 13.4921 128.776 16.1325C128.776 19.653 126.121 20.2311 124.184 20.2311H118.583V12.9489L124.187 12.8908Z" fill="white"/>
<path d="M66.6961 13.0593H76.2033V8.27808H64.9445C57.1511 8.27808 51.9894 12.031 51.9894 18.8833C51.9894 25.2795 56.9913 29.5698 65.5661 29.5698H76.2033V24.6666H67.1608C60.6135 24.6666 59.9513 20.7452 59.9513 18.8833C59.9513 16.9255 60.9331 13.0593 66.6961 13.0593Z" fill="white"/>
<path d="M153.49 13.1053H163V8.33569H151.744C143.948 8.33569 138.786 12.0828 138.786 18.9118C138.786 25.2964 143.788 29.5664 152.366 29.5664H163V24.6806H153.966C147.41 24.6806 146.748 20.7709 146.748 18.9118C146.745 16.9598 147.73 13.1053 153.49 13.1053Z" fill="white"/>
</svg>
