<svg width="108" height="46" viewBox="0 0 108 46" fill="none" xmlns="http://www.w3.org/2000/svg">
<path d="M16.6734 25.3272L16.9588 25.4252L16.9914 25.4355L17.5742 25.1381C17.7702 25.0126 17.9575 24.9524 18.1449 24.9524H26.1468V35.6721L26.0953 35.8509C26.0575 35.8939 26.0093 35.9369 25.9818 35.9506L25.6071 36.1947L25.5693 36.2205V36.4835H29.8238V36.2188L29.3889 35.9558L29.2513 35.832C29.2599 35.8354 29.2462 35.7684 29.2479 35.6756V24.9542H36.3646C36.6654 24.9885 36.7531 25.0711 36.7462 25.1398V25.4286H37.0126L39.0548 22.9464H18.5712L16.6734 25.3272ZM17.3817 30.4532L17.3662 30.5512H17.6773L19.6731 28.0621H5.55838L4.22616 30.0458H17C17.3181 30.0837 17.416 30.173 17.4092 30.2298V30.2676L17.3817 30.4532ZM21.5468 34.3399C21.4196 34.4138 21.3147 34.4602 21.246 34.4757L11.415 34.5032C9.13218 34.5032 7.42521 34.2075 6.29927 33.63C4.58027 32.7378 3.73624 31.4503 3.7328 29.7278C3.7328 28.9354 3.95455 28.2014 4.40149 27.5223C5.24896 26.2692 6.5468 25.4767 8.31909 25.1484C8.81073 25.059 9.20094 25.0057 9.49317 24.9765C10.0261 24.9473 10.6311 24.9353 11.2998 24.9353H14.3459C14.6691 24.9679 14.7619 25.059 14.7585 25.114V25.1518L14.7327 25.3066L14.7189 25.4045H15.0008L17.0258 22.9532H11.3084C9.90573 22.9532 8.83136 22.9979 8.075 23.0959C7.659 23.1475 7.27738 23.2111 6.93186 23.2953C5.96922 23.5085 5.01861 23.8763 4.0852 24.4041C2.62061 25.2292 1.58061 26.2744 0.972089 27.5327C0.631727 28.2426 0.468422 29.0299 0.468422 29.8929C0.464984 32.076 1.64078 33.8105 3.95971 35.0619C5.02893 35.6463 6.203 36.04 7.4785 36.2497C8.44802 36.4079 9.76133 36.4852 11.4219 36.4852H20.5223L22.5644 34.0013H22.1192L21.5468 34.3399ZM40.0553 23.2111L40.4575 23.4724C40.6002 23.5669 40.65 23.6529 40.65 23.7268V35.6549L40.5933 35.8492C40.5521 35.8904 40.5005 35.93 40.4627 35.954L40.0948 36.1947L40.057 36.2188V36.4818H44.2823V36.2188L43.9093 35.954C43.8336 35.9025 43.7924 35.8526 43.7872 35.8372L43.7494 23.7251L43.8027 23.5566L43.9179 23.4586L44.2479 23.2317L44.2823 23.2059V22.9412H40.057V23.2111H40.0553ZM71.3084 24.8321L73.3609 27.0152L75.6901 29.3531L71.8396 29.3565L69.9366 31.4451L70.1739 31.5689L70.2134 31.5912L70.6638 31.3523C70.7188 31.3248 70.7738 31.3059 70.8133 31.3024C70.858 31.2938 71.0626 31.2938 71.3961 31.2938H77.5157L81.7943 35.8234C81.8304 35.844 81.8424 35.8526 81.8613 35.9025L81.9095 36.0452C81.9043 36.1019 81.7891 36.1981 81.3817 36.1981H81.2958V36.4938H85.9354L73.0962 22.9687L71.3084 24.8321ZM107.309 28.2426C106.795 26.613 105.628 25.2928 103.815 24.2889C102.176 23.3778 99.8111 22.9326 96.7187 22.9309H84.7561V23.1939L85.1584 23.4552C85.2237 23.5016 85.265 23.5429 85.2804 23.5755L85.277 24.9112H91.1542V24.9146H96.698C99.0496 24.9146 100.753 25.2258 101.8 25.836C103.462 26.809 104.282 28.0913 104.286 29.7124C104.286 30.5529 104.069 31.2921 103.638 31.9505C103.208 32.6037 102.558 33.1607 101.688 33.6128C100.574 34.1904 98.876 34.4895 96.6018 34.4895H90.5199V25.6332H87.3896L87.4189 35.6704L87.3656 35.8457C87.3432 35.8784 87.3054 35.9162 87.259 35.9523L86.8963 36.1844L86.8585 36.2085V36.4732H96.6155C98.515 36.4732 99.9779 36.3649 101.02 36.1517C102.427 35.8612 103.674 35.3541 104.757 34.6287C105.833 33.905 106.603 33.0713 107.053 32.1276C107.387 31.4348 107.548 30.6905 107.548 29.8963C107.552 29.3187 107.469 28.7652 107.309 28.2426ZM64.4238 36.1741C64.2347 36.1397 64.1625 36.0881 64.1453 36.04L72.4618 27.3728L70.6861 25.4819L60.1658 36.4904H64.747V36.1947H64.6627C64.5682 36.1947 64.4822 36.1861 64.4238 36.1741ZM60.3756 34.8745L60.5234 34.7146L63.5471 31.4743L63.5024 23.7268L63.5265 23.5755L63.6485 23.4638L64.0284 23.2386L64.0697 23.2145V22.9481H59.7997V23.2128L60.2191 23.4758C60.3566 23.5618 60.4031 23.6357 60.4048 23.7268V27.8386H51.3611L49.4548 30.2556L49.7435 30.3484L49.7796 30.3587L50.3658 30.0115C50.493 29.941 50.591 29.8928 50.6581 29.8757C50.7217 29.855 50.8128 29.843 50.9331 29.843H60.4031L60.3756 34.8745ZM49.3774 35.8354L49.3396 23.7268L49.3826 23.5755C49.398 23.5549 49.4462 23.5119 49.5132 23.4758L49.8948 23.2369L49.9344 23.2111V22.9447H45.6798V23.2111L46.0838 23.4724C46.1508 23.5188 46.1938 23.5635 46.2093 23.5927L46.2419 35.6584L46.1887 35.8509C46.1646 35.8853 46.1233 35.9283 46.0821 35.9558L45.7176 36.1947L45.6798 36.2205V36.4835H49.9361V36.2188L49.5201 35.9558C49.4376 35.9059 49.3894 35.8612 49.3774 35.8354ZM65.3864 16.1855L68.2589 19.07L71.1296 16.1855L69.2783 14.329L71.5508 11.9327V0.797045L71.3892 0.759227C71.3892 0.760946 71.2121 1.13225 70.4455 1.96425C69.9813 2.46104 69.7372 2.64153 69.6117 2.71545C69.5103 2.76874 69.4123 2.81 69.4192 2.93376C69.4192 2.96986 69.4227 3.0094 69.4227 3.07644C69.488 3.65059 70.1618 3.40821 70.1996 4.30381C70.2186 4.61323 70.2237 5.49336 70.2237 6.52304C70.2237 8.44832 70.2031 10.9065 70.2014 11.2228L68.2692 13.2375L66.325 11.2228C66.3216 10.9048 66.2992 8.45004 66.3009 6.52304C66.2992 5.49336 66.3044 4.61323 66.325 4.30381C66.3628 3.40821 67.035 3.64887 67.0986 3.07644C67.0986 3.0094 67.102 2.96814 67.102 2.93376C67.1089 2.80828 67.0092 2.77046 66.9095 2.71717C66.784 2.64153 66.5399 2.45932 66.0809 1.96597C65.3074 1.13397 65.1406 0.759227 65.1355 0.760946L64.9739 0.798764V12.1046L67.2378 14.3307L65.3864 16.1855ZM69.6203 16.1873L68.2589 17.5521L66.8957 16.1855L68.2589 14.8207L69.6203 16.1873ZM75.599 14.1159C75.599 14.109 75.5664 10.1467 75.5664 7.21751C75.5664 5.75464 75.5732 4.54962 75.599 4.24192C75.6454 3.35492 76.4895 3.59558 76.5685 3.01284C76.5685 2.94408 76.5703 2.90282 76.5703 2.86672C76.572 2.73092 76.4654 2.70514 76.333 2.64669C76.1732 2.56762 75.8672 2.38712 75.2913 1.89205C74.3252 1.06005 74.1086 0.687029 74.1035 0.688748L73.9471 0.432617V14.2018H75.6007L75.599 14.1159ZM38.0784 15.7334C38.0836 15.7695 38.4893 17.2101 40.485 17.2083C40.5228 17.2083 40.5624 17.2083 40.6019 17.2083C42.6991 17.1516 43.2285 15.6647 43.2285 15.6509L43.2337 9.67225C43.2337 9.67396 43.2354 9.64646 43.2354 9.60005C43.2337 9.31641 43.1735 8.2111 42.1507 8.19906H32.9334L32.9438 7.967C32.9816 7.0714 33.6193 7.31034 33.6795 6.73963C33.6795 6.67087 33.6812 6.63133 33.6812 6.60211C33.6795 6.5832 33.6847 6.56257 33.6623 6.52476C33.5299 6.42677 33.5781 6.51444 33.4406 6.42849C33.3185 6.36145 33.0933 6.18611 32.7134 5.75464C31.9742 4.91921 31.7955 4.78685 31.7852 4.77825L31.6511 4.67855V7.69539H31.6562V9.69803H40.7119C40.7222 9.69631 40.7549 9.69287 40.8133 9.69287C41.0471 9.70319 41.5611 9.74616 41.5663 10.4475V14.6745C41.5611 14.6745 41.5714 15.6733 40.571 15.675C40.057 15.675 39.696 15.4704 39.4639 15.2659C39.2301 15.0613 39.1253 14.8568 39.1236 14.8585L39.1322 12.4759H31.6528V14.2018H38.0784V15.7334ZM57.1181 14.5112C57.1181 14.5009 57.1043 14.6161 57.1043 14.7846C57.106 15.2177 57.1851 16.0549 57.8847 16.3351C57.8847 16.3351 58.1305 16.4675 58.4915 16.4692C58.7236 16.4692 59.0004 16.4107 59.2857 16.2285L59.3871 16.1649L59.2926 16.091C58.88 15.7833 58.7975 14.8997 58.8044 14.427C58.8027 14.3307 58.8061 14.2534 58.8095 14.2001H63.1741L63.1621 12.1132V9.64474H63.1672V4.90374L63.0108 5.17878C63.0091 5.17878 62.7993 5.55008 61.8745 6.38036C61.321 6.87715 61.0271 7.05936 60.8741 7.13672C60.7503 7.19345 60.6454 7.22095 60.6472 7.35503C60.6472 7.39285 60.6523 7.43239 60.6523 7.50115C60.728 8.08217 61.5393 7.84323 61.5806 8.73023C61.6115 9.15483 61.6115 11.6663 61.6115 11.6697L61.6184 12.586H58.8233C58.8267 12.5206 58.8285 12.4209 58.8285 12.2954C58.8285 12.2387 58.8267 12.1785 58.8267 12.1167C58.8164 11.0853 58.4778 8.93307 55.9749 8.93479C55.9302 8.93479 55.8855 8.93307 55.8391 8.93479C55.0278 8.95886 54.3161 8.97777 53.7041 8.97777C52.059 8.98464 51.1411 8.82822 50.9107 8.38815L50.8661 8.3108L50.7904 8.36065C50.4999 8.54802 50.383 8.89354 50.383 9.24765C50.3847 9.83383 50.7062 10.4888 51.2735 10.5352C51.6654 10.5541 52.2275 10.5592 52.793 10.5592C53.8055 10.5592 54.8215 10.5403 54.8215 10.5403C57.1713 10.561 57.1043 11.6267 57.1232 11.9998V12.5894H47.0189L47.043 11.3964L47.0206 0.491063L46.8642 0.75407C46.8625 0.755789 46.6459 1.12709 45.6781 1.95565C45.104 2.45072 44.798 2.63466 44.6398 2.71201C44.5075 2.77218 44.4026 2.79796 44.4026 2.93204C44.4026 2.96814 44.4061 3.0094 44.4061 3.07816C44.4851 3.65918 45.3292 3.42024 45.3738 4.30724C45.422 4.96562 45.4306 8.97949 45.4306 11.2572C45.4306 12.194 45.4289 12.8386 45.4289 12.8404L45.4443 14.2018H57.1181V14.5112ZM63.0073 3.60761L62.9472 3.54745L61.7456 2.34071L60.4839 3.60589L61.7473 4.87108L63.0073 3.60761ZM60.2398 3.60761L60.1796 3.54917L58.978 2.34071L57.718 3.60761L58.978 4.8728L60.2398 3.60761Z" fill="white"/>
<path d="M24.3503 43.552L24.2334 43.8838C23.8415 45.0149 24.1079 45.0355 24.8196 45.1232V45.3054H22.7929V45.1232C23.1436 45.0132 23.2949 44.9994 23.4427 44.6522L24.8901 41.2727L24.8213 41.0767C25.0757 40.9839 25.2872 40.7913 25.4384 40.5696H25.5639L26.7844 43.7635C27.2073 44.8327 27.1609 44.9101 27.833 45.1215V45.3037H25.6121V45.1215C26.2498 45.0115 26.2859 44.8877 25.9301 43.9612L25.7737 43.5503H24.3503V43.552ZM25.6258 43.1584L25.0362 41.6405L24.4724 43.1584H25.6258Z" fill="white"/>
<path d="M35.2285 43.8546C35.2285 45.0356 35.3144 44.9926 36.0931 45.125V45.3055H33.5095V45.125C34.283 44.9926 34.3707 45.0356 34.3707 43.8546V42.3058C34.3707 41.1231 34.2847 41.1713 33.5095 41.0389V40.855H36.0931V41.0389C35.3144 41.1713 35.2285 41.1231 35.2285 42.3058V43.8546Z" fill="white"/>
<path d="M42.7541 42.1099C42.7541 41.2314 42.7128 41.1008 41.8946 41.0406V40.855H43.9247C44.7258 40.855 45.8053 40.855 45.8053 41.895C45.8053 42.4141 45.4185 42.794 44.9578 42.9676C45.4443 43.9217 46.1165 44.9479 47.1925 45.2023L47.1668 45.3828C46.584 45.3536 45.9136 45.4138 45.4048 45.0562C45.073 44.8224 44.6948 44.207 44.4989 43.8392C44.1946 43.2513 44.2376 43.2874 43.617 43.198V43.8564C43.617 44.7468 43.5792 45.0442 44.6295 45.125V45.3072H41.8946V45.125C42.6699 44.9926 42.7541 45.0373 42.7541 43.8564V42.1099ZM43.617 42.9659C44.2238 42.9229 44.8306 42.6617 44.8306 41.9534C44.8306 41.2796 44.2032 41.0956 43.617 41.0956V42.9659Z" fill="white"/>
<path d="M53.0456 45.4309L52.7843 45.3794L51.7048 41.9311C51.5621 41.479 51.5054 41.1575 50.9691 41.0406V40.8567H53.0112V41.0406C52.3253 41.2022 52.4216 41.3672 52.6571 42.127L53.2244 43.9939H53.2364L54.0615 41.656C53.9378 41.2675 53.747 41.1317 53.3567 41.0406V40.8567H55.4488V41.0406C54.9004 41.1902 54.7852 41.1971 55.0534 42.0531L55.6688 44.0592H55.6791L55.9043 43.3441C56.0229 42.9642 56.408 41.809 56.408 41.4824C56.408 41.1317 56.1054 41.1317 55.839 41.0406V40.8567H57.6061V41.0406C57.0251 41.2177 56.9529 41.3466 56.6675 42.1511L55.5003 45.4327L55.2322 45.3811L54.2266 42.1253H54.2111L53.0456 45.4309Z" fill="white"/>
<path d="M63.0641 43.552L62.9472 43.8838C62.5587 45.0149 62.8268 45.0355 63.5351 45.1232V45.3054H61.5067V45.1232C61.859 45.0132 62.0086 44.9994 62.1633 44.6522L63.6004 41.2727L63.5351 41.0767C63.7895 40.9839 63.9992 40.7913 64.1573 40.5696H64.2828L65.5016 43.7635C65.9228 44.8327 65.8781 44.9101 66.5485 45.1215V45.3037H64.3344V45.1215C64.9636 45.0115 65.0048 44.8877 64.6421 43.9612L64.4874 43.5503H63.0641V43.552ZM64.3447 43.1584L63.7499 41.6405L63.1947 43.1584H64.3447Z" fill="white"/>
<path d="M74.1448 43.8546C74.1448 44.7468 74.1035 45.0425 75.0902 45.125V45.3055H72.3347V45.125C73.1959 44.9926 73.2835 45.0356 73.2835 43.8546V43.5521L72.5495 42.0686C72.2573 41.4704 72.1731 41.1885 71.4494 41.0389V40.855H73.7099V41.0389C73.2578 41.1558 73.0394 41.1008 73.4159 41.9019L73.9849 43.1L74.3373 42.3797C74.8925 41.2469 74.7739 41.1885 74.1895 41.0389V40.855H76.0907V41.0389C75.5389 41.1558 75.2724 41.2916 75.0025 41.7832L74.2582 43.1653L74.143 43.4146V43.8546H74.1448Z" fill="white"/>
<path d="M84.909 42.1802H84.7148C84.5893 41.6388 84.4329 41.044 83.7624 41.044C83.3636 41.044 83.0972 41.3396 83.0972 41.7264C83.0972 42.7888 85.2425 42.7131 85.2425 44.0832C85.2425 45.0252 84.3435 45.4188 83.5115 45.4188C83.0439 45.4188 82.5849 45.2951 82.1827 45.0836L81.9678 43.7875L82.1689 43.7462C82.3855 44.3892 82.8634 45.1163 83.6318 45.1163C84.0667 45.1163 84.3813 44.8327 84.3813 44.4063C84.3813 43.3027 82.2342 43.3939 82.2342 42.1012C82.2342 41.2314 83.0645 40.7449 83.8604 40.7449C84.2558 40.7449 84.6357 40.8429 84.9657 41.0405L84.909 42.1802Z" fill="white"/>
</svg>
