<svg width="108" height="40" viewBox="0 0 108 40" fill="none" xmlns="http://www.w3.org/2000/svg">
<path fill-rule="evenodd" clip-rule="evenodd" d="M45.751 13.8652C45.411 13.8652 44.6956 12.8165 44.7257 11.722L44.733 6.16962H46.1528C46.9111 6.16962 47.9511 6.06733 48.898 6.6829C48.898 6.6829 48.2359 4.73451 46.1528 4.73451H44.733V3.29818C44.733 3.29818 44.733 2.06765 44.4494 1.65666H46.437C48.0473 1.65666 49.3727 1.65666 50.7925 2.57971C50.7925 2.57971 50.5071 0.220947 47.1941 0.220947H40.8522C40.8522 0.220947 41.9877 1.24628 41.8928 3.29757L41.9877 11.7104C41.9877 13.7604 42.7448 13.8627 42.7448 13.8627L45.751 13.8652ZM66.6601 2.88597L64.8085 2.88535C64.8085 2.88535 65.6244 3.40353 65.1399 5.60979H65.1423L63.7017 12.0919C63.7017 12.0919 63.5535 13.0027 63.2816 12.9978C62.3291 12.9813 61.8973 11.4329 61.7362 10.9067C61.6284 10.5607 60.5712 4.49992 60.5277 4.31617C60.1902 2.93558 59.3891 2.88719 58.907 2.88597H57.0181C57.0181 2.88597 57.5191 3.17262 57.7776 4.21694C57.8125 4.35414 59.0638 10.927 59.0638 10.927C59.0638 10.927 59.3223 12.3069 60.1357 12.9929C61.1096 13.8149 61.9604 13.8645 62.5465 13.8645C62.9722 13.8645 63.3159 13.622 63.3159 13.622L63.0825 14.5432C62.6592 16.3599 61.324 17.2682 61.324 17.2682C61.324 17.2682 64.2009 17.2701 64.2273 17.2682C64.4055 17.2529 65.1338 17.0349 65.7108 14.6553L67.8129 5.66185C68.3354 3.02868 67.2861 2.89209 66.6601 2.88597ZM55.3098 11.1352C55.3098 12.955 56.4356 13.8645 56.4356 13.8645H53.5709C53.5709 13.8645 52.6503 13.9944 52.6503 11.1352V2.95028C52.6503 0.740964 51.7303 0.221559 51.7303 0.221559H53.4692C54.0829 0.221559 55.3098 0.22156 55.3098 3.21059V11.1352ZM93.2313 39.5323C95.3812 39.1819 96.0893 38.2723 96.0893 38.2723V35.6392C94.3847 38.7378 91.5984 37.6537 90.9785 37.3426C88.964 36.5696 88.8084 33.9364 88.8084 33.9364C90.3587 32.0762 92.2164 32.5417 94.6952 29.9086C97.7927 26.6549 95.4694 23.0932 91.1329 23.0932C86.6407 23.0932 84.1619 27.2754 84.1619 31.7663C84.1619 35.7249 86.4478 38.8426 89.9605 39.5268C90.8303 39.694 92.3548 39.6713 93.2313 39.5323ZM65.7322 37.6543C64.8024 37.6543 64.0276 36.7245 64.0276 35.6398C64.0276 31.6132 67.4356 30.9945 68.3654 29.9098V36.7251C67.9011 37.1876 67.5899 37.6543 65.7322 37.6543ZM12.9145 37.3432H8.11364C6.56523 37.3432 6.71958 36.1041 6.56523 35.0199V28.0502H8.88785C10.1276 28.0502 11.8316 27.8946 13.38 28.8244C13.38 28.8244 12.2952 25.8825 8.88785 25.8825H6.56523V23.7137C6.56523 23.7137 6.56523 21.8559 6.10033 21.2342H9.35336C11.9859 21.2342 14.1548 21.2342 16.478 22.6301C16.478 22.6301 16.0125 19.0672 10.5925 19.0672H0.214752C0.214752 19.0672 2.07371 20.6156 1.91875 23.7137L2.0731 36.4146C2.0731 38.5774 2.67703 39.3062 3.04147 39.5476H14.537C16.1289 39.1458 16.788 37.8154 16.788 37.0332V35.7941C16.788 35.7941 16.0119 37.3432 12.9145 37.3432ZM104.299 35.1755C104.299 36.2584 103.214 37.8087 101.046 37.8087C98.7224 37.8087 97.9482 35.4854 97.9482 35.4854V38.4273C97.9482 38.4273 98.9601 39.2383 100.659 39.5482H103.143C105.54 39.0674 107.739 37.1606 107.861 34.6843V34.2463C107.861 33.1616 107.551 32.2318 106.931 31.3032C105.847 30.0641 103.988 29.1343 102.593 28.2058C101.819 27.7403 101.356 26.8123 101.356 26.5012C101.356 25.8825 101.665 24.7978 103.833 24.7978C106.001 24.7978 106.931 27.1223 106.931 27.1223V24.3335C106.931 24.3335 105.228 23.0944 102.75 23.0944C100.117 23.0944 97.7926 24.7978 97.7926 26.9667C97.9482 28.98 98.7224 30.2197 100.271 31.3032C100.891 31.7675 101.665 32.2318 102.593 32.6979C103.833 33.4709 104.299 34.2457 104.299 35.1755ZM68.3654 28.3601C67.2806 30.0635 59.5367 30.3734 60.7758 36.5702C61.1384 38.385 62.165 39.2548 63.556 39.5476H65.8945C67.2212 39.2413 67.993 38.3979 68.3647 37.6537C68.6747 39.5114 69.6026 39.5114 69.6026 39.5114H73.9404C73.9404 39.5114 72.237 38.4267 72.237 36.2578V27.1216C72.237 24.9515 69.7582 23.0938 67.2794 23.0938C64.8018 23.0938 63.0984 24.3329 63.0984 24.3329V27.276C63.0984 27.276 64.027 24.9515 66.3514 24.9515C68.5191 24.9515 68.6747 26.0357 68.6747 26.6549C68.6747 26.6555 68.829 27.276 68.3654 28.3601ZM45.9059 21.8559C46.9901 21.8559 47.9199 20.9249 47.9199 19.8408C47.9199 18.7579 46.9901 17.8281 45.9059 17.8281C44.8218 17.8281 43.8926 18.7579 43.8926 19.8408C43.8926 20.9249 44.8224 21.8559 45.9059 21.8559ZM92.0614 28.98C92.6825 27.5865 93.3018 24.1779 90.8235 24.3335C88.036 24.6422 88.5003 32.2318 88.5003 32.2318C89.4295 31.1489 90.9785 30.9945 92.0614 28.98ZM81.5294 24.9521C82.924 24.9521 84.0082 25.7276 84.0082 25.7276V23.25H80.4458V19.3771C80.4458 19.3771 79.5185 21.0799 77.504 22.6307C76.2649 23.7149 73.6329 24.9528 73.6329 24.9528H76.4192V36.4158C76.4192 39.5133 77.8139 39.5133 77.8139 39.5133H82.1517C82.1517 39.5133 80.4458 38.4285 80.4458 36.4158V24.9528L81.5294 24.9521ZM61.2401 24.4879C61.2401 24.4879 60.9301 23.25 59.0712 23.25C56.2837 23.25 55.6644 26.5018 55.6644 26.5018C55.5101 23.8686 54.7346 23.095 52.8769 23.095H50.2443C50.2443 23.095 51.7921 23.7149 51.7921 26.5018V36.259C51.7921 39.5127 53.0319 39.5127 53.0319 39.5127H57.3678C57.2147 39.5127 55.6644 38.4279 55.6644 36.259V28.207C55.82 27.4316 56.2843 26.9679 56.7486 26.5024C58.142 25.5738 60.1565 25.8838 61.2407 27.1235L61.2401 24.4879ZM47.9199 36.2584C47.9199 38.4273 49.6239 39.5121 49.6239 39.5121H45.2867C45.2867 39.5121 43.8926 39.6664 43.8926 36.2584V26.5012C43.8926 23.868 42.4986 23.2494 42.4986 23.2494H45.1317C46.0615 23.2494 47.9199 23.2494 47.9199 26.8117V36.2584ZM40.3297 36.2584V27.431C40.3297 24.0242 37.5428 23.0944 35.3739 23.0944C32.7407 23.0944 31.8122 25.4164 31.5022 26.1919C30.8818 24.0242 28.7135 23.0944 27.0095 23.0944C23.6027 23.0944 22.8285 26.1919 22.8285 26.1919C22.8285 26.1919 22.6736 23.25 20.0404 23.25H17.4072C17.4072 23.25 18.9556 23.8686 18.9556 26.5018V36.259C18.9556 38.5437 19.5663 39.3013 19.9307 39.5488H24.3947C23.977 39.1911 22.8285 38.1278 22.8285 36.259V27.5872C22.9835 27.1229 23.6027 25.8838 25.4617 25.8838C26.5458 25.8838 27.63 26.9679 27.63 28.207V36.259C27.63 39.5127 28.8691 39.5127 28.8691 39.5127H33.2056C33.2056 39.5127 31.6572 38.4279 31.6572 36.259V27.5872C31.8128 27.1229 32.2771 25.8838 33.9804 25.8838C35.2201 25.8838 36.3031 26.9679 36.3031 28.207V36.259C36.3031 39.667 37.6977 39.5127 37.6977 39.5127H42.0343C42.0343 39.5127 40.3297 38.4273 40.3297 36.2584Z" fill="white"/>
</svg>
