<svg width="139" height="36" viewBox="0 0 139 36" fill="none" xmlns="http://www.w3.org/2000/svg">
<path fill-rule="evenodd" clip-rule="evenodd" d="M0.966248 25.0535H8.73873L11.5668 12.2567L17.0307 24.5435L24.4087 22.0125L28.9491 12.8989L30.5363 19.6892C32.9412 19.0659 35.346 18.4898 37.7797 17.9515L34.3456 4.42749H26.525L20.2532 17.9326L14.3565 4.47471H6.10301L0.966248 25.0535ZM31.7291 24.8835L31.7387 24.9496H39.5593L39.1938 23.4952C36.6927 23.9391 34.2109 24.4019 31.7291 24.8835Z" fill="white"/>
<path fill-rule="evenodd" clip-rule="evenodd" d="M41.0695 24.9118H49.4192L51.0641 21.5592C48.0821 22.003 45.1 22.4752 42.118 22.9852L41.0695 24.9118ZM54.3154 14.9294L57.461 8.52624L60.1159 14.0983C62.5016 13.7677 64.8872 13.4655 67.2728 13.1916L62.9633 4.45581H52.2184L45.7253 16.3649C48.5823 15.8454 51.4489 15.3638 54.3154 14.9294ZM62.9056 19.9631L65.3104 25.0063H73.1021L70.2163 19.1415C67.773 19.3964 65.3393 19.6703 62.9056 19.9631Z" fill="white"/>
<path fill-rule="evenodd" clip-rule="evenodd" d="M75.026 4.55017H84.7801L89.8111 10.9061L95.4384 4.44629H105.51L99.4497 10.1789L82.4137 11.3783L75.026 4.55017Z" fill="white"/>
<path fill-rule="evenodd" clip-rule="evenodd" d="M74.8144 24.9495H83.4911L89.7053 17.8003L81.5095 18.4331L74.8144 24.9495Z" fill="white"/>
<path fill-rule="evenodd" clip-rule="evenodd" d="M96.9871 24.9497H105.722L97.901 17.4321L89.9169 17.9043L96.9871 24.9497Z" fill="white"/>
<path fill-rule="evenodd" clip-rule="evenodd" d="M108.011 4.46533H118.333L121.632 9.34795H113.619L108.011 4.46533Z" fill="white"/>
<path fill-rule="evenodd" clip-rule="evenodd" d="M127.827 4.50293H137.369L132.175 9.13056L124.479 9.26278L127.827 4.50293Z" fill="white"/>
<path fill-rule="evenodd" clip-rule="evenodd" d="M107.116 24.9875H116.659L123.037 17.0827L129.231 24.9875H138.909L130.049 16.9883H115.61L107.116 24.9875Z" fill="white"/>
<path fill-rule="evenodd" clip-rule="evenodd" d="M12.6442 27.339C49.1691 18.4616 89.2147 13.8245 133.656 15.2317L133.599 10.3679C68.1385 11.8506 31.1712 18.5371 12.6442 27.339Z" fill="white"/>
<path d="M5.78556 29.1805H6.61283V34.6015H5.73746V30.3894L3.87129 32.4765H3.70777L1.81274 30.3894V34.6015H0.937378V29.1805H1.78389L3.78472 31.4094L5.78556 29.1805ZM10.8935 29.105C11.8362 29.105 12.6153 29.3694 13.2406 29.8983C13.8659 30.4272 14.1833 31.0977 14.1833 31.891C14.1833 32.6938 13.8659 33.3548 13.231 33.8743C12.6057 34.4031 11.8073 34.6581 10.8454 34.6581C9.93152 34.6581 9.17159 34.4031 8.56557 33.8743C7.94992 33.3548 7.65172 32.6938 7.65172 31.9099C7.65172 31.0977 7.95954 30.4272 8.56557 29.8983C9.18121 29.3694 9.96038 29.105 10.8935 29.105ZM10.9319 29.8416C10.2297 29.8416 9.66218 30.0305 9.21969 30.4272C8.76757 30.8049 8.54633 31.3055 8.54633 31.9099C8.54633 32.4954 8.76757 32.9771 9.21969 33.3643C9.6718 33.7515 10.2297 33.9404 10.9031 33.9404C11.5764 33.9404 12.144 33.7515 12.5961 33.3548C13.0578 32.9582 13.2791 32.4671 13.2791 31.8721C13.2791 31.3055 13.0578 30.8238 12.5961 30.4366C12.144 30.04 11.5861 29.8416 10.9319 29.8416ZM17.3 34.6015H15.2511V29.1805H16.8383C17.3385 29.1805 17.7329 29.2466 18.0214 29.3694C18.3004 29.4827 18.512 29.6527 18.6563 29.8605C18.8102 30.0683 18.8872 30.3138 18.8872 30.5877C18.8872 31.126 18.5794 31.5038 17.9541 31.7399C18.3966 31.806 18.7525 31.9666 19.0122 32.2215C19.272 32.4765 19.4066 32.7693 19.4066 33.1187C19.4066 33.3926 19.3297 33.6382 19.1662 33.8648C19.0122 34.082 18.7814 34.252 18.4639 34.3937C18.1561 34.5259 17.7713 34.6015 17.3 34.6015ZM16.8671 29.87H16.1168V31.5038H16.7036C17.1653 31.5038 17.4924 31.4188 17.6944 31.2677C17.8868 31.1071 17.983 30.8994 17.983 30.6538C17.983 30.1344 17.6078 29.87 16.8671 29.87ZM16.9345 32.1932H16.1168V33.9026H16.9729C17.4539 33.9026 17.7713 33.8743 17.9445 33.8082C18.1176 33.7421 18.2523 33.6382 18.3485 33.4965C18.4543 33.3643 18.5024 33.2132 18.5024 33.0526C18.5024 32.8826 18.4543 32.7315 18.3485 32.5993C18.2331 32.4577 18.0792 32.3632 17.8772 32.2971C17.6848 32.2215 17.3673 32.1932 16.9345 32.1932ZM20.2724 29.1805H21.1478V34.6015H20.2724V29.1805ZM22.4848 29.1805H23.3602V33.8932H26.0921V34.6015H22.4848V29.1805ZM26.8521 29.1805H30.3054V29.87H27.7274V31.5227H30.2092V32.2121H27.7274V33.9026H30.3824V34.6015H26.8521V29.1805ZM32.8161 32.3254L32.1524 31.9666C31.7387 31.7399 31.4501 31.5132 31.2674 31.3055C31.0942 31.0883 31.0076 30.8333 31.0076 30.5405C31.0076 30.1249 31.1712 29.7755 31.5079 29.5016C31.8349 29.2372 32.2678 29.105 32.7969 29.105C33.3067 29.105 33.7684 29.2278 34.2013 29.4922V30.3705C33.7588 29.9927 33.2874 29.8038 32.7872 29.8038C32.4987 29.8038 32.2678 29.8605 32.085 29.9833C31.9022 30.0966 31.8061 30.2477 31.8061 30.4272C31.8061 30.5877 31.8734 30.7388 32.0177 30.8899C32.1427 31.0316 32.364 31.1732 32.6622 31.3338L33.3259 31.6832C34.0666 32.0799 34.4418 32.5804 34.4418 33.1943C34.4418 33.6287 34.2686 33.9782 33.9416 34.252C33.6241 34.5259 33.2009 34.6581 32.6718 34.6581C32.0754 34.6581 31.5271 34.4976 31.0365 34.167V33.1849C31.4982 33.7137 32.0465 33.9782 32.6622 33.9782C32.9411 33.9782 33.1624 33.9121 33.3452 33.7704C33.5279 33.6382 33.6145 33.4682 33.6145 33.2698C33.6145 32.9299 33.3548 32.6182 32.8161 32.3254Z" fill="white"/>
<path d="M47.2452 29.1522H47.8608L50.5831 34.6015H49.6981L48.8805 32.996H46.2929L45.5329 34.6015H44.6383L47.2452 29.1522ZM48.5342 32.3065L47.553 30.3422L46.6296 32.3065H48.5342ZM56.0277 33.3454V34.1954C55.3928 34.507 54.6521 34.6581 53.8249 34.6581C53.1419 34.6581 52.5647 34.5354 52.0934 34.2993C51.622 34.0537 51.2469 33.7232 50.9775 33.2887C50.6986 32.8637 50.5639 32.401 50.5639 31.9004C50.5639 31.1071 50.8813 30.446 51.5066 29.9172C52.1415 29.3694 52.9206 29.105 53.8441 29.105C54.479 29.105 55.1908 29.2561 55.97 29.5489V30.3799C55.2582 30.0211 54.5656 29.8416 53.8826 29.8416C53.19 29.8416 52.6128 30.04 52.1511 30.4366C51.6894 30.8238 51.4585 31.3149 51.4585 31.9004C51.4585 32.5049 51.6894 32.9865 52.1415 33.3737C52.5936 33.7515 53.1708 33.9404 53.873 33.9404C54.6137 33.9404 55.3255 33.7421 56.0277 33.3454ZM62.2322 33.3454V34.1954C61.5973 34.507 60.8567 34.6581 60.0294 34.6581C59.3464 34.6581 58.7692 34.5354 58.2979 34.2993C57.8265 34.0537 57.4514 33.7232 57.182 33.2887C56.9031 32.8637 56.7684 32.401 56.7684 31.9004C56.7684 31.1071 57.0858 30.446 57.7111 29.9172C58.346 29.3694 59.1155 29.105 60.0486 29.105C60.6835 29.105 61.3953 29.2561 62.1745 29.5489V30.3799C61.4627 30.0211 60.7701 29.8416 60.0871 29.8416C59.3945 29.8416 58.8077 30.04 58.3556 30.4366C57.8939 30.8238 57.663 31.3149 57.663 31.9004C57.663 32.5049 57.8843 32.9865 58.346 33.3737C58.7981 33.7515 59.3753 33.9404 60.0775 33.9404C60.8182 33.9404 61.53 33.7421 62.2322 33.3454ZM63.1942 29.1805H66.6475V29.87H64.0695V31.5227H66.561V32.2121H64.0695V33.9026H66.7245V34.6015H63.1942V29.1805ZM69.0524 32.3254L68.3983 31.9666C67.9846 31.7399 67.6864 31.5132 67.5133 31.3055C67.3305 31.0883 67.2439 30.8333 67.2439 30.5405C67.2439 30.1249 67.4171 29.7755 67.7442 29.5016C68.0808 29.2372 68.5137 29.105 69.0428 29.105C69.5526 29.105 70.0143 29.2278 70.4376 29.4922V30.3705C70.0047 29.9927 69.5334 29.8038 69.0235 29.8038C68.735 29.8038 68.5041 29.8605 68.3213 29.9833C68.1385 30.0966 68.052 30.2477 68.052 30.4272C68.052 30.5877 68.1193 30.7388 68.254 30.8899C68.3887 31.0316 68.6099 31.1732 68.8985 31.3338L69.5622 31.6832C70.3125 32.0799 70.6781 32.5804 70.6781 33.1943C70.6781 33.6287 70.5145 33.9782 70.1875 34.252C69.8604 34.5259 69.4372 34.6581 68.9177 34.6581C68.3117 34.6581 67.773 34.4976 67.2728 34.167V33.1849C67.7442 33.7137 68.2925 33.9782 68.9081 33.9782C69.1774 33.9782 69.4083 33.9121 69.5911 33.7704C69.7642 33.6382 69.8604 33.4682 69.8604 33.2698C69.8604 32.9299 69.5911 32.6182 69.0524 32.3254ZM73.0348 32.3254L72.3807 31.9666C71.9575 31.7399 71.6593 31.5132 71.4861 31.3055C71.313 31.0883 71.2264 30.8333 71.2264 30.5405C71.2264 30.1249 71.3899 29.7755 71.7266 29.5016C72.0536 29.2372 72.4865 29.105 73.0156 29.105C73.5254 29.105 73.9871 29.2278 74.4104 29.4922V30.3705C73.9775 29.9927 73.5062 29.8038 72.9963 29.8038C72.7174 29.8038 72.4865 29.8605 72.3038 29.9833C72.121 30.0966 72.0248 30.2477 72.0248 30.4272C72.0248 30.5877 72.0921 30.7388 72.2268 30.8899C72.3615 31.0316 72.5827 31.1732 72.8809 31.3338L73.5447 31.6832C74.2853 32.0799 74.6605 32.5804 74.6605 33.1943C74.6605 33.6287 74.497 33.9782 74.1603 34.252C73.8429 34.5259 73.4196 34.6581 72.8905 34.6581C72.2941 34.6581 71.7458 34.4976 71.2552 34.167V33.1849C71.717 33.7137 72.2653 33.9782 72.8809 33.9782C73.1599 33.9782 73.3811 33.9121 73.5639 33.7704C73.7467 33.6382 73.8332 33.4682 73.8332 33.2698C73.8332 32.9299 73.5735 32.6182 73.0348 32.3254ZM78.489 29.105C79.4317 29.105 80.2109 29.3694 80.8265 29.8983C81.4518 30.4272 81.7692 31.0977 81.7692 31.891C81.7692 32.6938 81.4518 33.3548 80.8265 33.8743C80.1917 34.4031 79.4029 34.6581 78.4409 34.6581C77.5271 34.6581 76.7672 34.4031 76.1515 33.8743C75.5455 33.3548 75.2377 32.6938 75.2377 31.9099C75.2377 31.0977 75.5455 30.4272 76.1611 29.8983C76.7768 29.3694 77.5463 29.105 78.489 29.105ZM78.5179 29.8416C77.8253 29.8416 77.2577 30.0305 76.8056 30.4272C76.3631 30.8049 76.1323 31.3055 76.1323 31.9099C76.1323 32.4954 76.3631 32.9771 76.8056 33.3643C77.2577 33.7515 77.8157 33.9404 78.4986 33.9404C79.172 33.9404 79.7396 33.7515 80.1917 33.3548C80.6438 32.9582 80.865 32.4671 80.865 31.8721C80.865 31.3055 80.6438 30.8238 80.1917 30.4366C79.7396 30.04 79.1816 29.8416 78.5179 29.8416ZM82.76 34.6015V29.1805H84.2799C84.8956 29.1805 85.3861 29.3222 85.7421 29.5866C86.1076 29.8605 86.2904 30.2288 86.2904 30.6916C86.2904 31.0033 86.2038 31.2771 86.021 31.5038C85.8479 31.7399 85.5978 31.9099 85.2611 32.0232C85.4535 32.1366 85.6459 32.2877 85.8286 32.486C86.021 32.6843 86.2808 33.0243 86.6174 33.5154C86.8291 33.8271 87.0022 34.0537 87.1273 34.2048L87.4447 34.6015H86.4154L86.1461 34.2426C86.1365 34.2332 86.1268 34.2048 86.098 34.1765L85.9248 33.9593L85.3669 33.1376C85.1841 32.9204 85.0206 32.741 84.8667 32.6088C84.7224 32.4765 84.5877 32.3821 84.4723 32.3254C84.3472 32.2688 84.1452 32.2404 83.8663 32.2404H83.6354V34.6015H82.76ZM83.8951 29.8416H83.6354V31.551H83.9625C84.405 31.551 84.7032 31.5132 84.8667 31.4471C85.0398 31.381 85.1553 31.2866 85.2515 31.1449C85.3477 31.0127 85.3861 30.8521 85.3861 30.6822C85.3861 30.5122 85.338 30.3516 85.2419 30.2194C85.136 30.0872 84.9917 29.9833 84.809 29.9266C84.6262 29.87 84.3184 29.8416 83.8951 29.8416ZM88.0219 29.1805H88.8972V34.6015H88.0219V29.1805ZM90.1381 29.1805H93.5819V29.87H91.0039V31.5227H93.4953V32.2121H91.0039V33.9026H93.6685V34.6015H90.1381V29.1805ZM95.9964 32.3254L95.3326 31.9666C94.919 31.7399 94.6208 31.5132 94.4476 31.3055C94.2745 31.0883 94.1879 30.8333 94.1879 30.5405C94.1879 30.1249 94.3514 29.7755 94.6881 29.5016C95.0152 29.2372 95.448 29.105 95.9771 29.105C96.4869 29.105 96.9487 29.2278 97.3719 29.4922V30.3705C96.9391 29.9927 96.4677 29.8038 95.9579 29.8038C95.6789 29.8038 95.448 29.8605 95.2557 29.9833C95.0825 30.0966 94.9863 30.2477 94.9863 30.4272C94.9863 30.5877 95.0536 30.7388 95.1883 30.8899C95.323 31.0316 95.5442 31.1732 95.8424 31.3338L96.5062 31.6832C97.2469 32.0799 97.6124 32.5804 97.6124 33.1943C97.6124 33.6287 97.4489 33.9782 97.1218 34.252C96.7948 34.5259 96.3715 34.6581 95.8521 34.6581C95.2557 34.6581 94.7074 34.4976 94.2071 34.167V33.1849C94.6785 33.7137 95.2268 33.9782 95.8424 33.9782C96.1118 33.9782 96.3427 33.9121 96.5254 33.7704C96.6986 33.6382 96.7948 33.4682 96.7948 33.2698C96.7948 32.9299 96.5254 32.6182 95.9964 32.3254Z" fill="white"/>
<path d="M109.281 32.3254L108.617 31.9666C108.203 31.7399 107.905 31.5132 107.732 31.3055C107.549 31.0883 107.463 30.8333 107.463 30.5405C107.463 30.1249 107.636 29.7755 107.963 29.5016C108.3 29.2372 108.723 29.105 109.252 29.105C109.762 29.105 110.233 29.2278 110.656 29.4922V30.3705C110.214 29.9927 109.742 29.8038 109.242 29.8038C108.954 29.8038 108.723 29.8605 108.54 29.9833C108.357 30.0966 108.261 30.2477 108.261 30.4272C108.261 30.5877 108.328 30.7388 108.473 30.8899C108.607 31.0316 108.819 31.1732 109.117 31.3338L109.781 31.6832C110.522 32.0799 110.897 32.5804 110.897 33.1943C110.897 33.6287 110.733 33.9782 110.406 34.252C110.079 34.5259 109.656 34.6581 109.136 34.6581C108.53 34.6581 107.982 34.4976 107.492 34.167V33.1849C107.963 33.7137 108.502 33.9782 109.127 33.9782C109.396 33.9782 109.617 33.9121 109.8 33.7704C109.983 33.6382 110.07 33.4682 110.07 33.2698C110.07 32.9299 109.81 32.6182 109.281 32.3254ZM111.936 29.1805H115.379V29.87H112.801V31.5227H115.293V32.2121H112.801V33.9026H115.456V34.6015H111.936V29.1805ZM116.505 34.6015V29.1805H118.025C118.64 29.1805 119.131 29.3222 119.487 29.5866C119.852 29.8605 120.035 30.2288 120.035 30.6916C120.035 31.0033 119.939 31.2771 119.766 31.5038C119.593 31.7399 119.333 31.9099 119.006 32.0232C119.198 32.1366 119.381 32.2877 119.574 32.486C119.756 32.6843 120.026 33.0243 120.362 33.5154C120.564 33.8271 120.737 34.0537 120.863 34.2048L121.19 34.6015H120.151L119.891 34.2426C119.881 34.2332 119.862 34.2048 119.833 34.1765L119.67 33.9593L119.112 33.1376C118.929 32.9204 118.765 32.741 118.612 32.6088C118.458 32.4765 118.333 32.3821 118.208 32.3254C118.092 32.2688 117.89 32.2404 117.602 32.2404H117.371V34.6015H116.505ZM117.63 29.8416H117.371V31.551H117.707C118.14 31.551 118.448 31.5132 118.612 31.4471C118.775 31.381 118.9 31.2866 118.996 31.1449C119.083 31.0127 119.131 30.8521 119.131 30.6822C119.131 30.5122 119.073 30.3516 118.977 30.2194C118.871 30.0872 118.737 29.9833 118.544 29.9266C118.371 29.87 118.063 29.8416 117.63 29.8416ZM125.076 29.1805H125.951L123.373 34.6204H123.181L120.564 29.1805H121.44L123.267 32.9865L125.076 29.1805ZM126.701 29.1805H127.577V34.6015H126.701V29.1805ZM134.253 33.3454V34.1954C133.618 34.507 132.877 34.6581 132.04 34.6581C131.367 34.6581 130.79 34.5354 130.318 34.2993C129.847 34.0537 129.472 33.7232 129.193 33.2887C128.924 32.8637 128.779 32.401 128.779 31.9004C128.779 31.1071 129.097 30.446 129.722 29.9172C130.357 29.3694 131.136 29.105 132.059 29.105C132.704 29.105 133.406 29.2561 134.185 29.5489V30.3799C133.474 30.0211 132.781 29.8416 132.098 29.8416C131.405 29.8416 130.828 30.04 130.366 30.4366C129.914 30.8238 129.674 31.3149 129.674 31.9004C129.674 32.5049 129.905 32.9865 130.357 33.3737C130.809 33.7515 131.386 33.9404 132.088 33.9404C132.829 33.9404 133.551 33.7421 134.253 33.3454ZM135.407 29.1805H138.851V29.87H136.282V31.5227H138.764V32.2121H136.282V33.9026H138.937V34.6015H135.407V29.1805Z" fill="white"/>
<path fill-rule="evenodd" clip-rule="evenodd" d="M39.0591 28.1135H39.8479V35.4327H39.0591V28.1135Z" fill="white"/>
<path fill-rule="evenodd" clip-rule="evenodd" d="M102.057 28.1135H102.845V35.4327H102.057V28.1135Z" fill="white"/>
<path d="M133.627 3.08642V0.876492H132.819V0.432617H134.965V0.876492H134.166V3.08642H133.627ZM135.311 3.08642V0.432617H136.129L136.619 2.23645L137.1 0.432617H137.918V3.08642H137.408V0.999266L136.879 3.08642H136.35L135.821 0.999266V3.08642H135.311Z" fill="white"/>
</svg>
