<svg width="55" height="40" viewBox="0 0 55 40" fill="none" xmlns="http://www.w3.org/2000/svg">
<g clip-path="url(#clip0_6979_45825)">
<path d="M13.0861 0.708347C13.0366 0.759239 12.9685 0.89283 12.9252 1.0137C12.8818 1.1282 12.8076 1.33177 12.758 1.459C12.5352 2.07607 12.4795 2.22874 12.3866 2.47684C12.3309 2.62951 12.2504 2.85217 12.2071 2.97303C12.1638 3.0939 12.0771 3.32291 12.0214 3.48195C11.9657 3.64099 11.879 3.87636 11.8295 4.00359C11.78 4.13718 11.7057 4.35347 11.6562 4.4807C11.6067 4.6143 11.5262 4.84331 11.4705 4.98962C11.3467 5.3395 11.2105 5.70847 11.0991 6.00746C11.0495 6.14105 10.9629 6.37642 10.9072 6.53546C10.8515 6.6945 10.7648 6.92987 10.7153 7.0571C10.6658 7.19069 10.5915 7.40698 10.5419 7.53421C10.4924 7.6678 10.412 7.89682 10.3562 8.04313C10.3005 8.19581 10.2201 8.42482 10.1705 8.55205C10.121 8.68564 10.0344 8.92102 9.97864 9.08005C9.92293 9.23909 9.83627 9.4681 9.79293 9.58897C9.7496 9.70984 9.66294 9.93885 9.60723 10.0979C9.55152 10.2569 9.46485 10.4923 9.41533 10.6195C9.30391 10.9249 9.16772 11.2938 9.04392 11.6374C8.98821 11.79 8.90773 12.0127 8.8644 12.1336C8.82107 12.2544 8.74679 12.4707 8.69108 12.6107C8.64156 12.7506 8.5487 12.9924 8.49299 13.1514C8.35681 13.514 8.22062 13.883 8.12158 14.1692C8.07825 14.2901 7.99777 14.5128 7.94206 14.6591C7.88635 14.8117 7.79969 15.0535 7.74397 15.1998C7.68826 15.3525 7.62017 15.5242 7.58922 15.5815C7.55827 15.6451 7.53351 15.7532 7.53351 15.8232C7.53351 15.9504 7.57065 15.9504 9.25439 15.9504H10.9815L11.0557 15.7723C11.0991 15.6769 11.2476 15.3016 11.3838 14.9326C11.52 14.5636 11.6871 14.1183 11.7552 13.9466C11.8233 13.7685 11.9038 13.5394 11.9286 13.4377C11.9905 13.215 12.0647 13.0114 12.4857 11.9109C12.659 11.4529 12.8261 10.9949 12.8571 10.8931C12.9437 10.5941 13.1109 10.1361 13.1604 10.0661C13.1914 10.0343 13.2285 9.91977 13.2533 9.81798C13.2842 9.68439 13.3152 9.65259 13.3647 9.70348C13.4328 9.77345 13.4018 10.2569 13.1295 14.0102C13.0737 14.7418 13.0428 15.4733 13.0552 15.6324L13.0737 15.9186L14.838 15.9377C15.8098 15.9441 16.6641 15.9377 16.7383 15.9186C16.8126 15.8996 16.8931 15.8232 16.9117 15.7405C16.9612 15.5688 17.2955 14.6527 17.4069 14.3919C17.4502 14.2837 17.4997 14.1438 17.5183 14.0738C17.5369 14.0038 17.605 13.8003 17.6731 13.6285C17.735 13.4504 17.9392 12.9097 18.1126 12.4198C18.2921 11.93 18.4778 11.4465 18.5273 11.3511C18.5768 11.2493 18.614 11.1284 18.614 11.0839C18.614 11.033 18.6573 10.8867 18.713 10.7531C18.8678 10.3969 19.103 9.78618 19.264 9.33451C19.3073 9.21364 19.3939 8.98463 19.4497 8.82559C19.5054 8.66656 19.592 8.43754 19.6354 8.31668C19.6787 8.19581 19.7592 7.97316 19.8149 7.82048C19.8706 7.67417 19.9573 7.43879 20.0068 7.29884C20.0563 7.15889 20.143 6.92987 20.1925 6.78992C20.242 6.64997 20.3287 6.42095 20.3782 6.281C20.4277 6.14105 20.5144 5.91204 20.5639 5.77208C20.6134 5.63213 20.7001 5.40312 20.7496 5.26317C20.7991 5.12321 20.8858 4.8942 20.9353 4.75425C20.9848 4.6143 21.0715 4.37892 21.1272 4.22624C21.1829 4.07993 21.2634 3.85728 21.3067 3.73641C21.3934 3.49467 21.5172 3.15115 21.6719 2.7313C21.7277 2.58498 21.8143 2.34961 21.8638 2.20966C22.0557 1.67529 22.161 1.40811 22.2476 1.18546C22.2972 1.05823 22.3281 0.886469 22.3157 0.803769L22.2972 0.651094L20.7806 0.632009C19.9449 0.619286 19.1773 0.632009 19.0721 0.651094C18.8678 0.689263 18.874 0.663817 18.3354 2.14604C18.2859 2.28599 18.1992 2.51501 18.1497 2.65496C18.1002 2.79491 18.0197 3.01756 17.9702 3.14479C17.9207 3.27838 17.8402 3.5074 17.7845 3.65371C17.7288 3.80639 17.6421 4.04812 17.5864 4.19444C17.3945 4.71608 17.3202 4.91328 17.1283 5.45401C16.7755 6.42095 16.7445 6.50365 16.6641 6.6945C16.6207 6.79628 16.565 6.9426 16.5465 7.00621C16.5217 7.08255 16.4845 7.10799 16.4474 7.06983C16.4103 7.03166 16.4226 6.67541 16.4784 6.09016C16.5279 5.58124 16.5712 4.93873 16.5712 4.65883C16.5712 4.37892 16.6145 3.7046 16.6579 3.16388C16.7631 1.98064 16.8003 0.810131 16.7383 0.695624C16.6641 0.574756 13.2099 0.587479 13.0861 0.708347ZM22.8605 0.740155C22.8048 0.803769 22.7305 0.93736 22.6995 1.03914C22.6748 1.14093 22.5881 1.38266 22.5138 1.57351C22.4395 1.76435 22.3591 1.99337 22.3281 2.08243C22.2972 2.17149 22.2167 2.4005 22.1424 2.59134C22.0681 2.78219 21.9876 3.0112 21.9567 3.10026C21.9257 3.18932 21.8453 3.41834 21.771 3.60918C21.6967 3.80003 21.6162 4.02904 21.5853 4.1181C21.5543 4.20716 21.4739 4.43617 21.3996 4.62702C21.3253 4.81786 21.2448 5.04688 21.2139 5.13594C21.1829 5.225 21.1024 5.45401 21.0282 5.64485C20.9539 5.8357 20.8734 6.06471 20.8425 6.15377C20.8115 6.24283 20.731 6.47185 20.6567 6.66269C20.5825 6.85354 20.502 7.08255 20.471 7.17161C20.4401 7.26067 20.3596 7.48968 20.2853 7.68053C20.2111 7.87137 20.1306 8.10039 20.0996 8.18945C20.0687 8.27851 19.9882 8.50752 19.9139 8.69836C19.8396 8.88921 19.7592 9.11822 19.7282 9.20728C19.6973 9.29634 19.6168 9.52536 19.5425 9.7162C19.3568 10.2124 19.233 10.5496 19.1711 10.734C19.1401 10.8231 19.0597 11.0521 18.9854 11.243C18.9111 11.4338 18.8306 11.6628 18.7997 11.7519C18.7687 11.8409 18.6883 12.0699 18.614 12.2608C18.5397 12.4516 18.4592 12.6806 18.4283 12.7697C18.3973 12.8588 18.3169 13.0878 18.2426 13.2786C18.1683 13.4695 18.0878 13.6985 18.0569 13.7875C18.0259 13.8766 17.9454 14.1056 17.8712 14.2965C17.7969 14.4873 17.7164 14.7163 17.6854 14.8054C17.6545 14.8944 17.574 15.1235 17.4997 15.3143C17.2459 15.9759 17.0974 15.9186 19.0597 15.9377L20.7744 15.9504L20.8796 15.7469C20.9353 15.6387 21.0034 15.4733 21.0282 15.3843C21.0591 15.2952 21.1396 15.0598 21.2139 14.869C21.2882 14.6782 21.3686 14.4491 21.3996 14.3601C21.4305 14.271 21.511 14.042 21.5853 13.8512C21.6596 13.6603 21.74 13.4313 21.771 13.3422C21.8019 13.2532 21.8824 13.0242 21.9567 12.8333C22.031 12.6425 22.1114 12.4135 22.1424 12.3244C22.1734 12.2353 22.2538 12.0063 22.3281 11.8155C22.4024 11.6246 22.4829 11.3956 22.5138 11.3066C22.5448 11.2175 22.6252 10.9885 22.6995 10.7977C22.7738 10.6068 22.8543 10.3778 22.8852 10.2887C22.9162 10.1997 22.9966 9.97066 23.0709 9.77982C23.1452 9.58897 23.2257 9.35996 23.2566 9.2709C23.2876 9.18184 23.3681 8.95282 23.4423 8.76198C23.5166 8.57113 23.5971 8.34212 23.628 8.25306C23.659 8.164 23.7395 7.93499 23.8138 7.74414C23.888 7.5533 23.9685 7.32428 23.9995 7.23522C24.0304 7.14616 24.1109 6.91715 24.1852 6.72631C24.2595 6.53546 24.3399 6.30645 24.3709 6.21739C24.4018 6.12833 24.4823 5.89931 24.5566 5.70847C24.6309 5.51762 24.7113 5.28861 24.7423 5.19955C24.7732 5.11049 24.8537 4.88148 24.928 4.69063C25.0023 4.49979 25.0827 4.27078 25.1137 4.18171C25.1446 4.09265 25.2251 3.86364 25.2994 3.6728C25.3737 3.48195 25.4542 3.25294 25.4851 3.16388C25.5161 3.07482 25.5965 2.8458 25.6708 2.65496C25.7451 2.46412 25.8256 2.2351 25.8565 2.14604C25.8875 2.05698 25.9679 1.82797 26.0422 1.63712C26.3456 0.835577 26.3703 0.733793 26.2775 0.67654C26.2341 0.644732 25.4727 0.619286 24.5813 0.619286C23.0833 0.619286 22.9595 0.625648 22.8605 0.740155Z" fill="white"/>
<path d="M26.9398 0.784539C26.8841 0.879961 26.8098 1.02628 26.785 1.1217C26.7541 1.21076 26.6736 1.44613 26.5993 1.63698C26.5251 1.82782 26.4446 2.05683 26.4136 2.1459C26.3827 2.23496 26.3022 2.46397 26.2279 2.65481C26.1536 2.84566 26.067 3.08739 26.036 3.19554C26.0051 3.29732 25.9556 3.44364 25.9246 3.51361C25.8937 3.58359 25.7389 4.00981 25.5779 4.46784C25.417 4.9195 25.2622 5.35208 25.2313 5.42206C25.2003 5.49203 25.1508 5.63199 25.1199 5.74013C25.0889 5.84192 25.0023 6.09001 24.928 6.28086C24.8537 6.4717 24.7732 6.70072 24.7423 6.78978C24.7113 6.87884 24.6308 7.10785 24.5566 7.29869C24.4823 7.48954 24.4018 7.71855 24.3709 7.80761C24.3399 7.89667 24.2594 8.12569 24.1852 8.31653C24.1109 8.50737 24.0304 8.73639 23.9994 8.82545C23.9685 8.91451 23.888 9.14352 23.8137 9.33437C23.7395 9.52521 23.659 9.75422 23.628 9.84329C23.5971 9.93235 23.5166 10.1614 23.4423 10.3522C23.2566 10.8484 23.1328 11.1856 23.0709 11.37C23.04 11.4591 22.9595 11.6881 22.8852 11.879C22.8109 12.0698 22.7305 12.2988 22.6995 12.3879C22.6686 12.4769 22.5881 12.706 22.5138 12.8968C22.4457 13.0876 22.3281 13.4184 22.26 13.6284C22.1919 13.8383 22.1114 14.0673 22.0805 14.1373C22.0495 14.2073 21.9505 14.4617 21.8638 14.7098C21.7772 14.9516 21.6843 15.2124 21.6534 15.2824C21.3438 16.0139 21.2015 15.9503 23.1885 15.9503C24.9094 15.9503 24.9218 15.9503 25.0146 15.8104C25.0704 15.734 25.1137 15.6195 25.1137 15.5623C25.1137 15.4986 25.1508 15.3714 25.2003 15.2696C25.2499 15.1742 25.3365 14.9706 25.3861 14.818C25.4418 14.6716 25.5284 14.4363 25.5779 14.2963C25.6275 14.1564 25.7079 13.9337 25.7575 13.8001C25.807 13.6729 25.8875 13.4439 25.9432 13.2912C25.9989 13.1449 26.0794 12.9159 26.1289 12.7823C26.1784 12.6551 26.3455 12.2034 26.5065 11.7835C26.6612 11.3637 26.8284 10.9184 26.8779 10.7975C27.1874 9.97688 27.2431 9.84965 27.2864 9.91962C27.305 9.96415 27.3484 11.0456 27.3731 12.3243C27.3979 13.6029 27.435 14.9325 27.4598 15.2824L27.4969 15.9185L29.7873 15.9503L32.0777 15.9821L31.7743 16.1221C31.6072 16.2048 31.4277 16.2684 31.372 16.2684C31.3101 16.2684 31.1429 16.3065 30.9882 16.3574C30.8396 16.402 30.5363 16.4974 30.3135 16.5546C29.8492 16.6819 29.3478 16.8218 28.9516 16.9363C28.7969 16.9809 28.4935 17.0636 28.2707 17.1208C28.0478 17.1844 27.7136 17.2735 27.5279 17.3244C26.915 17.4961 26.5127 17.6107 26.1784 17.6997C25.807 17.8079 25.3242 17.9414 24.8475 18.075C24.6742 18.1259 24.3461 18.215 24.1233 18.2722C23.9004 18.3359 23.5971 18.4186 23.4423 18.4631C23.2876 18.5076 22.9843 18.5903 22.7614 18.6539C22.5386 18.7175 22.2352 18.8002 22.0805 18.8448C21.9257 18.8893 21.6224 18.972 21.3996 19.0356C21.1767 19.0929 20.8424 19.1819 20.6567 19.2392C20.471 19.2901 20.1677 19.3728 19.9882 19.4237C19.5115 19.5573 19.0287 19.6909 18.6573 19.7926C18.484 19.8435 18.1559 19.9326 17.933 19.9898C17.7102 20.0535 17.4069 20.1362 17.2521 20.1807C17.0974 20.2252 16.794 20.3079 16.5712 20.3715C16.0822 20.5051 15.5808 20.6451 15.2094 20.7532C15.0546 20.7978 14.7513 20.8805 14.5284 20.9441C14.3056 21.0013 13.9899 21.0904 13.8166 21.1349C12.8014 21.4148 12.5847 21.4466 11.4333 21.4403C10.2572 21.4403 10.1024 21.4212 9.112 21.1031C8.90772 21.0395 8.56726 20.8868 8.3506 20.7723C8.13394 20.6578 7.88634 20.5242 7.79348 20.4733C7.70063 20.4224 7.36017 20.1107 7.03828 19.7736C6.58639 19.3028 6.40069 19.0547 6.22117 18.6857C5.80643 17.8015 5.67024 17.2417 5.6331 16.2366C5.60215 15.4223 5.72595 14.4808 5.98594 13.5648C6.06023 13.3167 6.1407 13.0304 6.17165 12.9286C6.25831 12.6233 6.3945 12.267 6.66068 11.6309C7.05685 10.6957 6.99495 10.7339 6.0107 11.9871C4.79123 13.5457 3.96174 14.7225 2.94036 16.3638C2.7918 16.6055 2.64323 16.8536 2.62466 16.9045C2.5999 16.9554 2.52562 17.0826 2.45752 17.1908C2.33372 17.3944 2.27182 17.5025 1.9685 18.0814C1.269 19.3982 0.779977 20.5497 0.507608 21.5166C0.26619 22.3627 0.235239 22.4899 0.142386 22.9797C1.11349e-05 23.7304 0.0123916 25.1426 0.167147 25.7152C0.420945 26.663 0.674744 27.1465 1.24424 27.7699C1.8385 28.4124 3.05797 29.284 3.6089 29.4557C3.67699 29.4748 3.88127 29.5511 4.06698 29.6211C4.92742 29.9583 5.43501 30.0346 6.85257 30.0346C8.19585 30.0346 8.50536 29.9965 9.60721 29.7165C10.2262 29.5575 11.1548 29.2776 11.4333 29.1695C11.5138 29.1377 11.749 29.055 11.9595 28.985C12.1638 28.915 12.5414 28.7687 12.7952 28.6605C13.049 28.5588 13.3709 28.4252 13.507 28.3743C13.6432 28.317 13.8413 28.2407 13.9404 28.1898C14.0456 28.1453 14.6399 27.8908 15.2713 27.6236C16.6517 27.032 16.7198 27.0002 17.0355 26.8602C17.1716 26.803 17.3759 26.7139 17.4873 26.663C17.5926 26.6121 17.7845 26.5294 17.9021 26.4786C18.1745 26.3513 18.4902 26.2114 18.7687 26.0969C18.8863 26.046 19.0844 25.9569 19.202 25.906C19.5301 25.7661 19.8272 25.6388 20.0872 25.518C20.211 25.4607 20.4029 25.378 20.502 25.3335C20.9539 25.1426 21.4058 24.9454 21.8019 24.7673C21.9381 24.7037 22.1362 24.6146 22.2352 24.5701C22.3405 24.5256 22.5262 24.4429 22.65 24.3856C22.91 24.2648 23.2071 24.1375 23.5352 23.9976C24.0428 23.7749 24.2842 23.6668 25.0084 23.336C25.2375 23.2278 25.448 23.1388 25.4789 23.1388C25.5099 23.1388 25.6275 23.0879 25.7451 23.0306C26.0422 22.878 25.9122 22.9352 28.9207 21.612C30.4496 20.9377 31.7434 20.3652 31.7991 20.3397C31.9848 20.2507 32.3315 20.098 32.6657 19.958C32.8514 19.8817 33.161 19.7481 33.3467 19.659C33.9038 19.3982 34.0771 19.3219 34.3061 19.2265C34.758 19.0293 35.3399 18.7684 35.5132 18.6857C35.5689 18.6603 36.6646 18.1705 37.9584 17.6043C39.2521 17.0381 40.3478 16.5483 40.4035 16.5228C40.5087 16.4656 40.8616 16.3129 41.1649 16.1857C41.3939 16.0839 41.8149 15.8931 41.951 15.8231C42.0068 15.7976 43.2015 15.2696 44.6128 14.6462C46.0242 14.0228 47.2189 13.4948 47.2746 13.4693C47.3613 13.4248 47.5099 13.3548 48.0175 13.1385C48.2836 13.024 48.6984 12.8332 48.8284 12.7696C48.8779 12.7441 49.5898 12.426 50.4069 12.0698C51.2178 11.7136 51.9111 11.3955 51.9482 11.3637C51.9792 11.3319 52.0411 11.3064 52.0844 11.3064C52.1278 11.3064 52.3444 11.2174 52.5549 11.1156C52.7715 11.0074 52.9696 10.9247 52.9944 10.9247C53.013 10.9247 53.2234 10.8357 53.4525 10.7275C53.6815 10.613 53.9539 10.4858 54.0529 10.4413C54.8453 10.085 55 9.98324 54.9195 9.84329C54.8638 9.75422 54.6905 9.76059 54.3129 9.87509C53.9105 10.0023 53.4896 10.1168 52.9696 10.2568C52.7468 10.3204 52.4435 10.4031 52.2887 10.4476C52.1339 10.4922 51.8306 10.5749 51.6078 10.6385C51.3849 10.7021 51.0816 10.7848 50.9269 10.8293C50.7721 10.8738 50.4688 10.9565 50.2459 11.0202C50.0231 11.0774 49.695 11.1665 49.5217 11.2174C49.3422 11.2683 49.045 11.3446 48.8717 11.3955C48.6922 11.4464 48.3641 11.5354 48.1413 11.5927C47.9184 11.6563 47.6027 11.7454 47.4294 11.7899C46.507 12.0571 45.9004 12.2288 45.4176 12.3561C45.1947 12.4197 44.8914 12.5024 44.7366 12.5469C44.5819 12.5914 44.2786 12.6741 44.0557 12.7378C43.8329 12.8014 43.5296 12.8841 43.3748 12.9286C43.22 12.9731 42.9167 13.0558 42.6939 13.1194C42.471 13.1767 42.1429 13.2658 41.9696 13.3167C41.7901 13.3675 41.493 13.4439 41.3196 13.4948C41.1401 13.5457 40.8121 13.6347 40.5892 13.6983C39.7721 13.9146 39.4997 13.991 39.3635 14.0482C39.2831 14.08 39.1655 14.1055 39.0974 14.1055C38.9859 14.1055 38.9736 14.08 39.0107 13.8955C39.0355 13.7874 39.0912 13.622 39.1345 13.5329C39.1778 13.4439 39.2274 13.3039 39.2335 13.2149L39.2583 13.0558L37.3455 13.0367C36.1384 13.0304 35.4018 12.9986 35.3523 12.954C35.3028 12.9095 35.2904 12.8395 35.3275 12.7187C35.507 12.1398 36.1446 10.3967 36.3489 9.91962C36.3984 9.80512 36.4418 9.6588 36.4418 9.58883C36.4418 9.52521 36.5037 9.42343 36.5779 9.37254C36.6956 9.28348 36.9679 9.27075 38.305 9.27075C40.0754 9.27075 39.9764 9.2962 40.1249 8.81273C40.1745 8.66005 40.2673 8.38015 40.3416 8.1893C40.8492 6.82794 40.9173 6.61802 40.8801 6.50987C40.843 6.42081 40.6635 6.40809 39.2893 6.40809C38.045 6.40809 37.7293 6.389 37.7046 6.31903C37.6736 6.23633 38.2369 4.58234 38.5836 3.74899C38.6331 3.63448 38.6702 3.50089 38.6702 3.44364C38.6702 3.26552 38.9921 3.22735 40.6573 3.22735H42.3225L42.4215 2.98561C42.4772 2.85838 42.5453 2.68026 42.5701 2.5912C42.601 2.50214 42.6815 2.27313 42.7558 2.08228C42.8301 1.89144 42.9105 1.66242 42.9415 1.57336C42.9724 1.4843 43.0529 1.26165 43.121 1.07081C43.1891 0.879961 43.2324 0.708201 43.2139 0.689117C43.1953 0.670032 40.8059 0.644587 37.8965 0.631864C32.9257 0.619141 32.61 0.625502 32.4924 0.727286C32.3686 0.841792 30.363 3.30368 29.942 3.8635C29.8244 4.02253 29.6635 4.21974 29.5892 4.3088C29.5149 4.39786 29.3664 4.56326 29.2673 4.67776C29.0568 4.92586 28.9516 4.84952 29.094 4.54417C29.1435 4.42967 29.2302 4.21974 29.2859 4.06706C29.6449 3.08103 29.6759 2.99197 30.0349 2.05047C30.1897 1.63062 30.363 1.19167 30.4125 1.07717C30.5239 0.809985 30.5239 0.708201 30.4001 0.657309C30.3444 0.638225 29.5706 0.619141 28.6731 0.619141H27.045L26.9398 0.784539ZM35.8661 1.45886C35.8475 1.54156 35.7732 1.76421 35.6989 1.95505C35.6247 2.1459 35.5442 2.37491 35.5132 2.46397C35.4823 2.55303 35.4018 2.78204 35.3275 2.97289C35.2532 3.16373 35.1728 3.39275 35.1418 3.48181C35.1109 3.57087 35.0304 3.79988 34.9561 3.99072C34.8818 4.18157 34.8014 4.41058 34.7704 4.49964C34.7395 4.5887 34.659 4.81772 34.5847 5.00856C34.5104 5.19941 34.4299 5.42842 34.399 5.51748C34.368 5.60654 34.2876 5.83555 34.2133 6.0264C34.139 6.21724 34.0585 6.44626 34.0276 6.53532C33.9966 6.62438 33.9162 6.85339 33.8419 7.04423C33.7676 7.23508 33.6871 7.46409 33.6562 7.55315C33.6252 7.64221 33.5447 7.87123 33.4705 8.06207C33.3962 8.25292 33.3157 8.48193 33.2848 8.57099C33.2538 8.66005 33.1733 8.88906 33.0991 9.07991C33.0248 9.27075 32.9443 9.49977 32.9133 9.58883C32.8824 9.67789 32.8019 9.9069 32.7276 10.0977C32.6534 10.2886 32.5729 10.5176 32.5419 10.6067C32.48 10.7911 32.3562 11.1283 32.1705 11.6245C32.0962 11.8153 32.0158 12.0444 31.9848 12.1334C31.9539 12.2225 31.8734 12.4515 31.7991 12.6423C31.7248 12.8332 31.6444 13.0622 31.6134 13.1513C31.5825 13.2403 31.502 13.4693 31.4277 13.6602C31.3534 13.851 31.2668 14.0991 31.2358 14.2136C31.1863 14.379 31.0191 14.5381 30.9572 14.4744C30.951 14.4617 30.9139 13.0113 30.8768 11.2428C30.8396 9.47432 30.7901 7.81397 30.7715 7.54679C30.7282 6.99334 30.7282 6.98698 31.2234 6.45262C31.3906 6.26813 31.6629 5.96278 31.8301 5.77194C31.991 5.58109 32.4243 5.09126 32.7834 4.69049C33.1424 4.28971 33.6067 3.77443 33.8109 3.54542C34.0152 3.31641 34.4238 2.85202 34.7209 2.52122C35.018 2.18406 35.377 1.77693 35.5194 1.61789C35.798 1.29346 35.9156 1.24257 35.8661 1.45886Z" fill="white"/>
<path d="M44.2414 0.727286C43.9567 0.930853 43.8762 1.08353 43.87 1.39524C43.87 1.64334 43.9071 1.73876 44.0619 1.92324C44.2414 2.13317 44.2786 2.1459 44.619 2.1459C44.9347 2.1459 45.009 2.12045 45.1823 1.96141C45.368 1.78965 45.3866 1.73876 45.3866 1.41433C45.3866 1.07717 45.368 1.039 45.1576 0.835431C44.9657 0.65731 44.8728 0.619141 44.6562 0.619141C44.5076 0.619141 44.3281 0.663671 44.2414 0.727286ZM45.1576 1.35707C45.1761 1.59245 45.0957 1.71968 44.9657 1.66242C44.8542 1.61789 44.8171 1.38252 44.9223 1.38252C44.9595 1.38252 44.9842 1.32526 44.9842 1.24893C44.9842 1.04536 45.139 1.14078 45.1576 1.35707ZM44.26 1.33163C44.3033 1.47794 44.2662 1.57336 44.1733 1.57336C44.1424 1.57336 44.1176 1.4843 44.1176 1.38252C44.1176 1.15987 44.2105 1.12806 44.26 1.33163ZM44.7862 1.84054C44.7676 1.88507 44.7057 1.92324 44.6438 1.92324C44.5819 1.92324 44.52 1.88507 44.5076 1.84054C44.489 1.79601 44.5385 1.76421 44.6438 1.76421C44.749 1.76421 44.7985 1.79601 44.7862 1.84054ZM9.01913 18.6985C8.35677 18.8639 8.26392 19.8117 8.87675 20.1107C9.29149 20.3143 9.74957 20.168 9.94766 19.7672C10.1148 19.4364 10.1024 19.3219 9.89195 19.0229C9.68148 18.7303 9.37197 18.6094 9.01913 18.6985ZM8.94484 19.4873C8.93246 19.6272 8.90151 19.729 8.86437 19.7163C8.77152 19.6909 8.722 19.43 8.7839 19.2646C8.86437 19.0356 8.9696 19.1883 8.94484 19.4873ZM9.31626 19.201C9.30388 19.2392 9.26673 19.2646 9.23578 19.2646C9.20483 19.2646 9.16769 19.2392 9.15531 19.201C9.14293 19.1629 9.18007 19.131 9.23578 19.131C9.29149 19.131 9.32864 19.1629 9.31626 19.201ZM9.76195 19.4491C9.76195 19.5064 9.72481 19.6018 9.68148 19.6654C9.61339 19.7608 9.58862 19.7672 9.52672 19.6909C9.4772 19.6209 9.47101 19.5382 9.52053 19.3537C9.58244 19.1183 9.59482 19.112 9.67529 19.2265C9.72481 19.2901 9.76195 19.3919 9.76195 19.4491ZM9.30388 19.869C9.27292 19.9517 9.24197 19.958 9.19245 19.9071C9.15531 19.869 9.14293 19.7926 9.16769 19.729C9.19864 19.6463 9.22959 19.64 9.27911 19.6909C9.31626 19.729 9.32864 19.8054 9.30388 19.869ZM31.6134 30.5753C31.2296 30.6326 30.5734 30.9825 30.2701 31.2878C29.973 31.5805 29.6387 32.0894 29.4963 32.4583C29.3416 32.8655 29.1992 33.4062 29.1992 33.6098C29.1992 33.8769 29.1064 34.0042 29.0568 33.8133C29.0321 33.737 29.0135 33.6034 29.0135 33.5334C29.0135 33.3235 28.834 32.751 28.6545 32.3629C28.345 31.7077 27.7012 31.1288 27.0017 30.8807C26.7293 30.7853 26.4817 30.7726 25.1446 30.7853L23.5971 30.8044L23.5599 30.9952C23.5352 31.097 23.5166 32.8973 23.5104 34.9838L23.5042 38.788L23.6652 38.8262C23.758 38.8516 24.4575 38.8516 25.2313 38.8325C26.7726 38.7944 26.9893 38.7498 27.5836 38.3491C28.3697 37.8274 28.7783 37.0704 29.0444 35.6518C29.0878 35.4292 29.1992 35.4864 29.1992 35.7345C29.1992 36.0526 29.4221 36.8923 29.6201 37.3312C29.9606 38.0819 30.493 38.5717 31.2729 38.8643C31.7062 39.0298 32.7091 39.0234 33.1795 38.858C34.0399 38.5526 34.628 37.8783 34.9932 36.7841C35.1109 36.4152 35.2656 35.2701 35.2656 34.7485C35.2594 33.9215 35.049 32.7764 34.8075 32.2357C34.2133 30.9189 33.1238 30.3527 31.6134 30.5753ZM32.3253 32.5665C32.6038 32.6937 32.7152 33.0245 32.7895 33.9596C32.8452 34.6022 32.8452 34.9902 32.7895 35.5691C32.6905 36.5869 32.5419 36.8796 32.1334 36.8796C31.9538 36.8796 31.8981 36.8414 31.7805 36.6442C31.471 36.0971 31.3472 34.7485 31.5205 33.6925C31.6443 32.8973 31.7929 32.6174 32.1519 32.4965C32.1581 32.4901 32.2386 32.522 32.3253 32.5665ZM26.2093 32.9991C26.4631 33.1581 26.5684 33.3617 26.686 33.966C26.8407 34.7167 26.7974 35.62 26.5807 36.288C26.4941 36.5551 26.0236 36.9495 25.9184 36.8414C25.8565 36.7778 25.8255 33.0436 25.8874 32.9355C25.9432 32.8464 25.9865 32.8528 26.2093 32.9991ZM14.4046 30.6962C13.6742 30.9761 13.2285 31.4341 13.018 32.1275C12.9313 32.4138 12.8571 32.1148 12.8571 31.466V30.7725H10.6286V33.4762C10.6286 35.7981 10.6162 36.2116 10.5295 36.4279C10.3872 36.7969 10.1148 36.8668 9.84242 36.606C9.70624 36.4788 9.70005 36.4406 9.70005 35.2956C9.70005 34.6467 9.68148 33.3617 9.65672 32.4456L9.61958 30.7725H5.05739V33.6925C5.05739 36.4724 5.0512 36.6187 4.93978 36.7587C4.84073 36.8859 4.76645 36.9114 4.5436 36.8987C4.38885 36.8923 4.19076 36.8414 4.1041 36.7841C3.79459 36.5742 3.75745 36.6569 3.75745 37.6302C3.75745 38.6544 3.75126 38.6481 4.37028 38.8516C5.71974 39.2906 7.03207 38.5336 7.27968 37.1658C7.34777 36.8032 7.3911 36.7523 7.44062 36.9813C7.52729 37.3758 7.68823 37.7511 7.91108 38.0564C8.20821 38.4636 8.45582 38.629 9.08103 38.858C9.55767 39.0297 10.6905 39.0297 11.2414 38.8516C11.9533 38.6226 12.5228 38.0437 12.6837 37.4012C12.7766 37.0068 12.8756 37.1595 12.888 37.7193C12.8942 37.9737 12.9066 38.2282 12.9066 38.2855C12.919 38.4063 13.3894 38.6799 13.8846 38.8516C14.3613 39.0234 15.1846 39.0234 15.6798 38.858C16.2121 38.6799 16.4474 38.5399 16.7569 38.2218C17.1283 37.8401 17.2892 37.5094 17.4192 36.8605C17.5183 36.3579 17.5183 36.3134 17.413 35.8617C17.2335 35.0984 17.0107 34.8185 15.6798 33.6161C15.3517 33.3108 15.2712 33.209 15.2712 33.0563C15.2712 32.8019 15.5188 32.5538 15.7603 32.5538C15.9955 32.5538 16.5712 32.7701 16.7755 32.9355C16.9612 33.0881 17.0602 33.0945 17.1531 32.9609C17.2212 32.8655 17.5616 32.84 18.3973 32.8718C18.4778 32.8718 18.4901 33.2599 18.5025 35.8108L18.5211 38.7562H20.7496L20.7681 35.8617C20.7743 34.1887 20.8053 32.9482 20.8424 32.91C20.8734 32.8782 21.121 32.8591 21.3934 32.8655C21.8329 32.8782 21.8948 32.8655 21.9567 32.751C21.9938 32.6683 22.0186 32.2802 22.0062 31.714L21.9876 30.8044L19.6291 30.7853C17.5864 30.7726 17.2583 30.7853 17.1902 30.868C17.0973 30.9825 16.924 30.9888 16.7507 30.8934C16.2183 30.6008 14.937 30.4926 14.4046 30.6962ZM13.0428 33.8006C13.0428 34.0805 13.4637 34.6085 14.3551 35.4355C14.9679 36.008 15.1041 36.2307 15.0112 36.5106C14.8689 36.9241 14.3427 37.0068 13.7361 36.7014C13.2285 36.4406 12.9561 36.2816 12.9066 36.2116C12.8509 36.1353 12.8385 33.737 12.8942 33.6797C12.9561 33.6225 13.0428 33.6925 13.0428 33.8006ZM36.5965 30.8552C36.5779 30.8934 36.5717 32.6937 36.5779 34.8439L36.5965 38.7562L37.7293 38.7753L38.8559 38.788V35.849C38.8559 34.2268 38.8807 32.8718 38.9055 32.8273C38.9364 32.7764 38.9859 32.7701 39.0416 32.8082C39.0912 32.8464 39.3945 32.8718 39.704 32.8718H40.2797L40.2921 35.8108L40.3106 38.7562L41.3877 38.7753C41.982 38.7817 42.4896 38.7689 42.5205 38.7371C42.5515 38.7053 42.5762 37.3821 42.5701 35.7727V32.8718H43.09C43.8267 32.8718 43.8143 32.8909 43.7957 31.7395L43.7771 30.8044L40.1992 30.7916C37.4136 30.7789 36.6151 30.7916 36.5965 30.8552Z" fill="white"/>
<path d="M43.5667 36.447C43.2881 36.5297 43.022 36.7333 42.861 37.0068C42.7558 37.1786 42.731 37.3249 42.731 37.6875C42.731 38.0946 42.7496 38.1773 42.9167 38.4191C43.1767 38.8008 43.5048 38.9789 43.9505 38.9789C44.4024 38.9789 44.7366 38.8135 44.9843 38.4572C45.1514 38.2219 45.17 38.1519 45.17 37.6811C45.17 37.1722 45.1638 37.1595 44.9224 36.8669C44.5633 36.4406 44.0867 36.288 43.5667 36.447Z" fill="white"/>
</g>
<defs>
<clipPath id="clip0_6979_45825">
<rect width="55" height="39" fill="white" transform="translate(0 0.432617)"/>
</clipPath>
</defs>
</svg>
