<svg width="66" height="46" viewBox="0 0 66 46" fill="none" xmlns="http://www.w3.org/2000/svg">
<path d="M36.7748 19.5526C36.0165 20.095 35.0053 20.1661 34.2457 19.8231C34.2457 19.8231 34.0285 19.7507 33.8304 19.5348C33.6678 19.3366 29.3692 14.7129 29.3692 14.7129L29.3515 14.6951C30.67 14.9301 32.1333 14.3153 32.8739 13.214C33.6144 12.1661 33.5966 10.6672 32.8916 9.6205C32.0431 8.48236 30.3994 8.10382 29.0085 8.2842C26.6065 8.60938 24.8903 10.6316 24.367 12.7631C23.8246 15.1829 24.2044 17.477 25.072 19.6262C25.2702 20.0772 25.542 20.5472 25.8672 20.9625C23.3381 19.9146 21.1177 17.9825 19.9427 15.3823C18.642 12.5827 18.6788 9.04254 20.2133 6.20734C21.4238 4.02252 23.5731 1.98123 26.2089 1.11365C28.9907 0.0301253 32.7113 0.247338 35.4194 1.70939C38.7068 3.26291 41.1813 7.16384 41.1991 10.6316C41.3261 14.2239 39.6646 17.4744 36.7748 19.5526Z" fill="white"/>
<path d="M27.5642 20.9245C26.3359 19.6606 25.3426 18.0169 26.1009 16.3185C26.7691 15.0178 27.347 13.6815 27.6366 12.1826C27.7446 13.7539 28.757 15.1626 29.2257 16.6615C29.4061 17.3843 29.4239 18.1426 29.1355 18.901C28.8103 19.7139 28.287 20.4176 27.6722 21.0502L27.5642 20.9245Z" fill="white"/>
<path d="M12.104 35.1385H8.83441C8.11164 34.055 7.46128 33.1163 6.86553 32.3389C6.28757 31.5437 5.65498 30.732 4.96905 29.9013H3.72293V33.5672C3.72293 33.7476 3.7585 33.928 3.81312 34.0728C3.86774 34.2176 4.01128 34.3255 4.21071 34.3979C4.31868 34.4335 4.49906 34.4704 4.75311 34.5059C5.00588 34.5415 5.2231 34.5605 5.40347 34.5605V35.1385H0.291992V34.5605C0.436801 34.5428 0.634959 34.525 0.887739 34.5059C1.14052 34.4881 1.32089 34.4513 1.43013 34.3979C1.59273 34.3255 1.71848 34.2176 1.80994 34.0905C1.88234 33.9457 1.91791 33.7831 1.91791 33.5672V25.2052C1.91791 25.007 1.88234 24.8444 1.82772 24.6996C1.7731 24.5548 1.64735 24.4468 1.43013 24.3566C1.28533 24.302 1.10495 24.2664 0.869955 24.2296C0.634959 24.194 0.454584 24.1572 0.291992 24.1572V23.5792H5.89125C6.39681 23.5792 6.88458 23.6339 7.33552 23.7241C7.78646 23.832 8.18405 23.9768 8.56385 24.2118C8.9246 24.429 9.19643 24.7174 9.41238 25.0604C9.62959 25.4033 9.73756 25.8365 9.73756 26.3243C9.73756 26.7752 9.66516 27.1728 9.52035 27.498C9.37554 27.8409 9.1596 28.1305 8.88776 28.3833C8.63498 28.6183 8.32759 28.8165 7.96683 28.9969C7.60608 29.1772 7.2085 29.322 6.77534 29.43C7.37109 30.1883 7.87665 30.8209 8.27423 31.3443C8.67182 31.8676 9.1596 32.4824 9.73756 33.223C9.99034 33.5482 10.2076 33.7831 10.4235 33.9457C10.6217 34.0905 10.8211 34.2341 11.0192 34.3255C11.164 34.3979 11.3444 34.4526 11.5794 34.4881C11.7966 34.5237 11.977 34.5428 12.1396 34.5605L12.104 35.1385ZM7.60608 26.5059C7.60608 25.8009 7.38887 25.242 6.9735 24.8444C6.55813 24.429 5.96238 24.2309 5.18499 24.2309H3.74199V29.1976H4.86235C5.63847 29.1976 6.30662 28.9626 6.83123 28.4748C7.33552 27.987 7.60608 27.3366 7.60608 26.5059ZM19.8335 33.242C19.4727 33.8924 19.0028 34.3979 18.4248 34.7778C17.829 35.1576 17.1431 35.3557 16.3835 35.3557C15.6976 35.3557 15.1196 35.2477 14.595 35.0127C14.0894 34.7778 13.6563 34.4704 13.3311 34.0918C13.0059 33.6942 12.7531 33.2433 12.5905 32.7187C12.4279 32.1953 12.3555 31.6529 12.3555 31.0572C12.3555 30.5339 12.4457 30.0283 12.6083 29.5215C12.7887 29.0159 13.0415 28.5637 13.3667 28.1674C13.6918 27.7876 14.0894 27.4624 14.5772 27.2287C15.065 26.9937 15.6061 26.8679 16.2031 26.8679C16.8167 26.8679 17.3413 26.9581 17.7922 27.1385C18.2254 27.3189 18.5874 27.5716 18.8579 27.8968C19.1107 28.2042 19.3089 28.565 19.4359 28.9803C19.5629 29.3957 19.6341 29.8466 19.6341 30.3166V30.859H14.0539C14.0539 31.3824 14.1085 31.8702 14.2165 32.2855C14.3244 32.7187 14.487 33.0985 14.722 33.4237C14.9392 33.7311 15.2276 33.9838 15.5883 34.1642C15.9491 34.3446 16.3835 34.4348 16.87 34.4348C17.3756 34.4348 17.8087 34.3268 18.1885 34.0918C18.5493 33.8746 18.9113 33.4592 19.2543 32.8635L19.8335 33.242ZM17.937 30.1718C17.937 29.8644 17.9192 29.5392 17.8468 29.1963C17.7922 28.8533 17.702 28.5637 17.594 28.33C17.467 28.0772 17.2866 27.879 17.0517 27.7164C16.8167 27.5539 16.5283 27.4814 16.1663 27.4814C15.5705 27.4814 15.065 27.7164 14.6674 28.1864C14.2698 28.6564 14.0539 29.3246 14.017 30.1731L17.937 30.1718ZM24.602 35.1385H20.6287V34.6152C20.7557 34.5974 20.8815 34.5974 21.0263 34.5796C21.1711 34.5618 21.279 34.544 21.387 34.525C21.5496 34.4704 21.6576 34.398 21.73 34.2722C21.8024 34.1452 21.857 34.0016 21.8379 33.8213L21.7109 25.2242C21.7109 25.134 21.6563 24.8444 21.6207 24.6463C21.603 24.5561 21.5661 24.4837 21.5483 24.4659C21.5305 24.4303 21.5128 24.4113 21.4759 24.3757C21.3311 24.2487 21.5115 24.4303 21.3857 24.3033C21.2956 24.2309 21.4213 24.2677 21.1507 24.2309C20.898 24.1763 20.4458 24.3033 20.2844 24.2855L20.2667 23.7253L23.2289 23.5627L23.3737 23.6707L23.3915 33.712C23.3915 33.8924 23.427 34.0372 23.4994 34.163C23.5718 34.29 23.6798 34.3802 23.8424 34.4335C23.9694 34.4881 24.0774 34.5237 24.2031 34.5605C24.3302 34.5783 24.4559 34.6152 24.6007 34.6152V35.1385H24.602ZM29.6944 35.1385H25.6487V34.5961C25.7757 34.5783 25.9193 34.5783 26.0463 34.5605C26.1911 34.5428 26.2991 34.525 26.407 34.4881C26.5696 34.4335 26.6776 34.3611 26.7678 34.2354C26.8402 34.1083 26.8758 33.9648 26.8758 33.7654V28.8343C26.8758 28.6539 26.8402 28.5091 26.7487 28.3643C26.6763 28.2195 26.5506 28.0937 26.4058 28.0035C26.2978 27.9311 26.153 27.8765 25.9358 27.8409C25.7376 27.7863 25.556 27.7685 25.3756 27.7507V27.2274L28.32 27.047L28.4471 27.155V33.6574C28.4471 33.8378 28.4826 34.0004 28.555 34.1274C28.6274 34.2544 28.7532 34.3446 28.9158 34.3979C29.0428 34.4526 29.1686 34.4881 29.2765 34.525C29.4035 34.5605 29.5293 34.5796 29.6741 34.5796L29.6944 35.1385ZM28.6287 23.9222C28.6287 24.2296 28.5207 24.5002 28.3035 24.7174C28.0863 24.9524 27.8335 25.0604 27.5274 25.0604C27.239 25.0604 26.985 24.9524 26.7868 24.7352C26.5696 24.518 26.4617 24.2652 26.4617 23.9946C26.4617 23.6872 26.5696 23.4344 26.7868 23.2185C27.004 23.0013 27.2568 22.8933 27.5274 22.8933C27.8526 22.8933 28.1231 23.0013 28.3226 23.2007C28.5207 23.3989 28.6287 23.6339 28.6287 23.9222ZM38.7069 34.9937C38.4363 35.0839 38.2013 35.1563 38.0019 35.2109C37.8037 35.2655 37.5687 35.3011 37.3159 35.3011C36.865 35.3011 36.5208 35.1931 36.2502 35.0127C35.9796 34.8146 35.817 34.525 35.7446 34.1464H35.69C35.3293 34.544 34.9317 34.8324 34.4985 35.0496C34.0831 35.2477 33.5598 35.357 32.9628 35.357C32.3302 35.357 31.8069 35.1766 31.4093 34.7968C30.9939 34.417 30.7957 33.9483 30.7957 33.3525C30.7957 33.0451 30.8504 32.7568 30.9405 32.5218C31.0307 32.269 31.1755 32.0518 31.3559 31.8536C31.5007 31.6911 31.6811 31.5462 31.9161 31.4205C32.1511 31.2935 32.367 31.1855 32.5665 31.1131C32.8192 31.0229 33.3426 30.8425 34.12 30.5897C34.8961 30.337 35.4385 30.1388 35.7091 29.994V29.181C35.7091 29.1086 35.6913 28.9829 35.6544 28.7657C35.6189 28.5675 35.5643 28.3681 35.4563 28.1877C35.3483 27.9895 35.1857 27.8079 34.9685 27.6644C34.7704 27.5196 34.463 27.4472 34.0831 27.4472C33.8126 27.4472 33.5776 27.4827 33.3604 27.5742C33.1432 27.6656 32.9806 27.7546 32.8904 27.8447C32.8904 27.9527 32.9082 28.1153 32.9806 28.3325C33.0352 28.5497 33.053 28.7479 33.053 28.9283C33.053 29.1086 32.9628 29.289 32.7824 29.4516C32.602 29.6142 32.3493 29.6866 32.0241 29.6866C31.7357 29.6866 31.5363 29.5964 31.3915 29.3983C31.2645 29.2001 31.1933 28.9829 31.1933 28.7479C31.1933 28.4951 31.2835 28.2601 31.4639 28.0251C31.6443 27.7901 31.897 27.592 32.1867 27.4116C32.4394 27.2668 32.7468 27.1232 33.1076 27.014C33.4683 26.906 33.8304 26.8514 34.1733 26.8514C34.6433 26.8514 35.0765 26.887 35.4194 26.9416C35.7802 26.9962 36.0876 27.1397 36.395 27.3392C36.6833 27.5373 36.9006 27.8092 37.0631 28.1521C37.208 28.4951 37.2981 28.9473 37.2981 29.4884C37.2981 30.2646 37.2981 30.9518 37.2804 31.5653C37.2626 32.161 37.2626 32.8292 37.2626 33.5342C37.2626 33.7514 37.2981 33.914 37.3706 34.0397C37.443 34.1668 37.5687 34.2747 37.7313 34.3649C37.8215 34.4195 37.9485 34.4373 38.1289 34.4373C38.3093 34.4373 38.5087 34.4373 38.6891 34.4373V34.9975H38.7069V34.9937ZM35.7268 30.6774C35.2391 30.8222 34.8237 30.948 34.4452 31.075C34.0844 31.202 33.7402 31.3633 33.434 31.5628C33.1457 31.7431 32.9285 31.9603 32.7659 32.2131C32.6033 32.4659 32.5131 32.7733 32.5131 33.1163C32.5131 33.5672 32.6401 33.8924 32.8929 34.1096C33.1457 34.3268 33.4531 34.4348 33.8316 34.4348C34.2292 34.4348 34.59 34.3446 34.8974 34.1464C35.2048 33.9661 35.4576 33.7311 35.6735 33.4783L35.7268 30.6774ZM48.8396 35.1385H44.7215V34.5961C44.8485 34.5783 44.992 34.5783 45.1546 34.5605C45.3172 34.5428 45.443 34.525 45.5522 34.4881C45.7148 34.4335 45.8228 34.3611 45.913 34.2354C45.9854 34.1083 46.0209 33.947 46.0209 33.7654V29.6294C46.0209 29.0515 45.8761 28.6183 45.6056 28.3109C45.3172 28.0035 44.973 27.8409 44.5767 27.8409C44.2693 27.8409 43.9987 27.8765 43.7459 27.968C43.4931 28.0581 43.2759 28.1661 43.0778 28.2931C42.8974 28.4202 42.7348 28.5459 42.6268 28.6907C42.5189 28.8355 42.4287 28.9435 42.3918 29.0337V33.6574C42.3918 33.8378 42.4274 34.0004 42.5189 34.1083C42.5913 34.2354 42.717 34.3255 42.8796 34.3789C43.0066 34.4335 43.1324 34.4691 43.2594 34.5059C43.4042 34.5415 43.5478 34.5605 43.6926 34.5605V35.1029H39.5744V34.5605C39.7015 34.5428 39.845 34.5428 39.972 34.525C40.1168 34.5072 40.2248 34.4894 40.3328 34.4526C40.4954 34.3979 40.6033 34.3255 40.6935 34.1998C40.7659 34.0728 40.8015 33.9114 40.8015 33.7298V28.7631C40.8015 28.5828 40.7659 28.4024 40.6745 28.2576C40.5843 28.095 40.4763 27.9692 40.3315 27.8778C40.2235 27.8054 40.0965 27.7698 39.9517 27.733C39.8069 27.6974 39.6443 27.6783 39.4817 27.6783V27.155L42.2813 26.9746L42.4084 27.0826V28.2207H42.4439C42.5887 28.0937 42.7513 27.9324 42.9495 27.7507C43.1476 27.5704 43.3471 27.4256 43.5274 27.2998C43.7447 27.1728 43.9974 27.0648 44.2858 26.9746C44.5741 26.8844 44.8993 26.8476 45.2613 26.8476C46.0743 26.8476 46.67 27.0826 47.0676 27.5704C47.4652 28.0581 47.6456 28.6907 47.6456 29.4846V33.6752C47.6456 33.8733 47.6812 34.0181 47.7536 34.1452C47.826 34.2531 47.9339 34.3624 48.0965 34.4157C48.2413 34.4704 48.3493 34.5059 48.4573 34.5237C48.5653 34.5415 48.6923 34.5593 48.8727 34.5783L48.8396 35.1385ZM53.7695 35.3367C52.5411 35.3367 51.6024 34.9569 50.8974 34.1807C50.2115 33.4046 49.8685 32.3744 49.8685 31.0737C49.8685 30.5135 49.9587 29.9724 50.1391 29.4846C50.3195 28.9969 50.59 28.5459 50.952 28.1483C51.295 27.7685 51.7104 27.4433 52.2159 27.2096C52.7215 26.9746 53.2817 26.8489 53.8774 26.8489C54.7082 26.8489 55.3763 27.0292 55.8997 27.409C56.423 27.7888 56.6758 28.2944 56.6758 28.9626C56.6758 29.2331 56.6034 29.4681 56.4776 29.6853C56.3328 29.9025 56.1169 29.9927 55.8095 29.9927C55.4665 29.9927 55.2137 29.9025 55.0334 29.7399C54.853 29.5774 54.7628 29.397 54.7628 29.1976C54.7628 28.9448 54.7984 28.7098 54.8708 28.4392C54.9432 28.1864 54.9787 27.9883 54.9978 27.879C54.8898 27.7164 54.745 27.5907 54.5469 27.5361C54.3487 27.4814 54.1315 27.4459 53.8965 27.4459C53.6259 27.4459 53.3541 27.5005 53.1204 27.6085C52.8676 27.7164 52.6326 27.9337 52.3976 28.222C52.1804 28.4926 52.0178 28.8546 51.892 29.3233C51.765 29.7933 51.6939 30.3344 51.6939 30.9848C51.6939 31.9959 51.9289 32.8267 52.3989 33.4592C52.8689 34.0918 53.4824 34.417 54.2407 34.417C54.8009 34.417 55.2518 34.29 55.6316 34.0372C56.0114 33.7844 56.3544 33.4046 56.6605 32.8813L57.2029 33.2242C56.8231 33.8746 56.3366 34.3802 55.7218 34.7409C55.0702 35.1563 54.4376 35.3367 53.7695 35.3367ZM65.3109 33.242C64.9502 33.8924 64.4802 34.3979 63.9022 34.7778C63.3065 35.1576 62.6206 35.3557 61.8609 35.3557C61.175 35.3557 60.597 35.2477 60.0724 35.0127C59.5669 34.7778 59.1337 34.4704 58.8085 34.0918C58.4834 33.6942 58.2306 33.2433 58.068 32.7187C57.9054 32.1941 57.833 31.6529 57.833 31.0572C57.833 30.5339 57.9232 30.0283 58.0858 29.5215C58.2661 29.0159 58.5189 28.5637 58.8441 28.1674C59.1693 27.7876 59.5669 27.4624 60.0546 27.2287C60.5424 26.9937 61.0835 26.8679 61.6806 26.8679C62.2941 26.8679 62.8187 26.9581 63.2696 27.1385C63.7028 27.3189 64.0648 27.5716 64.3354 27.8968C64.6059 28.2042 64.7863 28.565 64.9134 28.9803C65.0404 29.3957 65.1115 29.8466 65.1115 30.3166V30.859H59.5313C59.5313 31.3824 59.5859 31.8702 59.6939 32.2855C59.8019 32.7187 59.9645 33.0985 60.1995 33.4237C60.4167 33.7311 60.705 33.9838 61.0658 34.1642C61.4265 34.3446 61.8609 34.4348 62.3487 34.4348C62.8543 34.4348 63.2874 34.3268 63.6672 34.0918C64.028 33.8746 64.39 33.4592 64.733 32.8635L65.3109 33.242ZM63.4322 30.1718C63.4322 29.8644 63.4145 29.5392 63.3421 29.1963C63.2874 28.8533 63.1972 28.5637 63.0893 28.33C62.9622 28.0772 62.7819 27.879 62.5469 27.7164C62.3119 27.5539 62.0235 27.4814 61.6615 27.4814C61.0658 27.4814 60.5602 27.7164 60.1626 28.1864C59.765 28.6564 59.5491 29.3246 59.5123 30.1731L63.4322 30.1718Z" fill="white"/>
<path d="M2.67625 45.3247H0.291992V45.0897C0.364396 45.0897 0.454584 45.0719 0.580339 45.0719C0.706093 45.0719 0.797551 45.0541 0.850901 45.0364C0.923306 45.0008 0.99571 44.964 1.03128 44.9093C1.06684 44.8547 1.0859 44.7823 1.0859 44.6921V41.2421C1.0859 41.1697 1.06811 41.0973 1.05033 41.044C1.03255 40.9893 0.960143 40.9538 0.852172 40.9169C0.779768 40.8992 0.68958 40.8623 0.581609 40.8445C0.473638 40.8268 0.38345 40.809 0.311046 40.809V40.574H2.67752V40.809C2.60511 40.809 2.51493 40.8268 2.40696 40.8268C2.29899 40.8445 2.2088 40.8623 2.13639 40.8814C2.04621 40.9169 1.9738 40.9538 1.95602 41.0084C1.92045 41.063 1.9014 41.1354 1.9014 41.2066V44.6566C1.9014 44.729 1.91918 44.8014 1.95602 44.8547C1.99158 44.9093 2.04621 44.9627 2.13639 44.9995C2.19101 45.0173 2.2812 45.0351 2.38917 45.0541C2.49714 45.0719 2.60638 45.0897 2.69657 45.0897V45.3247H2.67625Z" fill="white"/>
<path d="M7.46255 45.3247H5.67404V45.1075C5.72866 45.1075 5.80106 45.0897 5.85441 45.0897C5.92682 45.0897 5.98144 45.072 6.01701 45.0542C6.08941 45.0364 6.14403 44.9995 6.16181 44.9462C6.19738 44.8916 6.21644 44.8382 6.21644 44.748V43.0497C6.21644 42.8147 6.16181 42.6343 6.03606 42.5073C5.90904 42.3803 5.7655 42.3092 5.58512 42.3092C5.4581 42.3092 5.33234 42.3269 5.22437 42.3638C5.1164 42.3993 5.02621 42.454 4.93602 42.5086C4.86362 42.5632 4.79122 42.6166 4.73787 42.6712C4.68325 42.7258 4.64768 42.7791 4.6299 42.816V44.7303C4.6299 44.8027 4.64768 44.8751 4.68452 44.9106C4.72008 44.9652 4.7747 45.0008 4.84711 45.0186C4.90173 45.0364 4.95508 45.0542 5.0097 45.0732C5.06432 45.091 5.13672 45.091 5.19007 45.091V45.3082H3.39902V45.091C3.45364 45.091 3.507 45.0732 3.5794 45.0732C3.63402 45.0732 3.68737 45.0554 3.74199 45.0377C3.8144 45.0199 3.86902 44.983 3.8868 44.9297C3.92237 44.8751 3.94142 44.8217 3.94142 44.7315V42.6902C3.94142 42.6178 3.92364 42.5454 3.8868 42.473C3.85123 42.4006 3.79661 42.3651 3.74199 42.3104C3.68737 42.2926 3.63402 42.2558 3.5794 42.2558C3.507 42.238 3.45237 42.238 3.38124 42.238V42.0208L4.59179 41.9484L4.64641 42.003V42.473H4.66419C4.71881 42.4184 4.79122 42.346 4.8814 42.2749C4.97159 42.2025 5.06178 42.1301 5.13418 42.0945C5.22437 42.0399 5.33234 42.0043 5.45937 41.9675C5.58639 41.9319 5.72993 41.9128 5.89252 41.9128C6.23549 41.9128 6.50605 42.0208 6.66864 42.2012C6.83124 42.3993 6.92142 42.6712 6.92142 42.9964V44.7125C6.92142 44.7849 6.93921 44.8573 6.97604 44.9106C7.01161 44.9652 7.04845 45.0008 7.12085 45.0186C7.17547 45.0364 7.22882 45.0542 7.26566 45.0732C7.30123 45.091 7.37363 45.091 7.44604 45.091V45.326H7.46255V45.3247Z" fill="white"/>
<path d="M12.104 45.2701L10.8224 45.3425L10.7677 45.2879V44.9805H10.7322C10.6051 45.1075 10.4438 45.2155 10.2622 45.3057C10.0805 45.3959 9.88237 45.4327 9.68421 45.4327C9.467 45.4327 9.26884 45.3972 9.08847 45.3057C8.89031 45.2155 8.72772 45.1075 8.58291 44.945C8.4381 44.7824 8.31234 44.602 8.23994 44.3848C8.14975 44.1676 8.11292 43.9338 8.11292 43.662C8.11292 43.427 8.16754 43.192 8.25772 42.9761C8.34791 42.7589 8.47494 42.5785 8.63753 42.4159C8.78234 42.2711 8.9805 42.1453 9.19771 42.0551C9.41492 41.9649 9.63086 41.9281 9.86586 41.9281C10.0284 41.9281 10.2088 41.9459 10.3714 41.9827C10.534 42.0196 10.6788 42.0729 10.7868 42.1275V40.9894C10.7868 40.8992 10.769 40.809 10.7322 40.7366C10.6966 40.6642 10.642 40.5918 10.5874 40.5562C10.515 40.5207 10.4248 40.4838 10.299 40.4661C10.172 40.4483 10.0462 40.4305 9.91921 40.4305V40.2133L11.4181 40.1409L11.4727 40.1955V44.6566C11.4727 44.729 11.4905 44.8014 11.5273 44.8548C11.5629 44.9094 11.6175 44.9627 11.6722 44.9996C11.7268 45.0364 11.7801 45.0351 11.8703 45.0542C11.9605 45.0542 12.0329 45.072 12.1231 45.072V45.2701H12.104ZM10.7677 44.6922V42.7601C10.75 42.7055 10.7131 42.6331 10.6775 42.5797C10.642 42.5073 10.5696 42.4527 10.515 42.3994C10.4426 42.3448 10.3524 42.2914 10.2622 42.2546C10.172 42.219 10.045 42.1999 9.91921 42.1999C9.7744 42.1999 9.63086 42.2355 9.50384 42.3079C9.37681 42.3803 9.26884 42.4705 9.17865 42.6153C9.08847 42.7423 9.01606 42.9037 8.96144 43.1031C8.90682 43.3012 8.88904 43.5185 8.88904 43.7535C8.88904 43.9338 8.90682 44.1142 8.94366 44.259C8.97923 44.4216 9.05163 44.5474 9.14182 44.6922C9.232 44.8192 9.33997 44.9272 9.467 44.9996C9.59402 45.072 9.75535 45.1075 9.95478 45.1075C10.1529 45.1075 10.3155 45.072 10.4426 44.9805C10.5683 44.8738 10.6775 44.7836 10.7677 44.6922Z" fill="white"/>
<path d="M16.5652 45.2701L15.3737 45.3425L15.319 45.2879V44.8725H15.3013C15.2466 44.9271 15.1742 44.9805 15.1031 45.0529C15.0307 45.1253 14.9405 45.1799 14.8503 45.2333C14.7423 45.2879 14.6331 45.3412 14.5251 45.3781C14.4172 45.4136 14.2724 45.4327 14.092 45.4327C13.7668 45.4327 13.514 45.3425 13.3514 45.1443C13.1888 44.9462 13.0986 44.6744 13.0986 44.3136V42.7245C13.0986 42.6521 13.0809 42.5797 13.044 42.5264C13.0085 42.4717 12.9538 42.4184 12.8992 42.3816C12.8636 42.3638 12.7912 42.3269 12.7366 42.3269C12.6642 42.3091 12.5918 42.3091 12.5194 42.3091V42.0919L13.7477 42.0195L13.8024 42.0742V44.386C13.8024 44.621 13.857 44.8014 13.9827 44.9284C14.1085 45.0554 14.2355 45.1088 14.4159 45.1088C14.5429 45.1088 14.6687 45.091 14.7766 45.0542C14.8846 45.0186 14.9748 44.964 15.0472 44.9271C15.1196 44.8725 15.1742 44.8369 15.2276 44.7823C15.2822 44.7277 15.3178 44.6744 15.3356 44.6375V42.7588C15.3356 42.6864 15.3178 42.614 15.2809 42.5607C15.2454 42.506 15.1907 42.4527 15.1361 42.4158C15.1006 42.3803 15.0282 42.3803 14.938 42.3612C14.8478 42.3612 14.7576 42.3434 14.6496 42.3434V42.1262L15.9859 42.0538L16.0405 42.1085V44.7455C16.0405 44.8179 16.0583 44.8903 16.0952 44.9436C16.1307 44.9983 16.1853 45.0516 16.24 45.0885C16.2755 45.1062 16.3302 45.124 16.4026 45.1431C16.4572 45.1431 16.5296 45.1609 16.6007 45.1609L16.5652 45.2701Z" fill="white"/>
<path d="M19.6175 43.6986C19.7255 43.771 19.7979 43.879 19.8525 43.9692C19.9072 44.0772 19.9249 44.2042 19.9249 44.349C19.9249 44.6564 19.7979 44.9092 19.5451 45.1073C19.2924 45.3055 18.9672 45.3957 18.5518 45.3957C18.3346 45.3957 18.1364 45.3601 17.9561 45.2877C17.7757 45.2153 17.6487 45.1607 17.5763 45.0895L17.5039 45.3068H17.2333L17.1977 44.1508H17.4505C17.4683 44.241 17.5051 44.3312 17.5775 44.4582C17.6499 44.5662 17.7223 44.6754 17.8125 44.7834C17.9027 44.8736 18.0297 44.9638 18.1555 45.0362C18.3003 45.1086 18.4438 45.1442 18.6064 45.1442C18.8414 45.1442 19.0218 45.0895 19.1488 44.9994C19.2758 44.9092 19.347 44.7644 19.347 44.584C19.347 44.4938 19.3292 44.4036 19.2924 44.349C19.2568 44.2766 19.1844 44.222 19.112 44.1686C19.0218 44.114 18.9316 44.0784 18.8046 44.0238C18.6776 43.9882 18.5518 43.9336 18.407 43.8968C18.299 43.8612 18.1542 43.8244 18.0272 43.7698C17.8824 43.7151 17.7566 43.6427 17.6664 43.5716C17.5585 43.4992 17.4683 43.3912 17.3959 43.2832C17.3235 43.1753 17.2879 43.0305 17.2879 42.8857C17.2879 42.6151 17.3959 42.3801 17.6309 42.1997C17.8481 42.0194 18.1542 41.9114 18.534 41.9114C18.6788 41.9114 18.8224 41.9292 18.9672 41.966C19.112 42.0016 19.2377 42.0384 19.3279 42.093L19.4181 41.9126H19.6887L19.7433 42.9784H19.4905C19.4359 42.7434 19.3279 42.5452 19.1476 42.4004C18.985 42.2556 18.7677 42.1832 18.515 42.1832C18.3168 42.1832 18.1542 42.2378 18.0272 42.328C17.9192 42.4182 17.8468 42.5262 17.8468 42.6532C17.8468 42.7612 17.8646 42.8336 17.9014 42.906C17.9383 42.9784 17.9916 43.033 18.0818 43.0686C18.1542 43.1041 18.2444 43.1588 18.3524 43.1956C18.4603 43.2324 18.6052 43.2858 18.7678 43.3226C18.9303 43.3772 19.0929 43.4306 19.2377 43.4852C19.4003 43.5551 19.5261 43.6275 19.6175 43.6986Z" fill="white"/>
<path d="M22.9215 45.1798C22.7589 45.2344 22.6141 45.2877 22.4705 45.3246C22.3257 45.3601 22.1454 45.3792 21.9472 45.3792C21.6398 45.3792 21.4239 45.3068 21.2968 45.162C21.1698 45.0172 21.1165 44.819 21.1165 44.5662V42.3268H20.4483V42.0016H21.1165V40.9905H21.7846V42.0194H22.8326V42.3446H21.7846V44.2042C21.7846 44.349 21.7846 44.457 21.8024 44.5472C21.8202 44.6374 21.838 44.7276 21.8748 44.7822C21.9104 44.8546 21.965 44.8901 22.0552 44.927C22.1276 44.9625 22.2355 44.9816 22.3804 44.9816C22.435 44.9816 22.5252 44.9816 22.6509 44.9638C22.7779 44.946 22.8491 44.946 22.9037 44.9282V45.181H22.9215V45.1798Z" fill="white"/>
<path d="M26.2813 42.4347C26.2813 42.5427 26.2457 42.652 26.1911 42.7421C26.1365 42.8323 26.0285 42.8692 25.9028 42.8692C25.7579 42.8692 25.65 42.8336 25.5776 42.779C25.5052 42.7066 25.4696 42.6342 25.4696 42.5618C25.4696 42.5071 25.4696 42.4716 25.4874 42.4347C25.4874 42.3992 25.5052 42.3446 25.5052 42.3077C25.3972 42.3077 25.2524 42.3433 25.0898 42.4347C24.9272 42.5262 24.8015 42.6329 24.6922 42.7955V44.7275C24.6922 44.8 24.71 44.8724 24.7468 44.9257C24.7824 44.9803 24.837 45.0159 24.9094 45.0337C24.964 45.0515 25.0542 45.0692 25.1444 45.0883C25.2346 45.1061 25.3248 45.1061 25.3972 45.1061V45.3233H23.4651V45.1061C23.5198 45.1061 23.5731 45.0883 23.6455 45.0883C23.7001 45.0883 23.7535 45.0705 23.8081 45.0527C23.8805 45.0349 23.9351 44.9981 23.9707 44.9448C24.0063 44.8901 24.0253 44.8368 24.0253 44.7466V42.7053C24.0253 42.6329 24.0075 42.5605 23.9707 42.5072C23.9351 42.4347 23.8805 42.3801 23.8259 42.3446C23.7713 42.3268 23.7179 42.2899 23.6633 42.2899C23.5909 42.2722 23.5363 42.2722 23.4651 42.2722V42.0549L24.6744 41.9838L24.729 42.0384V42.5084H24.7468C24.8916 42.328 25.072 42.1832 25.2524 42.093C25.4328 42.0029 25.6131 41.9482 25.7757 41.9482C25.9383 41.9482 26.0641 42.0029 26.1555 42.093C26.2267 42.1642 26.2813 42.2899 26.2813 42.4347Z" fill="white"/>
<path d="M28.5576 45.3246H26.7881V45.1074C26.8427 45.1074 26.8961 45.0896 26.9685 45.0896C27.0231 45.0896 27.0764 45.0718 27.1311 45.0541C27.2035 45.0363 27.2581 44.9994 27.2937 44.9461C27.3292 44.8915 27.3483 44.8381 27.3483 44.7479V42.7066C27.3483 42.6342 27.3305 42.5618 27.2937 42.5085C27.2581 42.4539 27.2035 42.4005 27.1488 42.3637C27.0942 42.3281 27.0409 42.309 26.9507 42.2913C26.8605 42.2735 26.7881 42.2557 26.6979 42.2557V42.0385L27.9986 41.9661L28.0533 42.0207V44.7301C28.0533 44.8025 28.071 44.8749 28.1079 44.9283C28.1435 44.9829 28.1981 45.0185 28.2705 45.0363C28.3251 45.0541 28.3784 45.0718 28.4331 45.0909C28.4877 45.1087 28.541 45.1087 28.6134 45.1087L28.5576 45.3246ZM28.0876 40.6653C28.0876 40.7924 28.0329 40.9003 27.9428 40.9905C27.8526 41.0807 27.7446 41.1353 27.5998 41.1353C27.4728 41.1353 27.3648 41.0807 27.2746 40.9905C27.1844 40.9003 27.1298 40.7924 27.1298 40.6831C27.1298 40.5561 27.1844 40.4481 27.2746 40.3579C27.3648 40.2678 27.4728 40.2131 27.5998 40.2131C27.7446 40.2131 27.8526 40.2487 27.9428 40.3402C28.0329 40.4481 28.0876 40.5561 28.0876 40.6653Z" fill="white"/>
<path d="M32.4407 44.5485C32.2959 44.8191 32.08 45.0185 31.8272 45.1811C31.5744 45.3437 31.267 45.4161 30.9418 45.4161C30.6535 45.4161 30.3816 45.3615 30.1657 45.2713C29.9485 45.1811 29.7681 45.0541 29.6233 44.8915C29.4785 44.7289 29.3705 44.5485 29.2981 44.3313C29.2257 44.1141 29.1902 43.8803 29.1902 43.6454C29.1902 43.4281 29.2257 43.2122 29.2981 43.0128C29.3705 42.7956 29.4785 42.6152 29.6233 42.4526C29.7681 42.29 29.9307 42.1642 30.1467 42.0728C30.3626 41.9813 30.5976 41.928 30.8516 41.928C31.1222 41.928 31.3394 41.9635 31.5376 42.036C31.7357 42.1084 31.8805 42.2163 32.0076 42.3433C32.1155 42.4704 32.2057 42.6139 32.2603 42.7943C32.315 42.9569 32.3505 43.155 32.3505 43.3545V43.5717H29.9307C29.9307 43.7889 29.9485 43.9871 30.0031 44.1674C30.0577 44.3478 30.1301 44.4926 30.2203 44.6374C30.3105 44.7644 30.4375 44.8724 30.6001 44.9448C30.7627 45.0172 30.9431 45.0528 31.1603 45.0528C31.3775 45.0528 31.5757 44.9982 31.7383 44.908C31.9009 44.8178 32.0457 44.6552 32.2083 44.4024L32.4407 44.5485ZM31.6087 43.2833C31.6087 43.1563 31.5909 43.0306 31.5731 42.8857C31.5554 42.7409 31.5185 42.6152 31.4652 42.525C31.4105 42.417 31.3204 42.3446 31.2302 42.2722C31.14 42.1998 30.9952 42.182 30.8504 42.182C30.5976 42.182 30.3804 42.2722 30.2 42.4704C30.0196 42.6685 29.9294 42.9404 29.9117 43.2833H31.6087Z" fill="white"/>
<path d="M35.4563 43.6986C35.5643 43.771 35.6367 43.879 35.6913 43.9692C35.7459 44.0772 35.7637 44.2042 35.7637 44.349C35.7637 44.6564 35.6367 44.9092 35.3839 45.1073C35.1311 45.3055 34.8059 45.3957 34.3906 45.3957C34.1733 45.3957 33.9752 45.3601 33.7948 45.2877C33.6144 45.2153 33.4874 45.1607 33.415 45.0895L33.3426 45.3068H33.072L33.0365 44.1508H33.2893C33.307 44.241 33.3439 44.3312 33.4163 44.4582C33.4887 44.5662 33.5611 44.6754 33.6513 44.7834C33.7415 44.8736 33.8685 44.9638 33.9942 45.0362C34.139 45.1086 34.2826 45.1442 34.4452 45.1442C34.6802 45.1442 34.8605 45.0895 34.9876 44.9994C35.1146 44.9092 35.1857 44.7644 35.1857 44.584C35.1857 44.4938 35.1679 44.4036 35.1311 44.349C35.0955 44.2766 35.0231 44.222 34.9507 44.1686C34.8605 44.114 34.7704 44.0784 34.6433 44.0238C34.5163 43.9882 34.3906 43.9336 34.2457 43.8968C34.1378 43.8612 33.993 43.8244 33.8659 43.7698C33.7211 43.7151 33.5954 43.6427 33.5052 43.5716C33.3972 43.4992 33.307 43.3912 33.2346 43.2832C33.1622 43.1753 33.1267 43.0305 33.1267 42.8857C33.1267 42.6151 33.2346 42.3801 33.4696 42.1997C33.6868 42.0194 33.993 41.9114 34.3728 41.9114C34.5176 41.9114 34.6611 41.9292 34.8059 41.966C34.9507 42.0016 35.0765 42.0384 35.1667 42.093L35.2569 41.9126H35.5274L35.582 42.9784H35.3293C35.2746 42.7434 35.1667 42.5452 34.9863 42.4004C34.8237 42.2556 34.6065 42.1832 34.3537 42.1832C34.1556 42.1832 33.993 42.2378 33.8659 42.328C33.758 42.4182 33.6856 42.5262 33.6856 42.6532C33.6856 42.7612 33.7033 42.8336 33.7402 42.906C33.777 42.9784 33.8304 43.033 33.9206 43.0686C33.993 43.1041 34.0832 43.1588 34.1911 43.1956C34.2991 43.2312 34.4439 43.2858 34.6065 43.3226C34.7691 43.3772 34.9317 43.4306 35.0765 43.4852C35.2391 43.5551 35.3661 43.6275 35.4563 43.6986Z" fill="white"/>
<path d="M42.482 43.916L42.3741 45.3247H38.2559V45.0897C38.3105 45.0897 38.4007 45.0719 38.5087 45.0719C38.6167 45.0541 38.7069 45.0541 38.7437 45.0363C38.8161 45.0008 38.8707 44.9639 38.9063 44.9093C38.9419 44.8547 38.9609 44.7823 38.9609 44.6921V41.279C38.9609 41.2066 38.9431 41.1341 38.9253 41.0808C38.8898 41.0262 38.8352 40.9728 38.7627 40.936C38.7081 40.9182 38.6179 40.8814 38.5278 40.8636C38.4198 40.8458 38.3474 40.828 38.275 40.828V40.593H40.4966V40.828C40.4242 40.828 40.334 40.8458 40.2261 40.8636C40.1181 40.8814 40.0279 40.8991 39.9911 40.9182C39.9009 40.936 39.8463 40.9906 39.8107 41.063C39.7751 41.1354 39.7561 41.19 39.7561 41.2802V44.4774C39.7561 44.6222 39.7561 44.748 39.7739 44.8204C39.7916 44.9106 39.8285 44.9652 39.8818 45.0186C39.9365 45.0541 40.0266 45.091 40.1346 45.091C40.2426 45.1088 40.4052 45.1088 40.6046 45.1088C40.6948 45.1088 40.785 45.1088 40.893 45.1088C40.9831 45.1088 41.0911 45.091 41.1813 45.0732C41.2715 45.0554 41.3439 45.0376 41.4163 45.0186C41.4887 45.0008 41.5433 44.9639 41.5789 44.9284C41.6869 44.8204 41.7961 44.6756 41.9396 44.4584C42.0667 44.2412 42.1746 44.0786 42.228 43.9528L42.482 43.916Z" fill="white"/>
<path d="M44.7037 45.3246H42.9342V45.1074C42.9889 45.1074 43.0422 45.0896 43.1146 45.0896C43.1692 45.0896 43.2226 45.0718 43.2772 45.0541C43.3496 45.0363 43.4042 44.9994 43.4398 44.9461C43.4754 44.8915 43.4944 44.8381 43.4944 44.7479V42.7066C43.4944 42.6342 43.4766 42.5618 43.4398 42.5085C43.4042 42.4539 43.3496 42.4005 43.295 42.3637C43.2404 42.3281 43.187 42.309 43.0968 42.2913C43.0066 42.2735 42.9342 42.2557 42.8441 42.2557V42.0385L44.1448 41.9661L44.1994 42.0207V44.7301C44.1994 44.8025 44.2172 44.8749 44.254 44.9283C44.2896 44.9829 44.3442 45.0185 44.4166 45.0363C44.4712 45.0541 44.5246 45.0718 44.5792 45.0909C44.6338 45.1087 44.6872 45.1087 44.7596 45.1087V45.3259H44.7037V45.3246ZM44.2515 40.6653C44.2515 40.7924 44.1969 40.9003 44.1067 40.9905C44.0165 41.0807 43.9085 41.1353 43.7637 41.1353C43.6367 41.1353 43.5287 41.0807 43.4385 40.9905C43.3483 40.9003 43.2937 40.7924 43.2937 40.6831C43.2937 40.5561 43.3483 40.4481 43.4385 40.3579C43.5287 40.2678 43.6367 40.2131 43.7637 40.2131C43.9085 40.2131 44.0165 40.2487 44.1067 40.3402C44.1981 40.4481 44.2515 40.5561 44.2515 40.6653Z" fill="white"/>
<path d="M51.6202 45.3247H49.8317V45.1075C49.8863 45.1075 49.9396 45.0897 50.012 45.0897C50.0667 45.0897 50.12 45.072 50.1746 45.0542C50.247 45.0364 50.3017 44.9996 50.3194 44.9462C50.355 44.8916 50.3741 44.8382 50.3741 44.748V43.0319C50.3741 42.7969 50.3194 42.6166 50.1937 42.4895C50.0679 42.3625 49.9231 42.3092 49.7605 42.3092C49.6335 42.3092 49.5255 42.327 49.4176 42.3638C49.3096 42.3994 49.2194 42.4362 49.1292 42.5086C49.0568 42.5632 49.0022 42.6166 48.9488 42.6712C48.8942 42.7258 48.8587 42.7792 48.8409 42.816V44.7303C48.8409 44.8027 48.8587 44.8751 48.8764 44.9284C48.912 44.983 48.9488 45.0186 49.0212 45.0364C49.0759 45.0542 49.1292 45.072 49.1838 45.091C49.2385 45.1088 49.2918 45.1088 49.3642 45.1088V45.326H47.6125V45.1088C47.6672 45.1088 47.7205 45.091 47.7751 45.091C47.8298 45.091 47.8831 45.0732 47.9199 45.0554C47.9923 45.0377 48.047 45.0008 48.0825 44.9475C48.1181 44.8929 48.1372 44.8395 48.1372 44.7493V43.0332C48.1372 42.7982 48.0825 42.6178 47.9568 42.4908C47.8298 42.3638 47.6862 42.3104 47.5236 42.3104C47.3966 42.3104 47.2886 42.3282 47.1807 42.3651C47.0727 42.4019 46.9825 42.4552 46.8923 42.5099C46.8199 42.5645 46.7653 42.6178 46.7119 42.6725C46.6573 42.7271 46.6217 42.7804 46.604 42.8173V44.7137C46.604 44.7862 46.6217 44.8586 46.6586 44.9119C46.6942 44.9665 46.7488 45.0021 46.8212 45.0199C46.8758 45.0377 46.9291 45.0554 46.9838 45.0745C47.0384 45.0923 47.0917 45.0923 47.1641 45.0923V45.3095H45.3947V45.0923C45.4493 45.0923 45.5027 45.0745 45.5751 45.0745C45.6297 45.0745 45.683 45.0567 45.7377 45.0389C45.8101 45.0211 45.8647 44.9843 45.9002 44.931C45.9358 44.8763 45.9549 44.823 45.9549 44.7328V42.6699C45.9549 42.5975 45.9371 42.5251 45.9002 42.4718C45.8647 42.4171 45.8101 42.3638 45.7554 42.327C45.7008 42.3092 45.6475 42.2723 45.5751 42.2545C45.5027 42.2368 45.4303 42.219 45.3578 42.219V42.0018L46.5862 41.9294L46.6408 41.984V42.454H46.6586C46.7132 42.3994 46.8034 42.327 46.8936 42.2558C46.9838 42.1847 47.074 42.111 47.1464 42.0754C47.2365 42.0208 47.3445 41.9853 47.4715 41.9484C47.5986 41.9129 47.7421 41.8938 47.8869 41.8938C48.1219 41.8938 48.3201 41.9484 48.5004 42.0742C48.663 42.1821 48.7888 42.327 48.8612 42.4895C48.9514 42.4171 49.0238 42.3447 49.0962 42.2914C49.1686 42.2368 49.2588 42.1644 49.3668 42.0932C49.4569 42.0386 49.5649 41.9853 49.6919 41.9484C49.819 41.9129 49.9625 41.8938 50.1251 41.8938C50.4325 41.8938 50.6853 41.984 50.8656 42.1644C51.046 42.3447 51.1362 42.6344 51.1362 43.0129V44.6922C51.1362 44.7646 51.154 44.837 51.1718 44.8903C51.2073 44.9449 51.2442 44.9805 51.3166 44.9983C51.3712 45.0161 51.4246 45.0339 51.4792 45.0529C51.5338 45.0707 51.6062 45.0707 51.6596 45.0707V45.3235H51.6202V45.3247Z" fill="white"/>
<path d="M54.0044 45.3246H52.235V45.1074C52.2896 45.1074 52.343 45.0896 52.4154 45.0896C52.47 45.0896 52.5233 45.0718 52.578 45.0541C52.6504 45.0363 52.705 44.9994 52.7406 44.9461C52.7761 44.8915 52.7952 44.8381 52.7952 44.7479V42.7066C52.7952 42.6342 52.7774 42.5618 52.7406 42.5085C52.705 42.4539 52.6504 42.4005 52.5957 42.3637C52.5411 42.3281 52.4878 42.309 52.3976 42.2913C52.3074 42.2735 52.235 42.2557 52.1448 42.2557V42.0385L53.4455 41.9661L53.5002 42.0207V44.7301C53.5002 44.8025 53.5179 44.8749 53.5548 44.9283C53.5903 44.9829 53.645 45.0185 53.7174 45.0363C53.772 45.0541 53.8253 45.0718 53.88 45.0909C53.9346 45.1087 53.9879 45.1087 54.0603 45.1087V45.3259H54.0044V45.3246ZM53.5345 40.6653C53.5345 40.7924 53.4798 40.9003 53.3896 40.9905C53.2995 41.0807 53.1915 41.1353 53.0467 41.1353C52.9197 41.1353 52.8117 41.0807 52.7215 40.9905C52.6313 40.9003 52.5767 40.7924 52.5767 40.6831C52.5767 40.5561 52.6313 40.4481 52.7215 40.3579C52.8117 40.2678 52.9197 40.2131 53.0467 40.2131C53.1915 40.2131 53.2995 40.2487 53.3896 40.3402C53.4811 40.4481 53.5345 40.5561 53.5345 40.6653Z" fill="white"/>
<path d="M56.8943 45.1798C56.7317 45.2344 56.5869 45.2877 56.4433 45.3246C56.2985 45.3601 56.1181 45.3792 55.92 45.3792C55.6126 45.3792 55.3966 45.3068 55.2696 45.162C55.1426 45.0172 55.0892 44.819 55.0892 44.5662V42.3268H54.4211V42.0016H55.0892V40.9905H55.7574V42.0194H56.8053V42.3446H55.7574V44.2042C55.7574 44.349 55.7574 44.457 55.7752 44.5472C55.793 44.6374 55.8107 44.7276 55.8476 44.7822C55.8831 44.8546 55.9378 44.8901 56.0279 44.927C56.1003 44.9625 56.2083 44.9816 56.3531 44.9816C56.4078 44.9816 56.4979 44.9816 56.6237 44.9638C56.7507 44.946 56.8219 44.946 56.8765 44.9282L56.8943 45.1798Z" fill="white"/>
<path d="M60.6872 44.5485C60.5424 44.8191 60.3265 45.0185 60.0737 45.1811C59.8209 45.3437 59.5135 45.4161 59.1883 45.4161C58.9 45.4161 58.6281 45.3615 58.4122 45.2713C58.195 45.1811 58.0146 45.0541 57.8698 44.8915C57.725 44.7289 57.617 44.5485 57.5446 44.3313C57.4722 44.1141 57.4366 43.8803 57.4366 43.6454C57.4366 43.4281 57.4722 43.2122 57.5446 43.0128C57.617 42.7956 57.725 42.6152 57.8698 42.4526C58.0146 42.29 58.1772 42.1642 58.3931 42.0728C58.6104 41.9826 58.8441 41.928 59.0981 41.928C59.3687 41.928 59.5859 41.9635 59.7841 42.036C59.9822 42.1084 60.127 42.2163 60.2541 42.3433C60.362 42.4704 60.4522 42.6139 60.5068 42.7943C60.5615 42.9569 60.597 43.155 60.597 43.3545V43.5717H58.1772C58.1772 43.7889 58.195 43.9871 58.2496 44.1674C58.3042 44.3478 58.3766 44.4926 58.4668 44.6374C58.557 44.7644 58.684 44.8724 58.8466 44.9448C59.0092 45.0172 59.1896 45.0528 59.4068 45.0528C59.624 45.0528 59.8222 44.9982 59.9848 44.908C60.1474 44.8178 60.2922 44.6552 60.4548 44.4024L60.6872 44.5485ZM59.8742 43.2833C59.8742 43.1563 59.8565 43.0306 59.8387 42.8857C59.8209 42.7409 59.7841 42.6152 59.7307 42.525C59.6761 42.417 59.6037 42.3446 59.4957 42.2722C59.4055 42.1998 59.2607 42.182 59.1159 42.182C58.8631 42.182 58.6459 42.2722 58.4655 42.4704C58.2852 42.6685 58.195 42.9404 58.1772 43.2833H59.8742Z" fill="white"/>
<path d="M65.3109 45.2701L64.0293 45.3425L63.9746 45.2879V44.9805H63.9391C63.8121 45.1075 63.6507 45.2155 63.4691 45.3057C63.2887 45.3959 63.0893 45.4327 62.8911 45.4327C62.6739 45.4327 62.4758 45.3972 62.2954 45.3057C62.0972 45.2155 61.9346 45.1075 61.7898 44.945C61.645 44.7824 61.5193 44.602 61.4468 44.3848C61.3567 44.1676 61.3198 43.9338 61.3198 43.662C61.3198 43.427 61.3744 43.192 61.4646 42.9761C61.5548 42.7589 61.6818 42.5785 61.8444 42.4159C61.9892 42.2711 62.1874 42.1453 62.4046 42.0551C62.6218 41.9649 62.8378 41.9281 63.0728 41.9281C63.2354 41.9281 63.4157 41.9459 63.5783 41.9827C63.7409 42.0183 63.8857 42.0729 63.9937 42.1275V40.9894C63.9937 40.8992 63.9759 40.809 63.9391 40.7366C63.9022 40.6642 63.8489 40.5918 63.7943 40.5562C63.7219 40.5207 63.6317 40.4838 63.5059 40.4661C63.3789 40.4483 63.2531 40.4305 63.1261 40.4305V40.2133L64.625 40.1409L64.6796 40.1955V44.6566C64.6796 44.729 64.6974 44.8014 64.7343 44.8548C64.7698 44.9094 64.8244 44.9627 64.8791 44.9996C64.9337 45.0351 64.987 45.0351 65.0772 45.0542C65.1674 45.0542 65.2398 45.072 65.33 45.072V45.2701H65.3109ZM63.9746 44.6922V42.7601C63.9569 42.7055 63.92 42.6331 63.8845 42.5797C63.8489 42.5073 63.7765 42.4527 63.7219 42.3994C63.6495 42.3448 63.5593 42.2914 63.4691 42.2546C63.3789 42.219 63.2519 42.1999 63.1261 42.1999C62.9813 42.1999 62.8378 42.2355 62.7107 42.3079C62.5837 42.3803 62.4758 42.4705 62.3856 42.6153C62.2954 42.7423 62.223 42.9037 62.1684 43.1031C62.1137 43.3012 62.0959 43.5185 62.0959 43.7535C62.0959 43.9338 62.1137 44.1142 62.1506 44.259C62.1861 44.4216 62.2585 44.5474 62.3487 44.6922C62.4389 44.8192 62.5469 44.9272 62.6739 44.9996C62.8009 45.072 62.9623 45.1075 63.1617 45.1075C63.3598 45.1075 63.5224 45.072 63.6495 44.9805C63.7752 44.8738 63.8845 44.7836 63.9746 44.6922Z" fill="white"/>
</svg>
