<svg width="52" height="46" viewBox="0 0 52 46" fill="none" xmlns="http://www.w3.org/2000/svg">
<path fill-rule="evenodd" clip-rule="evenodd" d="M0.155823 32.6133H12.5384V36.3782H8.98111V45.4326H3.82766V36.3782H0.155823V32.6133Z" fill="white"/>
<path fill-rule="evenodd" clip-rule="evenodd" d="M18.8085 37.7954L16.2031 45.4326H11.2429L16.1029 32.6133H21.4854L26.4599 45.4326H21.4424L18.8085 37.7954Z" fill="white"/>
<path fill-rule="evenodd" clip-rule="evenodd" d="M25.2786 32.6133H37.6541V36.3782H34.1039V45.4326H28.9505V36.3782H25.2786V32.6133Z" fill="white"/>
<path fill-rule="evenodd" clip-rule="evenodd" d="M43.9244 37.7954L41.319 45.4326H36.366L41.226 32.6133H46.6085L51.583 45.4326H46.5655L43.9244 37.7954Z" fill="white"/>
<path fill-rule="evenodd" clip-rule="evenodd" d="M44.1108 9.07187C43.6527 8.16285 43.0372 7.28962 42.2857 6.47365C40.5821 4.63414 38.1844 3.10957 35.3428 2.0574C32.4726 0.990912 29.2016 0.432617 25.8876 0.432617C22.5665 0.432617 19.2955 0.990912 16.4325 2.0574C13.5909 3.10957 11.186 4.6413 9.48964 6.47365C8.73094 7.28962 8.12255 8.16285 7.6573 9.07187C11.3578 8.17717 17.6851 6.99616 23.5614 6.87448C24.1269 6.86017 24.5205 7.04626 24.7782 7.36836C25.0932 7.76203 25.0645 9.17924 25.0574 9.80911L24.8927 26.15C25.222 26.1571 25.5584 26.1714 25.8876 26.1714C26.2241 26.1714 26.5605 26.1643 26.8897 26.15L26.7179 9.80911C26.7108 9.17924 26.6893 7.76203 26.9971 7.36836C27.2547 7.03911 27.6413 6.86017 28.2139 6.87448C34.0902 6.99616 40.4104 8.17717 44.1108 9.07187Z" fill="white"/>
<path fill-rule="evenodd" clip-rule="evenodd" d="M44.8981 11.1978C39.487 9.97384 35.8653 9.74479 32.3008 9.55154C29.1944 9.37975 29.1515 10.4892 29.4592 12.6078C29.4807 12.7367 29.5022 12.9013 29.5308 13.0874C30.5758 19.2644 31.8713 24.5754 32.0932 25.4773C39.6731 23.7451 45.1415 18.9423 45.1415 13.3021C45.1558 12.5935 45.0699 11.8849 44.8981 11.1978Z" fill="white"/>
<path fill-rule="evenodd" clip-rule="evenodd" d="M22.308 12.6078C22.6158 10.4892 22.58 9.37975 19.4665 9.55154C15.8948 9.75195 12.2802 9.97384 6.86196 11.1978C6.7045 11.8849 6.61861 12.5935 6.61861 13.3021C6.61861 15.7429 7.61351 18.1049 9.48879 20.1305C11.1923 21.97 13.5901 23.4946 16.4316 24.5468C17.4623 24.9261 18.5503 25.2411 19.6669 25.4916C19.8744 24.647 21.2057 19.2215 22.2579 12.9299C22.2794 12.8083 22.2937 12.7009 22.308 12.6078Z" fill="white"/>
</svg>
