<svg width="46" height="46" viewBox="0 0 46 46" fill="none" xmlns="http://www.w3.org/2000/svg">
<g clip-path="url(#clip0_6979_45877)">
<path d="M29.8249 22.9985C29.8249 21.3572 28.5312 20.0265 26.9356 20.0265C25.3394 20.0265 24.0453 21.3572 24.0453 22.9983C24.0453 24.6403 25.3394 25.971 26.9358 25.971C28.5314 25.971 29.8249 24.6403 29.8249 22.9985ZM26.9356 24.5679C26.1156 24.5679 25.4493 23.8638 25.4493 22.9985C25.4493 22.134 26.1156 21.4299 26.9358 21.4299C27.7551 21.4299 28.4213 22.134 28.4213 22.9985C28.4213 23.8638 27.7548 24.5679 26.9356 24.5679ZM8.96519 20.4272L7.22669 25.8146C7.19894 25.9008 7.102 25.9712 7.01069 25.9712H6.85319C6.76244 25.9712 6.65369 25.9052 6.61188 25.8249L4.83063 22.4045L3.05013 25.8251C3.00794 25.9052 2.89957 25.9712 2.80844 25.9712H2.65057C2.56 25.9712 2.46269 25.901 2.43494 25.8146L0.695879 20.4272C0.654254 20.2972 0.731504 20.1909 0.867441 20.1909H1.93188C2.02244 20.1909 2.11975 20.262 2.1475 20.3484L3.0265 23.0709L4.53532 20.1725C4.57713 20.0923 4.68607 20.0265 4.777 20.0265H4.88463C4.97557 20.0265 5.08394 20.0923 5.12632 20.1725L6.63569 23.0709L7.51413 20.3484C7.54188 20.262 7.63919 20.1909 7.73013 20.1909H8.79363C8.92994 20.1909 9.007 20.2972 8.96519 20.4272ZM11.5302 25.5585C11.5301 25.6242 11.504 25.6872 11.4576 25.7336C11.4112 25.7801 11.3482 25.8062 11.2825 25.8063H10.2089C10.1764 25.8063 10.1441 25.7999 10.1141 25.7874C10.0841 25.775 10.0568 25.7567 10.0338 25.7337C10.0108 25.7107 9.99259 25.6833 9.98016 25.6533C9.96774 25.6232 9.96135 25.591 9.96138 25.5585V20.439C9.96138 20.3023 10.072 20.1911 10.2089 20.1911H11.2825C11.3482 20.1911 11.4112 20.2173 11.4577 20.2638C11.5042 20.3102 11.5303 20.3732 11.5304 20.439L11.5302 25.5585ZM12.9194 20.4388V28.5303C12.9194 28.6678 13.03 28.7782 13.1671 28.7782H14.2405C14.2731 28.7783 14.3053 28.7719 14.3354 28.7594C14.3654 28.747 14.3928 28.7287 14.4158 28.7057C14.4388 28.6827 14.457 28.6553 14.4694 28.6252C14.4818 28.5951 14.4881 28.5629 14.488 28.5303V25.7235C14.9429 25.8828 15.4454 25.971 15.9743 25.971C17.4788 25.971 18.6989 24.6403 18.6989 22.9985C18.6989 21.3572 17.4788 20.0265 15.9743 20.0265C15.2356 20.0265 14.5662 20.3471 14.0755 20.8678L13.8843 20.3463C13.8529 20.2614 13.753 20.1909 13.6624 20.1909H13.1671C13.1345 20.1909 13.1023 20.1973 13.0722 20.2098C13.0422 20.2222 13.0149 20.2405 12.9919 20.2635C12.9689 20.2865 12.9506 20.3139 12.9382 20.3439C12.9257 20.374 12.9194 20.4062 12.9194 20.4388ZM14.4878 22.1263C14.7458 21.7065 15.184 21.4299 15.6828 21.4299C16.4768 21.4299 17.1203 22.1323 17.1203 22.9985C17.1203 23.8652 16.4768 24.5679 15.6828 24.5679C15.2335 24.5679 14.8204 24.4498 14.4878 24.2503V22.1263ZM21.1919 25.8063H20.1188C20.0531 25.8063 19.9901 25.7803 19.9437 25.7338C19.8972 25.6874 19.8711 25.6244 19.8711 25.5587V20.4388C19.8711 20.3021 19.9818 20.1909 20.1188 20.1909H20.6142C20.7048 20.1909 20.8047 20.2614 20.836 20.3463L21.0269 20.867C21.0269 20.867 21.6259 20.0265 22.6581 20.0265C23.6907 20.0265 23.8154 20.3822 23.7291 20.579C23.6423 20.7753 23.4078 21.3062 23.3598 21.4142C23.3121 21.5229 23.1904 21.5998 23.0275 21.5373C22.8644 21.4745 22.066 21.2143 21.4396 21.974V25.5587C21.4395 25.6243 21.4133 25.6873 21.3669 25.7337C21.3205 25.7801 21.2575 25.8062 21.1919 25.8063ZM29.9843 6.41472C30.0292 6.24718 30.1067 6.09013 30.2123 5.95255C30.3179 5.81496 30.4496 5.69953 30.5998 5.61287C30.75 5.5262 30.9159 5.47 31.0879 5.44746C31.2598 5.42493 31.4346 5.4365 31.6021 5.48154C31.7696 5.52643 31.9266 5.60389 32.0642 5.70948C32.2018 5.81507 32.3172 5.94673 32.404 6.09693C32.4907 6.24713 32.5469 6.41295 32.5696 6.5849C32.5922 6.75685 32.5807 6.93158 32.5358 7.0991C32.4909 7.26662 32.4135 7.42366 32.3079 7.56124C32.2023 7.69883 32.0706 7.81427 31.9204 7.90098C31.7702 7.98769 31.6044 8.04396 31.4325 8.06659C31.2605 8.08921 31.0858 8.07775 30.9183 8.03285C30.5799 7.94207 30.2914 7.7206 30.1163 7.41715C29.9412 7.1137 29.8936 6.75312 29.9843 6.41472ZM33.4467 11.6445C33.6743 11.7759 33.8404 11.9923 33.9084 12.2462C33.9765 12.5001 33.9409 12.7706 33.8095 12.9982C33.7445 13.1109 33.6578 13.2097 33.5546 13.2888C33.4514 13.368 33.3335 13.4261 33.2078 13.4597C33.0821 13.4933 32.951 13.5018 32.8221 13.4847C32.6931 13.4676 32.5687 13.4253 32.4561 13.3601C32.3435 13.2951 32.2447 13.2086 32.1655 13.1054C32.0863 13.0022 32.0282 12.8845 31.9945 12.7589C31.9608 12.6332 31.9522 12.5022 31.9691 12.3732C31.9861 12.2443 32.0283 12.1199 32.0933 12.0073C32.1583 11.8945 32.2449 11.7957 32.3481 11.7165C32.4513 11.6372 32.5691 11.579 32.6948 11.5454C32.8205 11.5117 32.9516 11.5031 33.0806 11.5201C33.2096 11.5371 33.334 11.5794 33.4467 11.6445ZM34.6917 32.2106C34.4903 32.0092 34.3772 31.7361 34.3772 31.4513C34.3772 31.1665 34.4903 30.8934 34.6917 30.692C34.7913 30.5923 34.9096 30.5132 35.0399 30.4592C35.1701 30.4052 35.3097 30.3774 35.4507 30.3774C35.5917 30.3774 35.7313 30.4052 35.8615 30.4592C35.9917 30.5132 36.1101 30.5923 36.2097 30.692C36.3094 30.7917 36.3885 30.9101 36.4425 31.0404C36.4965 31.1707 36.5243 31.3104 36.5243 31.4514C36.5243 31.5924 36.4965 31.7321 36.4425 31.8624C36.3885 31.9927 36.3094 32.1111 36.2097 32.2108C36.0083 32.4118 35.7353 32.5247 35.4508 32.5247C35.1662 32.5247 34.8931 32.4116 34.6917 32.2106ZM30.0835 18.3787C30.0222 18.4809 29.9232 18.555 29.8078 18.5849C29.6924 18.6148 29.5699 18.5981 29.4667 18.5385C29.3635 18.4789 29.2878 18.3811 29.256 18.2662C29.2242 18.1514 29.2389 18.0286 29.2968 17.9244C29.357 17.8201 29.4562 17.7439 29.5725 17.7128C29.6889 17.6816 29.8129 17.6979 29.9172 17.7581C30.0215 17.8183 30.0977 17.9175 30.1288 18.0339C30.16 18.1502 30.1437 18.2744 30.0835 18.3787ZM29.2968 27.9414C29.2396 27.8373 29.2256 27.7149 29.2576 27.6005C29.2896 27.4862 29.3651 27.3889 29.468 27.3295C29.5708 27.2701 29.6929 27.2534 29.8079 27.2829C29.923 27.3124 30.0219 27.3857 30.0835 27.4873C30.1436 27.5917 30.1599 27.7157 30.1287 27.832C30.0974 27.9484 30.0213 28.0476 29.917 28.1079C29.8126 28.1679 29.6887 28.184 29.5725 28.1528C29.4562 28.1216 29.3571 28.0456 29.2968 27.9414ZM36.2898 22.9327C36.2898 23.1245 36.233 23.3119 36.1265 23.4713C36.02 23.6308 35.8686 23.7551 35.6914 23.8285C35.5143 23.9019 35.3194 23.9211 35.1313 23.8837C34.9433 23.8463 34.7705 23.7539 34.6349 23.6184C34.4993 23.4828 34.407 23.31 34.3696 23.122C34.3322 22.9339 34.3514 22.739 34.4248 22.5619C34.4982 22.3847 34.6225 22.2333 34.7819 22.1268C34.9414 22.0203 35.1288 21.9635 35.3206 21.9635C35.5776 21.9635 35.8242 22.0656 36.006 22.2474C36.1877 22.4291 36.2897 22.6757 36.2898 22.9327ZM34.0896 7.72497C34.1818 7.56539 34.3046 7.42554 34.4508 7.31339C34.5971 7.20125 34.764 7.11901 34.9421 7.07137C35.1201 7.02373 35.3058 7.01163 35.4885 7.03576C35.6712 7.05988 35.8474 7.11976 36.007 7.21197C36.1666 7.30418 36.3064 7.42693 36.4186 7.57319C36.5307 7.71945 36.613 7.88637 36.6606 8.06441C36.7082 8.24246 36.7203 8.42814 36.6962 8.61086C36.6721 8.79359 36.6122 8.96977 36.52 9.12935C36.3338 9.45163 36.0271 9.68674 35.6676 9.78295C35.308 9.87916 34.9249 9.82858 34.6026 9.64235C34.2803 9.45612 34.0452 9.14948 33.949 8.78991C33.8528 8.43033 33.9034 8.04726 34.0896 7.72497ZM23.9084 27.5516C23.9268 27.5177 23.9517 27.4878 23.9819 27.4636C24.012 27.4395 24.0467 27.4217 24.0838 27.4112C24.1209 27.4007 24.1598 27.3978 24.1981 27.4025C24.2364 27.4073 24.2733 27.4197 24.3067 27.439C24.3402 27.4583 24.3694 27.4841 24.3926 27.5149C24.4159 27.5457 24.4328 27.5808 24.4422 27.6183C24.4517 27.6557 24.4536 27.6946 24.4477 27.7327C24.4419 27.7709 24.4285 27.8075 24.4083 27.8403C24.3689 27.9044 24.306 27.9506 24.2331 27.969C24.1602 27.9874 24.083 27.9767 24.0179 27.9391C23.9528 27.9015 23.9049 27.8399 23.8844 27.7676C23.864 27.6952 23.8726 27.6177 23.9084 27.5516ZM29.1653 11.0681C29.1946 10.9513 29.2469 10.8415 29.319 10.7451C29.3912 10.6487 29.4818 10.5676 29.5855 10.5066C29.6893 10.4455 29.8042 10.4057 29.9235 10.3895C30.0428 10.3732 30.1642 10.3809 30.2805 10.412C30.3968 10.4431 30.5058 10.4971 30.601 10.5707C30.6963 10.6443 30.776 10.7362 30.8354 10.8409C30.8949 10.9456 30.9329 11.0611 30.9473 11.1806C30.9616 11.3002 30.9521 11.4214 30.9192 11.5372C30.8884 11.6524 30.8352 11.7605 30.7627 11.8551C30.6901 11.9498 30.5996 12.0292 30.4964 12.0889C30.3931 12.1486 30.2791 12.1873 30.1609 12.203C30.0427 12.2186 29.9225 12.2108 29.8073 12.18C29.5748 12.1176 29.3766 11.9654 29.2562 11.7569C29.1358 11.5484 29.1031 11.3007 29.1653 11.0681ZM26.9215 15.1487C26.7683 15.1487 26.6214 15.0878 26.513 14.9795C26.4047 14.8711 26.3438 14.7242 26.3438 14.571C26.3438 14.4178 26.4047 14.2708 26.513 14.1625C26.6214 14.0541 26.7683 13.9933 26.9215 13.9933C27.0747 13.9933 27.2217 14.0541 27.33 14.1625C27.4383 14.2708 27.4992 14.4178 27.4992 14.571C27.4992 14.7242 27.4383 14.8711 27.33 14.9795C27.2217 15.0878 27.0747 15.1487 26.9215 15.1487ZM26.9215 17.0478C26.9713 17.0462 27.0209 17.0547 27.0673 17.0726C27.1138 17.0905 27.1562 17.1176 27.1919 17.1522C27.2277 17.1869 27.2562 17.2283 27.2756 17.2742C27.2951 17.32 27.3051 17.3693 27.3051 17.4191C27.3051 17.4689 27.2952 17.5182 27.2758 17.564C27.2564 17.6099 27.228 17.6514 27.1922 17.6861C27.1565 17.7207 27.1141 17.7479 27.0677 17.7658C27.0212 17.7838 26.9717 17.7923 26.9219 17.7907C26.8254 17.7877 26.7339 17.7473 26.6667 17.678C26.5995 17.6087 26.5619 17.516 26.5619 17.4195C26.5618 17.3229 26.5993 17.2302 26.6664 17.1608C26.7336 17.0915 26.825 17.051 26.9215 17.0478ZM26.9215 11.7228C26.7025 11.7228 26.4924 11.6358 26.3375 11.4809C26.1826 11.326 26.0956 11.116 26.0956 10.8969C26.0956 10.6779 26.1826 10.4678 26.3375 10.3129C26.4924 10.158 26.7025 10.071 26.9215 10.071C27.1406 10.071 27.3506 10.158 27.5055 10.3129C27.6604 10.4678 27.7474 10.6779 27.7474 10.8969C27.7474 11.116 27.6604 11.326 27.5055 11.4809C27.3506 11.6358 27.1406 11.7228 26.9215 11.7228ZM23.908 18.3142C23.8794 18.2648 23.8662 18.2079 23.8699 18.1509C23.8736 18.0939 23.8942 18.0393 23.9289 17.994C23.9637 17.9487 24.0112 17.9147 24.0652 17.8963C24.1193 17.878 24.1777 17.8761 24.2328 17.8909C24.288 17.9057 24.3376 17.9365 24.3752 17.9795C24.4129 18.0225 24.4369 18.0756 24.4443 18.1323C24.4517 18.1889 24.4422 18.2465 24.4169 18.2977C24.3916 18.3489 24.3516 18.3915 24.3021 18.42C24.2693 18.439 24.2331 18.4513 24.1955 18.4562C24.1579 18.4612 24.1197 18.4587 24.0831 18.4489C24.0465 18.439 24.0122 18.4221 23.9822 18.399C23.9521 18.3759 23.9269 18.3471 23.908 18.3142ZM26.9215 28.818C26.872 28.8191 26.8228 28.8103 26.7767 28.7922C26.7307 28.774 26.6887 28.7468 26.6533 28.7122C26.6179 28.6776 26.5898 28.6363 26.5706 28.5907C26.5514 28.545 26.5415 28.496 26.5414 28.4465C26.5414 28.397 26.5513 28.348 26.5705 28.3024C26.5897 28.2568 26.6178 28.2154 26.6532 28.1808C26.6886 28.1462 26.7305 28.119 26.7766 28.1008C26.8226 28.0826 26.8718 28.0738 26.9213 28.0749C27.0199 28.0749 27.1144 28.1141 27.1841 28.1838C27.2538 28.2535 27.2929 28.348 27.2929 28.4465C27.2929 28.5451 27.2538 28.6396 27.1841 28.7093C27.1144 28.779 27.0201 28.818 26.9215 28.818ZM26.9215 30.7168C27.0748 30.7168 27.2218 30.7777 27.3302 30.8861C27.4386 30.9945 27.4995 31.1415 27.4995 31.2948C27.4995 31.448 27.4386 31.5951 27.3302 31.7034C27.2218 31.8118 27.0748 31.8727 26.9215 31.8727C26.7682 31.8727 26.6212 31.8118 26.5128 31.7034C26.4044 31.5951 26.3435 31.448 26.3435 31.2948C26.3435 31.1415 26.4044 30.9945 26.5128 30.8861C26.6212 30.7777 26.7682 30.7168 26.9215 30.7168ZM33.4735 26.7078C33.5277 26.6139 33.5998 26.5316 33.6858 26.4656C33.7718 26.3996 33.87 26.3512 33.9747 26.3231C34.0795 26.2951 34.1887 26.288 34.2962 26.3022C34.4037 26.3164 34.5073 26.3517 34.6011 26.406C34.695 26.4602 34.7773 26.5323 34.8433 26.6183C34.9093 26.7043 34.9577 26.8024 34.9857 26.9071C35.0137 27.0118 35.0209 27.121 35.0067 27.2285C34.9925 27.336 34.9573 27.4396 34.903 27.5334C34.7935 27.723 34.6132 27.8613 34.4018 27.9179C34.1903 27.9745 33.965 27.9449 33.7755 27.8354C33.5859 27.7259 33.4476 27.5456 33.391 27.3342C33.3343 27.1227 33.364 26.8974 33.4735 26.7078ZM26.9215 34.1432C27.1405 34.1432 27.3505 34.2303 27.5053 34.3851C27.6602 34.54 27.7471 34.7501 27.7471 34.9691C27.747 35.1881 27.66 35.3981 27.5051 35.5529C27.3502 35.7078 27.1401 35.7947 26.9211 35.7947C26.7021 35.7946 26.4921 35.7076 26.3373 35.5527C26.1825 35.3978 26.0955 35.1877 26.0956 34.9687C26.0956 34.7497 26.1827 34.5397 26.3376 34.3849C26.4925 34.2301 26.7025 34.1431 26.9215 34.1432ZM44.8788 18.1258C45.1381 19.094 44.5638 20.09 43.5948 20.3495C42.6263 20.6088 41.6301 20.0338 41.3708 19.0653C41.1109 18.0971 41.6862 17.1013 42.6546 16.8416C43.6231 16.5821 44.6189 17.1566 44.8788 18.1258ZM32.3275 29.3792C32.1888 29.2397 32.1111 29.051 32.1113 28.8543C32.1115 28.6577 32.1897 28.4691 32.3287 28.33C32.4677 28.1908 32.6562 28.1125 32.8528 28.1121C33.0495 28.1117 33.2383 28.1893 33.3779 28.3278C33.4469 28.3968 33.5016 28.4787 33.539 28.5688C33.5763 28.6589 33.5955 28.7555 33.5955 28.853C33.5955 28.9506 33.5763 29.0472 33.539 29.1373C33.5016 29.2274 33.4469 29.3093 33.3779 29.3782C33.309 29.4473 33.2272 29.5022 33.1371 29.5396C33.047 29.5771 32.9504 29.5964 32.8529 29.5965C32.7553 29.5966 32.6587 29.5774 32.5686 29.5401C32.4784 29.5028 32.3965 29.4481 32.3275 29.3792ZM34.153 20.999C34.1222 20.8839 34.1143 20.7638 34.1299 20.6456C34.1454 20.5275 34.1841 20.4135 34.2438 20.3103C34.3034 20.2071 34.3827 20.1166 34.4773 20.0441C34.5719 19.9715 34.6799 19.9183 34.795 19.8875C34.9102 19.8567 35.0303 19.8488 35.1484 19.8643C35.2666 19.8799 35.3806 19.9186 35.4839 19.9782C35.5871 20.0378 35.6776 20.1171 35.7502 20.2117C35.8228 20.3063 35.876 20.4142 35.9069 20.5293C35.9377 20.6445 35.9456 20.7646 35.9301 20.8828C35.9145 21.001 35.8759 21.115 35.8163 21.2182C35.7567 21.3215 35.6773 21.412 35.5827 21.4845C35.4882 21.5571 35.3802 21.6104 35.2651 21.6412C35.1499 21.6721 35.0298 21.68 34.9115 21.6645C34.7933 21.6489 34.6793 21.6102 34.576 21.5506C34.4728 21.4909 34.3823 21.4115 34.3097 21.3169C34.2372 21.2222 34.1838 21.1142 34.153 20.999ZM36.7923 15.9071C37.0574 15.7591 37.3701 15.7213 37.6629 15.802C37.9556 15.8827 38.2048 16.0753 38.3567 16.3383C38.5086 16.6012 38.5509 16.9134 38.4745 17.2073C38.3981 17.5011 38.2091 17.7532 37.9484 17.9088C37.6832 18.0569 37.3705 18.0946 37.0778 18.0139C36.785 17.9332 36.5358 17.7406 36.3839 17.4777C36.2321 17.2147 36.1898 16.9026 36.2662 16.6087C36.3426 16.3148 36.5316 16.0628 36.7923 15.9071ZM36.2095 15.1734C36.1099 15.2731 35.9916 15.3522 35.8613 15.4062C35.7311 15.4601 35.5916 15.4879 35.4506 15.4879C35.3096 15.4879 35.1701 15.4601 35.0399 15.4062C34.9096 15.3522 34.7913 15.2731 34.6917 15.1734C34.592 15.0737 34.5129 14.9554 34.459 14.8251C34.405 14.6949 34.3772 14.5553 34.3772 14.4143C34.3772 14.2733 34.405 14.1337 34.459 14.0035C34.5129 13.8732 34.592 13.7549 34.6917 13.6552C34.7913 13.5555 34.9096 13.4764 35.0399 13.4225C35.1701 13.3685 35.3096 13.3407 35.4506 13.3407C35.5916 13.3407 35.7311 13.3685 35.8613 13.4225C35.9916 13.4764 36.1099 13.5555 36.2095 13.6552C36.3092 13.7549 36.3883 13.8732 36.4422 14.0035C36.4962 14.1337 36.524 14.2733 36.524 14.4143C36.524 14.5553 36.4962 14.6949 36.4422 14.8251C36.3883 14.9554 36.3092 15.0737 36.2095 15.1734ZM34.153 24.8657C34.1839 24.7505 34.2372 24.6425 34.3098 24.5479C34.3824 24.4534 34.4729 24.374 34.5762 24.3144C34.6795 24.2548 34.7935 24.2161 34.9117 24.2006C35.03 24.1851 35.1501 24.193 35.2653 24.2238C35.3804 24.2547 35.4884 24.308 35.583 24.3806C35.6776 24.4532 35.7569 24.5438 35.8165 24.647C35.8761 24.7503 35.9148 24.8643 35.9303 24.9826C35.9459 25.1008 35.938 25.2209 35.9071 25.3361C35.8762 25.4513 35.8229 25.5592 35.7503 25.6538C35.6776 25.7484 35.5871 25.8277 35.4838 25.8873C35.3805 25.9469 35.2665 25.9856 35.1483 26.0011C35.03 26.0166 34.9099 26.0087 34.7947 25.9778C34.6796 25.9469 34.5716 25.8936 34.477 25.821C34.3824 25.7484 34.3031 25.6578 34.2435 25.5545C34.1839 25.4513 34.1452 25.3372 34.1297 25.219C34.1142 25.1008 34.1221 24.9808 34.153 24.8657ZM28.4931 14.6913C28.5356 14.5329 28.6393 14.3977 28.7814 14.3156C28.9234 14.2335 29.0923 14.2111 29.2508 14.2533C29.4071 14.2979 29.5396 14.402 29.6198 14.5434C29.7 14.6847 29.7214 14.8519 29.6794 15.0089C29.6374 15.1659 29.5354 15.3001 29.3954 15.3826C29.2554 15.465 29.0886 15.4892 28.9309 15.4498C28.7723 15.4072 28.6371 15.3035 28.555 15.1612C28.4729 15.019 28.4506 14.85 28.4931 14.6913ZM40.6199 13.1257C41.4098 12.6693 42.4199 12.9397 42.8757 13.7291C42.9841 13.9169 43.0545 14.1242 43.0828 14.3392C43.1112 14.5542 43.0968 14.7727 43.0407 14.9822C42.9846 15.1916 42.8878 15.388 42.7558 15.5601C42.6238 15.7321 42.4592 15.8765 42.2714 15.9849C42.0836 16.0933 41.8763 16.1637 41.6613 16.1921C41.4463 16.2204 41.2278 16.2061 41.0183 16.1499C40.8088 16.0938 40.6125 15.997 40.4404 15.865C40.2684 15.733 40.124 15.5684 40.0156 15.3806C39.5601 14.5912 39.8305 13.5815 40.6199 13.1257ZM34.903 18.3326C34.9572 18.4265 34.9924 18.5301 35.0065 18.6375C35.0207 18.745 35.0135 18.8542 34.9855 18.9589C34.9574 19.0636 34.909 19.1617 34.8431 19.2477C34.7771 19.3337 34.6948 19.4058 34.6009 19.46C34.5071 19.5142 34.4035 19.5494 34.296 19.5636C34.1885 19.5777 34.0794 19.5706 33.9747 19.5425C33.87 19.5145 33.7718 19.4661 33.6858 19.4001C33.5999 19.3341 33.5277 19.2518 33.4735 19.158C33.4193 19.0641 33.3841 18.9605 33.37 18.853C33.3558 18.7456 33.363 18.6364 33.391 18.5317C33.4191 18.427 33.4675 18.3289 33.5335 18.2429C33.5994 18.1569 33.6817 18.0847 33.7756 18.0305C33.8694 17.9763 33.973 17.9412 34.0805 17.927C34.188 17.9129 34.2972 17.92 34.4018 17.9481C34.5065 17.9761 34.6047 18.0245 34.6907 18.0905C34.7767 18.1565 34.8488 18.2387 34.903 18.3326ZM37.3831 20.1341C37.2981 19.8169 37.3426 19.479 37.5067 19.1946C37.6707 18.9102 37.941 18.7026 38.2581 18.6174C38.5735 18.538 38.9073 18.5859 39.1877 18.7506C39.4681 18.9153 39.6724 19.1837 39.7566 19.4977C39.8408 19.8118 39.7981 20.1464 39.6377 20.4292C39.4773 20.7121 39.2121 20.9205 38.8994 21.0095C38.5822 21.0944 38.2443 21.0498 37.9599 20.8856C37.6756 20.7215 37.4681 20.4512 37.3831 20.1341ZM37.3831 25.7317C37.424 25.5734 37.4958 25.4248 37.5945 25.2944C37.6931 25.164 37.8166 25.0544 37.9578 24.972C38.0991 24.8896 38.2552 24.836 38.4173 24.8142C38.5794 24.7925 38.7441 24.8031 38.9021 24.8454C39.06 24.8877 39.208 24.9609 39.3375 25.0607C39.467 25.1605 39.5755 25.285 39.6567 25.4269C39.7378 25.5689 39.79 25.7255 39.8103 25.8877C39.8306 26.05 39.8185 26.2147 39.7748 26.3722C39.7328 26.5293 39.6602 26.6765 39.5612 26.8055C39.4623 26.9345 39.3389 27.0427 39.1981 27.124C39.0573 27.2053 38.9019 27.2581 38.7407 27.2794C38.5795 27.3006 38.4157 27.2899 38.2587 27.2478C38.1017 27.2058 37.9544 27.1332 37.8254 27.0343C37.6964 26.9353 37.5882 26.8119 37.5069 26.6711C37.4256 26.5303 37.3728 26.3749 37.3515 26.2137C37.3303 26.0526 37.341 25.8888 37.3831 25.7317ZM38.9944 24.3528C38.806 24.3559 38.6189 24.3215 38.4439 24.2515C38.269 24.1816 38.1097 24.0775 37.9753 23.9453C37.841 23.8132 37.7343 23.6557 37.6614 23.4819C37.5886 23.3081 37.5511 23.1215 37.5511 22.9331C37.551 22.7447 37.5885 22.5581 37.6613 22.3843C37.7341 22.2105 37.8408 22.0529 37.9751 21.9207C38.1094 21.7886 38.2686 21.6844 38.4436 21.6144C38.6185 21.5444 38.8057 21.5099 38.9941 21.513C39.3667 21.519 39.722 21.6712 39.9834 21.9368C40.2447 22.2024 40.3913 22.5601 40.3913 22.9327C40.3914 23.3054 40.2449 23.6631 39.9836 23.9288C39.7223 24.1944 39.367 24.3467 38.9944 24.3528ZM37.7277 12.1374C37.5896 11.9995 37.4801 11.8357 37.4054 11.6554C37.3307 11.4751 37.2922 11.2819 37.2922 11.0868C37.2922 10.8916 37.3307 10.6984 37.4054 10.5181C37.4801 10.3378 37.5896 10.174 37.7277 10.0361C38.308 9.45579 39.2493 9.45485 39.8294 10.0361C40.1017 10.3161 40.2529 10.6921 40.2502 11.0827C40.2475 11.4733 40.0911 11.8471 39.8149 12.1233C39.5386 12.3994 39.1648 12.5558 38.7742 12.5584C38.3836 12.5611 38.0076 12.4098 37.7277 12.1374ZM31.6859 16.0149C31.6425 16.09 31.5848 16.1558 31.516 16.2086C31.4471 16.2614 31.3686 16.3001 31.2848 16.3225C31.2011 16.345 31.1137 16.3507 31.0277 16.3394C30.9417 16.328 30.8588 16.2999 30.7837 16.2565C30.7086 16.2131 30.6428 16.1554 30.59 16.0866C30.5372 16.0178 30.4985 15.9392 30.4761 15.8555C30.4537 15.7717 30.4479 15.6843 30.4593 15.5983C30.4706 15.5124 30.4988 15.4294 30.5421 15.3543C30.6305 15.2042 30.7746 15.0951 30.943 15.0507C31.1115 15.0063 31.2906 15.0303 31.4415 15.1174C31.5923 15.2045 31.7026 15.3477 31.7484 15.5157C31.7942 15.6838 31.7717 15.8633 31.6859 16.0149ZM30.4883 26.489C30.5343 26.4429 30.5889 26.4064 30.649 26.3814C30.7091 26.3564 30.7735 26.3435 30.8386 26.3434C30.9037 26.3433 30.9682 26.3561 31.0283 26.381C31.0885 26.4058 31.1431 26.4423 31.1892 26.4883C31.282 26.5813 31.3341 26.7073 31.3341 26.8387C31.3341 26.9701 31.282 27.0961 31.1892 27.1892C31.1432 27.2353 31.0886 27.2719 31.0285 27.2969C30.9684 27.3219 30.9039 27.3347 30.8388 27.3347C30.7736 27.3347 30.7092 27.3219 30.649 27.2969C30.5889 27.2719 30.5343 27.2353 30.4883 27.1892C30.4423 27.1432 30.4057 27.0887 30.3808 27.0286C30.3559 26.9685 30.3431 26.9041 30.3431 26.8391C30.3431 26.7741 30.3559 26.7097 30.3808 26.6496C30.4057 26.5895 30.4423 26.535 30.4883 26.489ZM30.4883 18.6767C30.5343 18.6306 30.5889 18.594 30.649 18.569C30.7091 18.544 30.7735 18.5311 30.8386 18.531C30.9037 18.531 30.9682 18.5437 31.0283 18.5686C31.0885 18.5934 31.1431 18.6299 31.1892 18.6759C31.2585 18.7451 31.3057 18.8334 31.3249 18.9294C31.3441 19.0255 31.3344 19.1251 31.297 19.2156C31.2595 19.3061 31.1961 19.3835 31.1147 19.438C31.0333 19.4925 30.9376 19.5217 30.8397 19.5218C30.7417 19.5219 30.6459 19.493 30.5644 19.4386C30.4829 19.3843 30.4193 19.307 30.3817 19.2166C30.3441 19.1261 30.3342 19.0266 30.3531 18.9305C30.3721 18.8343 30.4192 18.746 30.4883 18.6767ZM31.4532 26.1611C31.3301 26.0898 31.2402 25.9726 31.2033 25.8352C31.1664 25.6978 31.1855 25.5514 31.2563 25.428C31.2916 25.3669 31.3385 25.3134 31.3945 25.2705C31.4504 25.2276 31.5143 25.1961 31.5824 25.1779C31.6505 25.1597 31.7216 25.1551 31.7915 25.1643C31.8614 25.1736 31.9288 25.1965 31.9898 25.2318C32.1082 25.3054 32.1933 25.4221 32.2272 25.5573C32.2611 25.6925 32.2411 25.8356 32.1714 25.9563C32.1017 26.077 31.9878 26.1658 31.8537 26.204C31.7197 26.2423 31.5761 26.2269 31.4532 26.1611ZM30.5419 30.5117C30.4985 30.4366 30.4704 30.3536 30.459 30.2677C30.4477 30.1817 30.4534 30.0943 30.4759 30.0105C30.4984 29.9267 30.5371 29.8482 30.59 29.7794C30.6428 29.7106 30.7087 29.6529 30.7838 29.6096C30.8589 29.5662 30.9418 29.538 31.0278 29.5266C31.1138 29.5153 31.2011 29.521 31.2849 29.5434C31.3687 29.5658 31.4472 29.6045 31.516 29.6573C31.5848 29.7101 31.6425 29.776 31.6859 29.8511C31.7293 29.9262 31.7575 30.0091 31.7688 30.0951C31.7802 30.1811 31.7744 30.2684 31.752 30.3522C31.7296 30.436 31.6908 30.5145 31.638 30.5833C31.5852 30.6521 31.5193 30.7098 31.4442 30.7532C31.3691 30.7965 31.2862 30.8247 31.2002 30.8361C31.1143 30.8474 31.0269 30.8417 30.9431 30.8193C30.8594 30.7969 30.7808 30.7581 30.712 30.7054C30.6432 30.6526 30.5853 30.5868 30.5419 30.5117ZM32.1863 19.901C32.2216 19.9621 32.2445 20.0294 32.2537 20.0993C32.2629 20.1692 32.2582 20.2402 32.24 20.3082C32.2217 20.3763 32.1903 20.4401 32.1473 20.496C32.1044 20.5519 32.0509 20.5988 31.9898 20.634C31.8664 20.7049 31.72 20.7241 31.5825 20.6872C31.445 20.6504 31.3278 20.5605 31.2565 20.4373C31.187 20.3141 31.1689 20.1684 31.2062 20.032C31.2435 19.8955 31.3331 19.7793 31.4557 19.7086C31.5782 19.6379 31.7237 19.6185 31.8605 19.6545C31.9973 19.6906 32.1145 19.7792 32.1863 19.901ZM31.7204 21.6512C31.6807 21.5031 31.7015 21.3453 31.7781 21.2126C31.8547 21.0798 31.981 20.9829 32.129 20.9433C32.2771 20.9036 32.4349 20.9243 32.5676 21.001C32.7004 21.0776 32.7973 21.2038 32.8369 21.3519C32.8566 21.4252 32.8616 21.5017 32.8517 21.5769C32.8418 21.6522 32.8172 21.7248 32.7792 21.7905C32.7413 21.8562 32.6908 21.9139 32.6305 21.9601C32.5703 22.0063 32.5016 22.0402 32.4283 22.0598C32.355 22.0795 32.2785 22.0845 32.2033 22.0746C32.128 22.0647 32.0554 22.04 31.9897 22.0021C31.924 21.9642 31.8663 21.9136 31.8201 21.8534C31.7739 21.7932 31.74 21.7245 31.7204 21.6512ZM31.7204 24.2139C31.7389 24.1393 31.7721 24.0691 31.818 24.0075C31.864 23.9459 31.9218 23.894 31.988 23.855C32.0542 23.816 32.1276 23.7905 32.2038 23.7802C32.28 23.7699 32.3574 23.7749 32.4317 23.7948C32.5059 23.8148 32.5754 23.8494 32.6361 23.8966C32.6968 23.9437 32.7475 24.0025 32.7852 24.0695C32.8229 24.1365 32.8469 24.2104 32.8557 24.2867C32.8645 24.3631 32.858 24.4405 32.8366 24.5143C32.7944 24.6596 32.6968 24.7826 32.565 24.8568C32.4331 24.931 32.2774 24.9506 32.1312 24.9112C31.9851 24.8719 31.8602 24.7769 31.7834 24.6465C31.7066 24.5161 31.684 24.3608 31.7204 24.2139ZM32.4719 23.5638C32.3881 23.5653 32.3049 23.55 32.227 23.5189C32.1492 23.4879 32.0784 23.4416 32.0186 23.3829C31.9589 23.3241 31.9114 23.254 31.879 23.1768C31.8466 23.0995 31.83 23.0165 31.83 22.9327C31.83 22.8489 31.8467 22.766 31.8791 22.6887C31.9115 22.6114 31.959 22.5414 32.0188 22.4826C32.0785 22.4239 32.1494 22.3777 32.2272 22.3466C32.305 22.3156 32.3883 22.3003 32.4721 22.3018C32.6375 22.3047 32.7953 22.3724 32.9113 22.4905C33.0273 22.6085 33.0922 22.7674 33.0922 22.9329C33.0922 23.0984 33.0272 23.2573 32.9111 23.3753C32.7951 23.4933 32.6374 23.561 32.4719 23.5638ZM33.3779 16.4868C33.4469 16.5558 33.5017 16.6377 33.5391 16.7278C33.5765 16.818 33.5958 16.9146 33.5958 17.0122C33.5959 17.1098 33.5767 17.2064 33.5394 17.2966C33.5021 17.3868 33.4474 17.4687 33.3784 17.5378C33.3095 17.6068 33.2276 17.6616 33.1374 17.699C33.0473 17.7364 32.9507 17.7557 32.8531 17.7557C32.7555 17.7558 32.6589 17.7366 32.5687 17.6993C32.4785 17.662 32.3965 17.6073 32.3275 17.5383C32.1881 17.3991 32.1097 17.2101 32.1096 17.013C32.1095 16.8159 32.1877 16.6268 32.3269 16.4874C32.4662 16.348 32.6552 16.2696 32.8523 16.2695C33.0494 16.2694 33.2384 16.3476 33.3779 16.4868ZM19.4729 37.9569C19.3304 38.2033 19.0959 38.383 18.821 38.4567C18.5461 38.5304 18.2532 38.492 18.0066 38.3499C17.7657 38.2048 17.5914 37.9708 17.5211 37.6985C17.4508 37.4261 17.4903 37.1371 17.6309 36.8935C17.7715 36.6499 18.0022 36.4712 18.2732 36.3959C18.5442 36.3206 18.8339 36.3546 19.0801 36.4907C19.3266 36.633 19.5065 36.8674 19.5802 37.1424C19.6539 37.4174 19.6152 37.7104 19.4729 37.9569ZM28.4609 17.2044C28.5142 17.2176 28.5643 17.2412 28.6084 17.274C28.6524 17.3068 28.6895 17.348 28.7174 17.3953C28.7453 17.4426 28.7635 17.495 28.771 17.5494C28.7784 17.6038 28.7749 17.6591 28.7607 17.7121C28.7465 17.7652 28.7218 17.8148 28.6882 17.8582C28.6545 17.9016 28.6126 17.9379 28.5648 17.9649C28.5169 17.9918 28.4642 18.009 28.4097 18.0153C28.3551 18.0217 28.2999 18.0171 28.2471 18.0018C28.1414 17.9735 28.0512 17.9043 27.9964 17.8095C27.9417 17.7146 27.9268 17.6019 27.9552 17.4962C27.9835 17.3904 28.0527 17.3002 28.1476 17.2455C28.2424 17.1907 28.3551 17.1761 28.4609 17.2044ZM23.7008 39.398C23.6625 39.5457 23.5954 39.6843 23.5032 39.8059C23.4111 39.9275 23.2958 40.0296 23.164 40.1064C23.0322 40.1832 22.8866 40.2332 22.7354 40.2534C22.5842 40.2736 22.4305 40.2637 22.2831 40.2243C22.1358 40.1848 21.9977 40.1166 21.8768 40.0235C21.756 39.9304 21.6548 39.8143 21.579 39.6819C21.5032 39.5495 21.4544 39.4034 21.4354 39.2521C21.4163 39.1007 21.4275 38.9471 21.4681 38.8001C21.5485 38.5052 21.7424 38.2542 22.0074 38.102C22.2724 37.9497 22.587 37.9087 22.8822 37.9877C23.1774 38.0668 23.4293 38.2596 23.5827 38.524C23.7361 38.7883 23.7786 39.1025 23.7008 39.398ZM28.4609 28.6618C28.3561 28.6869 28.2457 28.6702 28.1532 28.6151C28.0606 28.56 27.9932 28.4709 27.9654 28.3669C27.9376 28.2628 27.9515 28.152 28.0042 28.058C28.0569 27.9641 28.1442 27.8945 28.2475 27.864C28.2999 27.85 28.3545 27.8464 28.4082 27.8535C28.462 27.8606 28.5138 27.8782 28.5608 27.9053C28.6077 27.9325 28.6488 27.9686 28.6818 28.0116C28.7148 28.0546 28.739 28.1037 28.753 28.1561C28.767 28.2085 28.7706 28.2631 28.7635 28.3168C28.7564 28.3706 28.7388 28.4224 28.7116 28.4693C28.6845 28.5163 28.6484 28.5574 28.6054 28.5904C28.5624 28.6234 28.5133 28.6478 28.4609 28.6618ZM28.1601 39.6754C28.1601 39.8379 28.1281 39.9989 28.0658 40.1491C28.0036 40.2993 27.9124 40.4358 27.7974 40.5507C27.6824 40.6657 27.5459 40.7569 27.3957 40.8191C27.2455 40.8812 27.0845 40.9132 26.9219 40.9132C26.7593 40.9133 26.5982 40.8813 26.448 40.8192C26.2977 40.757 26.1612 40.6658 26.0461 40.5509C25.9311 40.4359 25.8399 40.2994 25.7776 40.1492C25.7153 39.999 25.6833 39.838 25.6833 39.6754C25.6833 38.9912 26.2381 38.4363 26.9219 38.4363C27.6057 38.4363 28.1601 38.9913 28.1601 39.6754ZM25.4052 28.5722C25.3207 28.5493 25.2486 28.4939 25.2048 28.4181C25.161 28.3423 25.149 28.2522 25.1714 28.1675C25.1943 28.083 25.2497 28.0109 25.3257 27.9671C25.4016 27.9234 25.4917 27.9115 25.5764 27.9341C25.661 27.9568 25.7331 28.0122 25.7769 28.0881C25.8207 28.1639 25.8325 28.2541 25.8098 28.3387C25.7871 28.4233 25.7317 28.4955 25.6559 28.5392C25.58 28.583 25.4898 28.5949 25.4052 28.5722ZM25.2717 31.1432C25.2561 31.214 25.2263 31.2809 25.1842 31.3399C25.142 31.3989 25.0883 31.4488 25.0264 31.4865C24.9644 31.5242 24.8955 31.5489 24.8237 31.5592C24.7519 31.5695 24.6788 31.5652 24.6087 31.5464C24.5387 31.5277 24.4731 31.495 24.4161 31.4502C24.359 31.4054 24.3116 31.3496 24.2767 31.286C24.2419 31.2224 24.2202 31.1524 24.2132 31.0802C24.2061 31.008 24.2137 30.9352 24.2356 30.866C24.2772 30.7343 24.3681 30.6236 24.4893 30.5572C24.6105 30.4907 24.7526 30.4736 24.8861 30.5093C25.0196 30.545 25.1342 30.6308 25.206 30.7489C25.2779 30.867 25.3014 31.0082 25.2717 31.1432ZM20.0311 26.882C20.0822 26.9766 20.0945 27.0874 20.0652 27.1908C20.036 27.2943 19.9675 27.3822 19.8745 27.436C19.7814 27.4898 19.671 27.5051 19.5667 27.4788C19.4625 27.4524 19.3727 27.3865 19.3163 27.2949C19.2891 27.248 19.2714 27.1962 19.2643 27.1425C19.2572 27.0888 19.2607 27.0342 19.2747 26.9818C19.2888 26.9295 19.313 26.8804 19.346 26.8375C19.3791 26.7945 19.4203 26.7585 19.4673 26.7315C19.5141 26.7043 19.5659 26.6866 19.6197 26.6794C19.6734 26.6723 19.728 26.6758 19.7804 26.6898C19.8328 26.7038 19.8819 26.7279 19.9249 26.7609C19.9679 26.7939 20.004 26.8351 20.0311 26.882ZM23.1631 30.4102C23.131 30.4674 23.0879 30.5176 23.0363 30.5579C22.9847 30.5983 22.9256 30.628 22.8624 30.6454C22.7992 30.6628 22.7332 30.6674 22.6682 30.6591C22.6032 30.6508 22.5405 30.6297 22.4838 30.597C22.427 30.5642 22.3773 30.5206 22.3375 30.4685C22.2977 30.4165 22.2687 30.357 22.252 30.2937C22.2353 30.2303 22.2314 30.1642 22.2405 30.0993C22.2495 30.0345 22.2713 29.972 22.3047 29.9156C22.3711 29.8033 22.479 29.7218 22.6052 29.6886C22.7313 29.6555 22.8654 29.6734 22.9784 29.7385C23.0914 29.8036 23.1742 29.9107 23.2088 30.0364C23.2433 30.1622 23.2269 30.2965 23.1631 30.4102ZM23.1908 26.9878C23.1678 27.0108 23.1405 27.029 23.1104 27.0415C23.0804 27.054 23.0481 27.0604 23.0156 27.0604C22.9831 27.0604 22.9508 27.054 22.9208 27.0415C22.8907 27.029 22.8634 27.0108 22.8404 26.9878C22.8174 26.9648 22.7991 26.9375 22.7867 26.9074C22.7742 26.8773 22.7678 26.8451 22.7678 26.8126C22.7678 26.78 22.7742 26.7478 22.7867 26.7177C22.7991 26.6877 22.8174 26.6604 22.8404 26.6373C22.887 26.5911 22.95 26.5652 23.0157 26.5652C23.0814 26.5652 23.1444 26.5911 23.191 26.6373C23.2374 26.6839 23.2634 26.7469 23.2634 26.8127C23.2634 26.8784 23.2372 26.9412 23.1908 26.9878ZM21.3222 28.5065C21.3659 28.5483 21.4008 28.5984 21.4249 28.6539C21.4489 28.7093 21.4617 28.7691 21.4624 28.8295C21.463 28.89 21.4516 28.95 21.4287 29.0059C21.4059 29.0619 21.3721 29.1128 21.3293 29.1555C21.2866 29.1982 21.2357 29.232 21.1797 29.2548C21.1237 29.2776 21.0637 29.2889 21.0032 29.2882C20.9428 29.2875 20.8831 29.2747 20.8276 29.2506C20.7722 29.2265 20.7221 29.1915 20.6804 29.1478C20.6383 29.1057 20.6049 29.0557 20.5821 29.0007C20.5593 28.9457 20.5475 28.8867 20.5475 28.8272C20.5475 28.7676 20.5593 28.7086 20.5821 28.6536C20.6049 28.5986 20.6383 28.5486 20.6804 28.5065C20.7225 28.4643 20.7725 28.4308 20.8276 28.408C20.8826 28.3851 20.9417 28.3733 21.0013 28.3733C21.0609 28.3733 21.1199 28.3851 21.175 28.408C21.2301 28.4308 21.2801 28.4643 21.3222 28.5065ZM21.469 33.6746C21.4257 33.7498 21.368 33.8157 21.2992 33.8685C21.2304 33.9213 21.1519 33.9601 21.0681 33.9826C20.9843 34.005 20.8969 34.0107 20.8109 33.9993C20.7249 33.988 20.642 33.9597 20.5669 33.9163C20.4538 33.851 20.3626 33.7536 20.3049 33.6365C20.2471 33.5193 20.2253 33.3877 20.2424 33.2582C20.2594 33.1287 20.3145 33.0072 20.4006 32.909C20.4868 32.8108 20.6001 32.7403 20.7262 32.7065C20.8524 32.6727 20.9857 32.6771 21.1094 32.7191C21.2331 32.761 21.3415 32.8388 21.421 32.9424C21.5006 33.046 21.5475 33.1709 21.5561 33.3012C21.5646 33.4316 21.5343 33.5615 21.469 33.6746ZM39.8298 33.728C39.9678 33.866 40.0773 34.0299 40.152 34.2102C40.2267 34.3905 40.2651 34.5838 40.2651 34.779C40.2651 34.9742 40.2267 35.1674 40.152 35.3477C40.0773 35.5281 39.9678 35.6919 39.8298 35.8299C39.2496 36.4106 38.3084 36.4098 37.7279 35.8299C37.1472 35.2498 37.1476 34.3085 37.7279 33.728C38.0067 33.4495 38.3847 33.293 38.7788 33.293C39.1729 33.293 39.5509 33.4495 39.8298 33.728ZM36.7926 29.9587C36.5273 29.8052 36.3337 29.5527 36.2544 29.2566C36.1751 28.9604 36.2166 28.6449 36.3698 28.3794C36.5233 28.1142 36.7757 27.9206 37.0717 27.8414C37.3677 27.7621 37.6831 27.8035 37.9486 27.9566C38.2141 28.1099 38.4078 28.3624 38.4871 28.6586C38.5664 28.9547 38.5249 29.2702 38.3716 29.5357C38.2183 29.8012 37.9658 29.9949 37.6696 30.0743C37.3735 30.1536 37.0581 30.112 36.7926 29.9587ZM42.8761 32.136C42.4204 32.9261 41.4102 33.1965 40.6204 32.7403C39.8309 32.2847 39.5605 31.2748 40.0159 30.4854C40.4729 29.6958 41.4822 29.4251 42.2716 29.8809C43.0615 30.3371 43.3323 31.3464 42.8761 32.136ZM29.2512 31.6117C29.1726 31.6327 29.0907 31.6381 29.0101 31.6274C28.9295 31.6167 28.8518 31.5903 28.7814 31.5496C28.711 31.5089 28.6493 31.4548 28.5999 31.3903C28.5504 31.3257 28.5141 31.2521 28.4931 31.1735C28.4721 31.095 28.4668 31.0131 28.4775 30.9325C28.4881 30.8519 28.5145 30.7741 28.5552 30.7038C28.5959 30.6334 28.6501 30.5717 28.7146 30.5222C28.7791 30.4727 28.8528 30.4365 28.9313 30.4155C29.09 30.3731 29.2589 30.3954 29.4011 30.4776C29.5433 30.5597 29.647 30.695 29.6894 30.8537C29.7318 31.0123 29.7095 31.1813 29.6273 31.3234C29.5451 31.4656 29.4098 31.5693 29.2512 31.6117ZM45.6846 22.9325C45.6846 24.0275 44.7968 24.9163 43.7009 24.9163C42.6053 24.9163 41.7175 24.0275 41.7175 22.9325C41.7175 21.8372 42.6053 20.949 43.7011 20.949C44.7968 20.949 45.6846 21.8372 45.6846 22.9325ZM44.8789 27.74C44.6191 28.7083 43.6233 29.2837 42.6548 29.0244C41.6864 28.7643 41.1111 27.7685 41.371 26.8003C41.6303 25.8311 42.6265 25.2564 43.5949 25.5159C44.5641 25.7758 45.1383 26.7718 44.8789 27.74ZM32.5358 38.7669C32.5828 38.9351 32.5959 39.111 32.5745 39.2843C32.553 39.4576 32.4974 39.6249 32.4109 39.7766C32.3243 39.9283 32.2086 40.0613 32.0703 40.1679C31.932 40.2746 31.774 40.3527 31.6053 40.3979C31.4366 40.4431 31.2606 40.4543 31.0875 40.431C30.9145 40.4077 30.7477 40.3503 30.597 40.2622C30.4462 40.174 30.3145 40.0568 30.2093 39.9174C30.1041 39.778 30.0277 39.6191 29.9843 39.45C29.9394 39.2825 29.928 39.1078 29.9506 38.9358C29.9733 38.7639 30.0296 38.5981 30.1163 38.4479C30.203 38.2977 30.3185 38.1661 30.4561 38.0606C30.5937 37.955 30.7507 37.8776 30.9183 37.8328C31.0858 37.7878 31.2606 37.7764 31.4325 37.799C31.6045 37.8216 31.7704 37.8779 31.9206 37.9646C32.0709 38.0513 32.2025 38.1668 32.3081 38.3044C32.4137 38.4421 32.491 38.5993 32.5358 38.7669ZM36.5198 36.7372C36.612 36.8968 36.6718 37.0729 36.6959 37.2556C36.7199 37.4383 36.7078 37.6239 36.66 37.8019C36.6123 37.9799 36.53 38.1467 36.4178 38.2928C36.3056 38.439 36.1657 38.5616 36.0061 38.6537C35.8465 38.7458 35.6704 38.8056 35.4877 38.8297C35.305 38.8538 35.1194 38.8417 34.9414 38.794C34.7634 38.7463 34.5966 38.664 34.4504 38.5519C34.3042 38.4397 34.1816 38.2999 34.0894 38.1403C33.9972 37.9807 33.9373 37.8046 33.9131 37.6218C33.889 37.4391 33.9011 37.2534 33.9488 37.0754C33.9965 36.8973 34.0788 36.7304 34.191 36.5842C34.3032 36.438 34.4432 36.3154 34.6028 36.2233C34.7624 36.1311 34.9386 36.0713 35.1213 36.0473C35.3041 36.0232 35.4897 36.0354 35.6677 36.0831C35.8457 36.1308 36.0126 36.2131 36.1588 36.3253C36.305 36.4375 36.4277 36.5776 36.5198 36.7372ZM29.1651 34.7977C29.1324 34.682 29.123 34.5609 29.1375 34.4414C29.152 34.322 29.19 34.2067 29.2494 34.1021C29.3089 33.9975 29.3885 33.9058 29.4837 33.8322C29.5789 33.7586 29.6877 33.7047 29.8039 33.6736C29.9201 33.6425 30.0413 33.6347 30.1605 33.6508C30.2797 33.6669 30.3946 33.7066 30.4983 33.7674C30.6021 33.8283 30.6927 33.9091 30.765 34.0053C30.8372 34.1015 30.8896 34.2111 30.9192 34.3277C30.9778 34.559 30.943 34.8042 30.8223 35.0101C30.7015 35.216 30.5046 35.366 30.274 35.4278C30.0435 35.4896 29.7978 35.4581 29.5903 35.3402C29.3828 35.2223 29.2301 35.0274 29.1651 34.7977ZM33.4467 34.2208C33.2191 34.3522 32.9487 34.3878 32.6948 34.3197C32.441 34.2517 32.2246 34.0856 32.0932 33.8581C31.9618 33.6305 31.9262 33.36 31.9943 33.1062C32.0623 32.8524 32.2284 32.636 32.4559 32.5046C32.5686 32.4395 32.693 32.3973 32.822 32.3803C32.951 32.3634 33.0821 32.372 33.2078 32.4056C33.3335 32.4393 33.4513 32.4974 33.5545 32.5766C33.6577 32.6559 33.7444 32.7546 33.8094 32.8673C33.8745 32.98 33.9167 33.1044 33.9337 33.2334C33.9506 33.3624 33.942 33.4935 33.9084 33.6192C33.8747 33.7449 33.8166 33.8627 33.7374 33.9659C33.6581 34.0691 33.5594 34.1557 33.4467 34.2208ZM24.5198 34.7454C24.4661 34.9326 24.341 35.0913 24.1715 35.1872C24.0019 35.2831 23.8015 35.3086 23.6134 35.2582C23.4252 35.2078 23.2644 35.0856 23.1655 34.9178C23.0666 34.75 23.0375 34.5501 23.0845 34.361C23.1097 34.2667 23.1532 34.1783 23.2126 34.1009C23.2719 34.0234 23.346 33.9584 23.4305 33.9096C23.515 33.8608 23.6083 33.8291 23.7051 33.8164C23.8019 33.8037 23.9002 33.8102 23.9944 33.8355C24.1847 33.8865 24.347 34.0111 24.4455 34.1817C24.544 34.3523 24.5707 34.5551 24.5198 34.7454ZM22.8402 19.2275C22.8172 19.2045 22.7989 19.1772 22.7865 19.1472C22.774 19.1171 22.7676 19.0849 22.7676 19.0524C22.7676 19.0198 22.774 18.9876 22.7864 18.9576C22.7989 18.9275 22.8171 18.9002 22.8401 18.8772C22.8631 18.8542 22.8904 18.8359 22.9205 18.8235C22.9505 18.811 22.9827 18.8046 23.0153 18.8046C23.0478 18.8046 23.08 18.811 23.1101 18.8234C23.1401 18.8359 23.1674 18.8541 23.1904 18.8771C23.2369 18.9235 23.263 18.9865 23.263 19.0522C23.2631 19.118 23.237 19.181 23.1905 19.2274C23.1441 19.2739 23.0811 19.3 23.0154 19.3C22.9497 19.3001 22.8867 19.274 22.8402 19.2275ZM22.9816 16.1319C22.868 16.1939 22.7348 16.209 22.6102 16.174C22.4857 16.139 22.3798 16.0567 22.3151 15.9447C22.2504 15.8327 22.2321 15.6999 22.264 15.5745C22.2959 15.4492 22.3756 15.3413 22.486 15.2739C22.5998 15.2082 22.735 15.1904 22.8619 15.2244C22.9888 15.2583 23.0971 15.3414 23.1628 15.4551C23.2285 15.5689 23.2463 15.7041 23.2123 15.8311C23.1784 15.958 23.0953 16.0662 22.9816 16.1319ZM21.4681 7.06535C21.4247 6.91748 21.4112 6.76243 21.4286 6.60931C21.446 6.45619 21.4939 6.30809 21.5693 6.17373C21.6448 6.03937 21.7464 5.92146 21.8681 5.82693C21.9898 5.73241 22.1292 5.66318 22.278 5.62331C22.4269 5.58345 22.5822 5.57376 22.7349 5.59481C22.8876 5.61587 23.0345 5.66724 23.167 5.7459C23.2995 5.82457 23.4149 5.92894 23.5065 6.05288C23.5981 6.17682 23.664 6.31782 23.7003 6.4676C23.7713 6.76084 23.7248 7.07025 23.5708 7.3297C23.4168 7.58916 23.1674 7.77809 22.876 7.85614C22.5845 7.93419 22.2741 7.89517 22.011 7.7474C21.7479 7.59964 21.5531 7.35485 21.4681 7.06535ZM19.8799 18.4194C19.9747 18.4741 20.0439 18.5643 20.0722 18.67C20.1005 18.7757 20.0857 18.8883 20.031 18.9831C19.9762 19.0779 19.8861 19.1471 19.7804 19.1754C19.6747 19.2037 19.562 19.1889 19.4673 19.1342C19.4203 19.1072 19.3791 19.0712 19.346 19.0282C19.313 18.9853 19.2888 18.9363 19.2747 18.8839C19.2607 18.8316 19.2571 18.777 19.2642 18.7233C19.2713 18.6696 19.289 18.6178 19.3161 18.5709C19.3432 18.5239 19.3792 18.4828 19.4222 18.4497C19.4651 18.4167 19.5142 18.3924 19.5665 18.3784C19.6189 18.3643 19.6735 18.3607 19.7272 18.3677C19.781 18.3748 19.833 18.3923 19.8799 18.4194ZM21.322 16.7169C21.4023 16.803 21.446 16.9169 21.444 17.0346C21.442 17.1523 21.3943 17.2646 21.3111 17.3479C21.2279 17.4311 21.1157 17.4789 20.998 17.481C20.8803 17.4831 20.7664 17.4395 20.6802 17.3593C20.5999 17.2732 20.5562 17.1593 20.5582 17.0416C20.5602 16.9239 20.6079 16.8116 20.6911 16.7283C20.7743 16.6451 20.8865 16.5973 21.0042 16.5952C21.1219 16.5931 21.2358 16.6367 21.322 16.7169ZM20.3247 12.8512C20.2437 12.6999 20.2247 12.523 20.2718 12.358C20.3189 12.1929 20.4283 12.0527 20.577 11.9669C20.7257 11.8812 20.9019 11.8566 21.0683 11.8985C21.2348 11.9404 21.3784 12.0453 21.4688 12.1912C21.5122 12.2663 21.5403 12.3493 21.5516 12.4353C21.5628 12.5213 21.5571 12.6086 21.5346 12.6924C21.5121 12.7762 21.4734 12.8547 21.4206 12.9235C21.3677 12.9922 21.3019 13.0499 21.2268 13.0933C21.1516 13.1366 21.0687 13.1647 20.9827 13.176C20.8967 13.1873 20.8094 13.1816 20.7256 13.1591C20.6418 13.1366 20.5633 13.0978 20.4945 13.045C20.4257 12.9922 20.368 12.9263 20.3247 12.8512ZM25.6831 6.19066C25.6831 5.50666 26.2379 4.95166 26.9217 4.95166C27.6055 4.95166 28.1599 5.50666 28.1599 6.19066C28.16 6.51913 28.0296 6.83417 27.7974 7.06649C27.5651 7.29881 27.2502 7.42937 26.9217 7.42947C26.5932 7.42937 26.2782 7.29882 26.0459 7.06651C25.8136 6.83421 25.6831 6.51917 25.6831 6.19066ZM25.405 17.2935C25.4896 17.2708 25.5798 17.2828 25.6556 17.3266C25.7315 17.3705 25.7868 17.4426 25.8094 17.5273C25.8321 17.6119 25.8201 17.7021 25.7763 17.7779C25.7325 17.8538 25.6603 17.9091 25.5756 17.9317C25.5337 17.9429 25.49 17.9458 25.447 17.9401C25.404 17.9344 25.3625 17.9203 25.325 17.8986C25.2874 17.8769 25.2545 17.848 25.2281 17.8135C25.2017 17.7791 25.1824 17.7398 25.1712 17.6979C25.16 17.656 25.1572 17.6123 25.1628 17.5693C25.1685 17.5263 25.1826 17.4848 25.2043 17.4473C25.226 17.4097 25.2549 17.3768 25.2894 17.3504C25.3238 17.324 25.3631 17.3047 25.405 17.2935ZM23.6097 10.5943C23.7992 10.5459 24.0002 10.5741 24.169 10.6729C24.3378 10.7716 24.4609 10.933 24.5116 11.1219C24.5623 11.3108 24.5364 11.5121 24.4396 11.6821C24.3428 11.8521 24.183 11.9771 23.9946 12.03C23.9004 12.0553 23.8021 12.0617 23.7053 12.049C23.6085 12.0363 23.5152 12.0046 23.4307 11.9559C23.3462 11.9071 23.2721 11.8421 23.2127 11.7647C23.1533 11.6872 23.1097 11.5989 23.0845 11.5046C23.0336 11.3143 23.0602 11.1115 23.1587 10.9408C23.2571 10.7701 23.4194 10.6455 23.6097 10.5943ZM24.6143 14.3428C24.683 14.3228 24.7549 14.3167 24.8259 14.3249C24.8969 14.3331 24.9656 14.3554 25.0279 14.3904C25.0902 14.4255 25.1448 14.4727 25.1886 14.5292C25.2324 14.5857 25.2645 14.6503 25.283 14.7194C25.3015 14.7885 25.306 14.8605 25.2962 14.9313C25.2865 15.0021 25.2627 15.0703 25.2263 15.1318C25.1898 15.1933 25.1415 15.2469 25.0841 15.2895C25.0266 15.332 24.9613 15.3627 24.8918 15.3797C24.7555 15.413 24.6115 15.3915 24.4908 15.32C24.3701 15.2485 24.2822 15.1325 24.2459 14.997C24.2096 14.8614 24.2278 14.717 24.2967 14.5947C24.3656 14.4725 24.4796 14.382 24.6143 14.3428ZM17.6144 8.98178C17.4721 8.73532 17.4335 8.44244 17.5072 8.16755C17.5808 7.89266 17.7606 7.65827 18.007 7.51591C18.2531 7.38022 18.5426 7.34645 18.8133 7.42185C19.0841 7.49725 19.3144 7.67582 19.4549 7.9192C19.5954 8.16257 19.6349 8.45135 19.5649 8.72351C19.4948 8.99567 19.3208 9.2295 19.0803 9.37478C18.9582 9.44531 18.8235 9.4911 18.6837 9.50952C18.544 9.52794 18.402 9.51863 18.2659 9.48213C18.1297 9.44563 18.0021 9.38266 17.8903 9.2968C17.7785 9.21095 17.6848 9.1039 17.6144 8.98178ZM16.9206 28.6783C16.9531 28.7347 16.9742 28.7969 16.9827 28.8614C16.9911 28.926 16.9868 28.9915 16.9699 29.0544C16.953 29.1172 16.9239 29.1762 16.8842 29.2278C16.8446 29.2794 16.7951 29.3227 16.7388 29.3552C16.6824 29.3877 16.6201 29.4087 16.5556 29.4172C16.4911 29.4256 16.4255 29.4213 16.3626 29.4044C16.2998 29.3875 16.2409 29.3584 16.1893 29.3188C16.1377 29.2791 16.0944 29.2297 16.0619 29.1733C15.9962 29.0594 15.9785 28.9241 16.0126 28.7972C16.0467 28.6702 16.1299 28.562 16.2438 28.4964C16.3576 28.4308 16.4929 28.4131 16.6199 28.4472C16.7468 28.4813 16.855 28.5644 16.9206 28.6783ZM9.90832 18.1672C9.93775 18.0573 9.98856 17.9543 10.0578 17.864C10.1271 17.7737 10.2135 17.698 10.312 17.6411C10.4106 17.5842 10.5194 17.5473 10.6322 17.5325C10.745 17.5176 10.8597 17.5252 10.9696 17.5547C11.0795 17.584 11.1826 17.6348 11.2729 17.704C11.3632 17.7732 11.439 17.8596 11.4959 17.9581C11.5528 18.0566 11.5898 18.1654 11.6047 18.2782C11.6196 18.391 11.6121 18.5056 11.5827 18.6155C11.5533 18.7255 11.5025 18.8287 11.4333 18.919C11.364 19.0094 11.2777 19.0852 11.1791 19.1422C11.0805 19.1991 10.9717 19.2361 10.8588 19.251C10.7459 19.2658 10.6312 19.2583 10.5213 19.2288C10.2992 19.1693 10.1098 19.0241 9.99486 18.825C9.87989 18.6259 9.84888 18.3893 9.90832 18.1672ZM11.596 14.1002C11.6858 13.9446 11.8197 13.8192 11.9808 13.7398C12.1419 13.6604 12.3229 13.6305 12.501 13.654C12.679 13.6775 12.8461 13.7532 12.9812 13.8716C13.1162 13.9901 13.213 14.1459 13.2595 14.3194C13.306 14.4928 13.2999 14.6762 13.2422 14.8463C13.1844 15.0163 13.0776 15.1654 12.9351 15.2748C12.7926 15.3841 12.6209 15.4487 12.4417 15.4604C12.2624 15.4721 12.0838 15.4305 11.9283 15.3407C11.7198 15.2202 11.5677 15.0218 11.5054 14.7892C11.4431 14.5566 11.4757 14.3087 11.596 14.1002ZM15.7758 34.0524C15.8678 34.1444 15.9409 34.2536 15.9907 34.3738C16.0405 34.4939 16.0662 34.6228 16.0662 34.7529C16.0662 34.883 16.0405 35.0119 15.9907 35.1321C15.9409 35.2523 15.8678 35.3615 15.7758 35.4534C15.5899 35.6391 15.3379 35.7435 15.0752 35.7435C14.8124 35.7435 14.5604 35.6391 14.3746 35.4534C14.1889 35.2676 14.0845 35.0156 14.0845 34.7529C14.0845 34.4902 14.1889 34.2382 14.3746 34.0524C14.4665 33.9604 14.5758 33.8873 14.696 33.8375C14.8162 33.7877 14.945 33.762 15.0752 33.762C15.2053 33.762 15.3341 33.7877 15.4544 33.8375C15.5746 33.8873 15.6838 33.9604 15.7758 34.0524ZM13.2021 30.8246C13.2618 30.9278 13.3005 31.0418 13.3161 31.16C13.3317 31.2782 13.3239 31.3984 13.293 31.5136C13.2622 31.6287 13.209 31.7367 13.1364 31.8313C13.0639 31.926 12.9734 32.0054 12.8702 32.065C12.7669 32.1247 12.6529 32.1634 12.5347 32.179C12.4165 32.1946 12.2964 32.1867 12.1812 32.1559C12.066 32.1251 11.958 32.0719 11.8634 31.9993C11.7688 31.9268 11.6894 31.8363 11.6298 31.733C11.5093 31.5245 11.4766 31.2767 11.5388 31.0441C11.6011 30.8115 11.7532 30.6131 11.9617 30.4926C12.1702 30.3722 12.4181 30.3395 12.6507 30.4017C12.8833 30.464 13.0817 30.6161 13.2021 30.8246ZM14.3749 11.8134C14.1892 11.6276 14.0849 11.3756 14.0849 11.1129C14.0849 10.8502 14.1892 10.5982 14.3749 10.4124C14.5608 10.2267 14.8128 10.1224 15.0755 10.1224C15.3383 10.1224 15.5903 10.2267 15.7761 10.4124C15.8682 10.5044 15.9412 10.6136 15.9911 10.7337C16.0409 10.8539 16.0666 10.9828 16.0666 11.1129C16.0666 11.243 16.0409 11.3719 15.9911 11.4921C15.9412 11.6123 15.8682 11.7215 15.7761 11.8134C15.6842 11.9055 15.5749 11.9785 15.4547 12.0283C15.3345 12.0781 15.2057 12.1038 15.0755 12.1038C14.9454 12.1038 14.8166 12.0781 14.6963 12.0283C14.5761 11.9785 14.4669 11.9055 14.3749 11.8134ZM18.8119 14.8494C18.7035 14.9577 18.5565 15.0185 18.4032 15.0185C18.2499 15.0185 18.1029 14.9577 17.9944 14.8494C17.886 14.7409 17.8251 14.5938 17.8251 14.4405C17.8251 14.2871 17.886 14.14 17.9944 14.0315C18.1029 13.9233 18.2499 13.8625 18.4032 13.8625C18.5565 13.8625 18.7035 13.9233 18.8119 14.0315C18.9204 14.14 18.9813 14.2871 18.9813 14.4405C18.9813 14.5938 18.9204 14.7409 18.8119 14.8494ZM18.8119 31.0166C18.8656 31.0703 18.9082 31.134 18.9372 31.2041C18.9663 31.2742 18.9812 31.3494 18.9812 31.4253C18.9812 31.5011 18.9663 31.5763 18.9372 31.6464C18.9082 31.7165 18.8656 31.7802 18.8119 31.8339C18.7583 31.8876 18.6946 31.9301 18.6244 31.9592C18.5543 31.9882 18.4792 32.0032 18.4033 32.0032C18.3274 32.0032 18.2522 31.9882 18.1821 31.9592C18.112 31.9301 18.0483 31.8876 17.9946 31.8339C17.8862 31.7255 17.8253 31.5785 17.8253 31.4252C17.8253 31.2719 17.8862 31.1249 17.9945 31.0165C18.1029 30.9081 18.2499 30.8472 18.4032 30.8472C18.5565 30.8471 18.7035 30.9082 18.8119 31.0166ZM16.0624 16.6923C16.094 16.6342 16.1369 16.583 16.1886 16.5417C16.2403 16.5005 16.2997 16.47 16.3634 16.452C16.427 16.4341 16.4936 16.4291 16.5593 16.4373C16.6249 16.4455 16.6882 16.4668 16.7455 16.4999C16.8028 16.533 16.8528 16.5772 16.8927 16.6299C16.9327 16.6827 16.9616 16.7429 16.9779 16.807C16.9941 16.8711 16.9974 16.9378 16.9875 17.0032C16.9776 17.0686 16.9546 17.1313 16.9201 17.1877C16.8526 17.2978 16.7448 17.3772 16.6196 17.409C16.4944 17.4408 16.3618 17.4224 16.2499 17.3578C16.1381 17.2932 16.0559 17.1875 16.0209 17.0632C15.9859 16.9389 16.0008 16.8058 16.0624 16.6923Z" fill="white"/>
</g>
<defs>
<clipPath id="clip0_6979_45877">
<rect width="45" height="45" fill="white" transform="translate(0.684631 0.432617)"/>
</clipPath>
</defs>
</svg>
