<svg width="141" height="51" viewBox="0 0 141 51" fill="none" xmlns="http://www.w3.org/2000/svg">
<path d="M5.77905 14.9486C5.77905 12.1067 7.8675 9.6967 10.6805 9.29245L26.9568 6.95348C30.4007 6.45856 33.4839 9.13032 33.4839 12.6097V30.3012C33.4839 33.4571 30.9255 36.0155 27.7696 36.0155H11.4933C8.33742 36.0155 5.77905 33.4571 5.77905 30.3012V14.9486Z" fill="#16BB9D"/>
<path d="M14.1482 21.2049C13.79 17.8293 16.4361 14.8876 19.8306 14.8876H37.1244C40.5191 14.8876 43.1653 17.8297 42.8067 21.2055L40.8937 39.2158C40.5559 42.3958 37.6743 44.6797 34.5012 44.2822L20.8502 42.5724C18.2174 42.2426 16.158 40.1439 15.878 37.5054L14.1482 21.2049Z" fill="#722CE7"/>
<g filter="url(#filter0_d_7401_2990)">
<path d="M33.4839 14.8877V30.3013C33.4839 33.4572 30.9255 36.0156 27.7696 36.0156H15.7199L14.1482 21.205C13.79 17.8294 16.4361 14.8877 19.8306 14.8877H33.4839Z" fill="white"/>
</g>
<ellipse cx="24.8992" cy="20.747" rx="2.36638" ry="2.70458" transform="rotate(25.1475 24.8992 20.747)" fill="#121212"/>
<path d="M24.6099 24.6013H24.2584C23.5701 24.6013 23.0876 25.2803 23.314 25.9302L23.3637 26.073C23.4391 26.2895 23.4379 26.5252 23.3602 26.7408L21.6029 31.6205C21.4727 31.982 21.5611 32.3861 21.8304 32.6602L23.0304 33.8814C23.3982 34.2557 23.9927 34.2821 24.3922 33.9418L25.9863 32.5839C26.2567 32.3535 26.3846 31.9968 26.3223 31.6471L25.4339 26.665C25.4038 26.4962 25.4176 26.3225 25.474 26.1606L25.5542 25.9303C25.7806 25.2803 25.2981 24.6013 24.6099 24.6013Z" fill="#121212"/>
<path fill-rule="evenodd" clip-rule="evenodd" d="M129.196 18.8707C128.513 18.8707 127.916 18.6254 127.404 18.1347C126.913 17.6227 126.668 17.0254 126.668 16.3427C126.668 15.66 126.913 15.0627 127.404 14.5507C127.916 14.0387 128.513 13.7827 129.196 13.7827C129.9 13.7827 130.497 14.0387 130.988 14.5507C131.5 15.0627 131.756 15.66 131.756 16.3427C131.756 17.0254 131.5 17.6227 130.988 18.1347C130.497 18.6254 129.9 18.8707 129.196 18.8707ZM127.148 20.7907H131.276V36.7907H127.148V20.7907ZM52.6284 32.9827C54.0364 35.82 56.5004 37.2387 60.0204 37.2387C62.3244 37.2387 64.2124 36.5881 65.6844 35.2867C67.1564 33.9854 67.8924 32.1614 67.8924 29.8147V14.3907H63.6603V14.3892H54.9647V18.6099H63.5084V29.8147C63.5084 30.7747 63.2204 31.532 62.6444 32.0867C62.0684 32.6414 61.1938 32.9187 60.0204 32.9187C58.3351 32.9187 57.1404 32.2147 56.4364 30.8067L52.6284 32.9827ZM79.1389 37.2387C81.5069 37.2387 83.5123 36.4281 85.1549 34.8067C86.7976 33.164 87.6189 31.1587 87.6189 28.7907C87.6189 26.4227 86.7976 24.428 85.1549 22.8067C83.5123 21.164 81.5069 20.3427 79.1389 20.3427C76.7709 20.3427 74.7656 21.164 73.1229 22.8067C71.5016 24.428 70.6909 26.4227 70.6909 28.7907C70.6909 31.1587 71.5016 33.164 73.1229 34.8067C74.7656 36.4281 76.7709 37.2387 79.1389 37.2387ZM79.1389 33.2067C77.9016 33.2067 76.8669 32.7907 76.0349 31.9587C75.2243 31.1267 74.8189 30.0707 74.8189 28.7907C74.8189 27.5107 75.2243 26.4547 76.0349 25.6227C76.8669 24.7907 77.9016 24.3747 79.1389 24.3747C80.3763 24.3747 81.4109 24.7907 82.2429 25.6227C83.0749 26.4547 83.4909 27.5107 83.4909 28.7907C83.4909 30.0707 83.0749 31.1267 82.2429 31.9587C81.4109 32.7907 80.3763 33.2067 79.1389 33.2067ZM99.8349 20.3427C101.99 20.3427 103.824 21.164 105.339 22.8067C106.875 24.428 107.643 26.4227 107.643 28.7907C107.643 31.1587 106.875 33.164 105.339 34.8067C103.824 36.4281 101.99 37.2387 99.8349 37.2387C97.5949 37.2387 95.8669 36.46 94.6509 34.9027V36.7907H90.5229V14.3907H94.6509V22.6787C95.8669 21.1214 97.5949 20.3427 99.8349 20.3427ZM95.8989 32.0547C96.7309 32.8867 97.7869 33.3027 99.0669 33.3027C100.347 33.3027 101.403 32.8867 102.235 32.0547C103.088 31.2014 103.515 30.1134 103.515 28.7907C103.515 27.468 103.088 26.3907 102.235 25.5587C101.403 24.7054 100.347 24.2787 99.0669 24.2787C97.7869 24.2787 96.7309 24.7054 95.8989 25.5587C95.0669 26.3907 94.6509 27.468 94.6509 28.7907C94.6509 30.1134 95.0669 31.2014 95.8989 32.0547ZM115.162 18.6147H124.122V14.3907H110.746V36.7907H115.162V28.1507H123.866V23.9267H115.162V18.6147ZM135.31 18.1347C135.822 18.6254 136.42 18.8707 137.102 18.8707C137.806 18.8707 138.403 18.6254 138.894 18.1347C139.406 17.6227 139.662 17.0254 139.662 16.3427C139.662 15.66 139.406 15.0627 138.894 14.5507C138.403 14.0387 137.806 13.7827 137.102 13.7827C136.42 13.7827 135.822 14.0387 135.31 14.5507C134.819 15.0627 134.574 15.66 134.574 16.3427C134.574 17.0254 134.819 17.6227 135.31 18.1347ZM139.182 20.7907H135.054V36.7907H139.182V20.7907Z" fill="#121212"/>
<defs>
<filter id="filter0_d_7401_2990" x="0.115662" y="0.887695" width="47.3682" height="49.1279" filterUnits="userSpaceOnUse" color-interpolation-filters="sRGB">
<feFlood flood-opacity="0" result="BackgroundImageFix"/>
<feColorMatrix in="SourceAlpha" type="matrix" values="0 0 0 0 0 0 0 0 0 0 0 0 0 0 0 0 0 0 127 0" result="hardAlpha"/>
<feOffset/>
<feGaussianBlur stdDeviation="7"/>
<feComposite in2="hardAlpha" operator="out"/>
<feColorMatrix type="matrix" values="0 0 0 0 0 0 0 0 0 0 0 0 0 0 0 0 0 0 0.08 0"/>
<feBlend mode="normal" in2="BackgroundImageFix" result="effect1_dropShadow_7401_2990"/>
<feBlend mode="normal" in="SourceGraphic" in2="effect1_dropShadow_7401_2990" result="shape"/>
</filter>
</defs>
</svg>
